solid Endcap
facet normal 0.4999999999999355 0.8660254037844759 0.0
outer loop
vertex 1550.4012675625336 1692.9341777816894 4.999999999999999
vertex 1550.9583955683468 1692.7034078057038 0.9999999999999999
vertex 1550.4012675625336 1692.9341777816894 0.9999999999999999
endloop
endfacet
facet normal 0.2588190451024278 0.9659258262890932 0.0
outer loop
vertex 1550.9583955683468 1692.7034078057038 0.9999999999999999
vertex 1550.4012675625336 1692.9341777816894 4.999999999999999
vertex 1550.9583955683468 1692.7034078057038 4.999999999999999
endloop
endfacet
facet normal 0.707106781186569 0.707106781186526 0.0
outer loop
vertex 1549.9228508979925 1693.3012797998906 4.999999999999999
vertex 1550.4012675625336 1692.9341777816894 0.9999999999999999
vertex 1549.9228508979925 1693.3012797998906 0.9999999999999999
endloop
endfacet
facet normal 0.4999999999999355 0.8660254037844759 0.0
outer loop
vertex 1550.4012675625336 1692.9341777816894 0.9999999999999999
vertex 1549.9228508979925 1693.3012797998906 4.999999999999999
vertex 1550.4012675625336 1692.9341777816894 4.999999999999999
endloop
endfacet
facet normal 0.8660254037844465 0.4999999999999863 0.0
outer loop
vertex 1549.5557488797913 1693.7796964644313 0.9999999999999999
vertex 1549.9228508979925 1693.3012797998906 4.999999999999999
vertex 1549.9228508979925 1693.3012797998906 0.9999999999999999
endloop
endfacet
facet normal 0.707106781186569 0.707106781186526 0.0
outer loop
vertex 1549.9228508979925 1693.3012797998906 4.999999999999999
vertex 1549.5557488797913 1693.7796964644313 0.9999999999999999
vertex 1549.5557488797913 1693.7796964644313 4.999999999999999
endloop
endfacet
facet normal 0.9659258262890701 0.25881904510251386 0.0
outer loop
vertex 1549.3249789038057 1694.3368244702447 0.9999999999999999
vertex 1549.5557488797913 1693.7796964644313 4.999999999999999
vertex 1549.5557488797913 1693.7796964644313 0.9999999999999999
endloop
endfacet
facet normal 0.8660254037844465 0.4999999999999863 0.0
outer loop
vertex 1549.5557488797913 1693.7796964644313 4.999999999999999
vertex 1549.3249789038057 1694.3368244702447 0.9999999999999999
vertex 1549.3249789038057 1694.3368244702447 4.999999999999999
endloop
endfacet
facet normal 0.9999999999999999 0.0 0.0
outer loop
vertex 1549.2462675625331 1694.9346964644315 0.9999999999999999
vertex 1549.3249789038057 1694.3368244702447 4.999999999999999
vertex 1549.3249789038057 1694.3368244702447 0.9999999999999999
endloop
endfacet
facet normal 0.9659258262890701 0.25881904510251386 0.0
outer loop
vertex 1549.3249789038057 1694.3368244702447 4.999999999999999
vertex 1549.2462675625331 1694.9346964644315 0.9999999999999999
vertex 1549.2462675625331 1694.9346964644315 4.999999999999999
endloop
endfacet
facet normal 0.9659258262890377 -0.2588190451026356 0.0
outer loop
vertex 1549.3249789038057 1695.5325684586182 0.9999999999999999
vertex 1549.2462675625331 1694.9346964644315 4.999999999999999
vertex 1549.2462675625331 1694.9346964644315 0.9999999999999999
endloop
endfacet
facet normal 0.9999999999999999 0.0 0.0
outer loop
vertex 1549.2462675625331 1694.9346964644315 4.999999999999999
vertex 1549.3249789038057 1695.5325684586182 0.9999999999999999
vertex 1549.3249789038057 1695.5325684586182 4.999999999999999
endloop
endfacet
facet normal 0.8660254037844837 -0.49999999999992184 0.0
outer loop
vertex 1549.5557488797913 1696.0896964644314 0.9999999999999999
vertex 1549.3249789038057 1695.5325684586182 4.999999999999999
vertex 1549.3249789038057 1695.5325684586182 0.9999999999999999
endloop
endfacet
facet normal 0.9659258262890377 -0.2588190451026356 0.0
outer loop
vertex 1549.3249789038057 1695.5325684586182 4.999999999999999
vertex 1549.5557488797913 1696.0896964644314 0.9999999999999999
vertex 1549.5557488797913 1696.0896964644314 4.999999999999999
endloop
endfacet
facet normal 0.7071067811867107 -0.7071067811863844 0.0
outer loop
vertex 1549.9228508979925 1696.5681131289723 0.9999999999999999
vertex 1549.5557488797913 1696.0896964644314 4.999999999999999
vertex 1549.5557488797913 1696.0896964644314 0.9999999999999999
endloop
endfacet
facet normal 0.8660254037844837 -0.49999999999992184 0.0
outer loop
vertex 1549.5557488797913 1696.0896964644314 4.999999999999999
vertex 1549.9228508979925 1696.5681131289723 0.9999999999999999
vertex 1549.9228508979925 1696.5681131289723 4.999999999999999
endloop
endfacet
facet normal 0.4999999999999355 -0.8660254037844759 0.0
outer loop
vertex 1550.4012675625336 1696.9352151471735 4.999999999999999
vertex 1549.9228508979925 1696.5681131289723 0.9999999999999999
vertex 1550.4012675625336 1696.9352151471735 0.9999999999999999
endloop
endfacet
facet normal 0.7071067811867107 -0.7071067811863844 0.0
outer loop
vertex 1549.9228508979925 1696.5681131289723 0.9999999999999999
vertex 1550.4012675625336 1696.9352151471735 4.999999999999999
vertex 1549.9228508979925 1696.5681131289723 4.999999999999999
endloop
endfacet
facet normal 0.2588190451024278 -0.9659258262890932 0.0
outer loop
vertex 1550.9583955683468 1697.165985123159 4.999999999999999
vertex 1550.4012675625336 1696.9352151471735 0.9999999999999999
vertex 1550.9583955683468 1697.165985123159 0.9999999999999999
endloop
endfacet
facet normal 0.4999999999999355 -0.8660254037844759 0.0
outer loop
vertex 1550.4012675625336 1696.9352151471735 0.9999999999999999
vertex 1550.9583955683468 1697.165985123159 4.999999999999999
vertex 1550.4012675625336 1696.9352151471735 4.999999999999999
endloop
endfacet
facet normal 0.0 -0.9999999999999999 0.0
outer loop
vertex 1551.5562675625333 1697.2446964644312 4.999999999999999
vertex 1550.9583955683468 1697.165985123159 0.9999999999999999
vertex 1551.5562675625333 1697.2446964644312 0.9999999999999999
endloop
endfacet
facet normal 0.2588190451024278 -0.9659258262890932 0.0
outer loop
vertex 1550.9583955683468 1697.165985123159 0.9999999999999999
vertex 1551.5562675625333 1697.2446964644312 4.999999999999999
vertex 1550.9583955683468 1697.165985123159 4.999999999999999
endloop
endfacet
facet normal -0.2588190451024278 -0.9659258262890932 0.0
outer loop
vertex 1552.15413955672 1697.165985123159 4.999999999999999
vertex 1551.5562675625333 1697.2446964644312 0.9999999999999999
vertex 1552.15413955672 1697.165985123159 0.9999999999999999
endloop
endfacet
facet normal 0.0 -0.9999999999999999 0.0
outer loop
vertex 1551.5562675625333 1697.2446964644312 0.9999999999999999
vertex 1552.15413955672 1697.165985123159 4.999999999999999
vertex 1551.5562675625333 1697.2446964644312 4.999999999999999
endloop
endfacet
facet normal -0.4999999999999355 -0.8660254037844759 0.0
outer loop
vertex 1552.7112675625333 1696.9352151471735 4.999999999999999
vertex 1552.15413955672 1697.165985123159 0.9999999999999999
vertex 1552.7112675625333 1696.9352151471735 0.9999999999999999
endloop
endfacet
facet normal -0.2588190451024278 -0.9659258262890932 0.0
outer loop
vertex 1552.15413955672 1697.165985123159 0.9999999999999999
vertex 1552.7112675625333 1696.9352151471735 4.999999999999999
vertex 1552.15413955672 1697.165985123159 4.999999999999999
endloop
endfacet
facet normal -0.707106781186569 -0.707106781186526 0.0
outer loop
vertex 1553.1896842270742 1696.5681131289723 4.999999999999999
vertex 1552.7112675625333 1696.9352151471735 0.9999999999999999
vertex 1553.1896842270742 1696.5681131289723 0.9999999999999999
endloop
endfacet
facet normal -0.4999999999999355 -0.8660254037844759 0.0
outer loop
vertex 1552.7112675625333 1696.9352151471735 0.9999999999999999
vertex 1553.1896842270742 1696.5681131289723 4.999999999999999
vertex 1552.7112675625333 1696.9352151471735 4.999999999999999
endloop
endfacet
facet normal -0.707106781186569 -0.707106781186526 0.0
outer loop
vertex 1553.1896842270742 1696.5681131289723 4.999999999999999
vertex 1553.5567862452751 1696.0896964644317 0.9999999999999999
vertex 1553.5567862452751 1696.0896964644317 4.999999999999999
endloop
endfacet
facet normal -0.8660254037844465 -0.4999999999999863 0.0
outer loop
vertex 1553.5567862452751 1696.0896964644317 0.9999999999999999
vertex 1553.1896842270742 1696.5681131289723 4.999999999999999
vertex 1553.1896842270742 1696.5681131289723 0.9999999999999999
endloop
endfacet
facet normal -0.8660254037844465 -0.4999999999999863 0.0
outer loop
vertex 1553.5567862452751 1696.0896964644317 4.999999999999999
vertex 1553.787556221261 1695.5325684586182 0.9999999999999999
vertex 1553.787556221261 1695.5325684586182 4.999999999999999
endloop
endfacet
facet normal -0.9659258262890701 -0.25881904510251386 0.0
outer loop
vertex 1553.787556221261 1695.5325684586182 0.9999999999999999
vertex 1553.5567862452751 1696.0896964644317 4.999999999999999
vertex 1553.5567862452751 1696.0896964644317 0.9999999999999999
endloop
endfacet
facet normal -0.9659258262890701 -0.25881904510251386 0.0
outer loop
vertex 1553.787556221261 1695.5325684586182 4.999999999999999
vertex 1553.866267562533 1694.9346964644315 0.9999999999999999
vertex 1553.866267562533 1694.9346964644315 4.999999999999999
endloop
endfacet
facet normal -0.9999999999999999 0.0 0.0
outer loop
vertex 1553.866267562533 1694.9346964644315 0.9999999999999999
vertex 1553.787556221261 1695.5325684586182 4.999999999999999
vertex 1553.787556221261 1695.5325684586182 0.9999999999999999
endloop
endfacet
facet normal -0.9999999999999999 0.0 0.0
outer loop
vertex 1553.866267562533 1694.9346964644315 4.999999999999999
vertex 1553.787556221261 1694.3368244702447 0.9999999999999999
vertex 1553.787556221261 1694.3368244702447 4.999999999999999
endloop
endfacet
facet normal -0.9659258262890377 0.2588190451026356 0.0
outer loop
vertex 1553.787556221261 1694.3368244702447 0.9999999999999999
vertex 1553.866267562533 1694.9346964644315 4.999999999999999
vertex 1553.866267562533 1694.9346964644315 0.9999999999999999
endloop
endfacet
facet normal -0.9659258262890377 0.2588190451026356 0.0
outer loop
vertex 1553.787556221261 1694.3368244702447 4.999999999999999
vertex 1553.5567862452751 1693.7796964644315 0.9999999999999999
vertex 1553.5567862452751 1693.7796964644315 4.999999999999999
endloop
endfacet
facet normal -0.8660254037844837 0.49999999999992184 0.0
outer loop
vertex 1553.5567862452751 1693.7796964644315 0.9999999999999999
vertex 1553.787556221261 1694.3368244702447 4.999999999999999
vertex 1553.787556221261 1694.3368244702447 0.9999999999999999
endloop
endfacet
facet normal -0.8660254037844837 0.49999999999992184 0.0
outer loop
vertex 1553.5567862452751 1693.7796964644315 4.999999999999999
vertex 1553.1896842270742 1693.3012797998906 0.9999999999999999
vertex 1553.1896842270742 1693.3012797998906 4.999999999999999
endloop
endfacet
facet normal -0.7071067811867107 0.7071067811863844 0.0
outer loop
vertex 1553.1896842270742 1693.3012797998906 0.9999999999999999
vertex 1553.5567862452751 1693.7796964644315 4.999999999999999
vertex 1553.5567862452751 1693.7796964644315 0.9999999999999999
endloop
endfacet
facet normal -0.4999999999999355 0.8660254037844759 0.0
outer loop
vertex 1552.7112675625333 1692.9341777816894 4.999999999999999
vertex 1553.1896842270742 1693.3012797998906 0.9999999999999999
vertex 1552.7112675625333 1692.9341777816894 0.9999999999999999
endloop
endfacet
facet normal -0.7071067811867107 0.7071067811863844 0.0
outer loop
vertex 1553.1896842270742 1693.3012797998906 0.9999999999999999
vertex 1552.7112675625333 1692.9341777816894 4.999999999999999
vertex 1553.1896842270742 1693.3012797998906 4.999999999999999
endloop
endfacet
facet normal -0.2588190451024278 0.9659258262890932 0.0
outer loop
vertex 1552.15413955672 1692.7034078057038 4.999999999999999
vertex 1552.7112675625333 1692.9341777816894 0.9999999999999999
vertex 1552.15413955672 1692.7034078057038 0.9999999999999999
endloop
endfacet
facet normal -0.4999999999999355 0.8660254037844759 0.0
outer loop
vertex 1552.7112675625333 1692.9341777816894 0.9999999999999999
vertex 1552.15413955672 1692.7034078057038 4.999999999999999
vertex 1552.7112675625333 1692.9341777816894 4.999999999999999
endloop
endfacet
facet normal 0.0 0.9999999999999999 0.0
outer loop
vertex 1551.5562675625333 1692.6246964644317 4.999999999999999
vertex 1552.15413955672 1692.7034078057038 0.9999999999999999
vertex 1551.5562675625333 1692.6246964644317 0.9999999999999999
endloop
endfacet
facet normal -0.2588190451024278 0.9659258262890932 0.0
outer loop
vertex 1552.15413955672 1692.7034078057038 0.9999999999999999
vertex 1551.5562675625333 1692.6246964644317 4.999999999999999
vertex 1552.15413955672 1692.7034078057038 4.999999999999999
endloop
endfacet
facet normal 0.2588190451024278 0.9659258262890932 0.0
outer loop
vertex 1550.9583955683468 1692.7034078057038 4.999999999999999
vertex 1551.5562675625333 1692.6246964644317 0.9999999999999999
vertex 1550.9583955683468 1692.7034078057038 0.9999999999999999
endloop
endfacet
facet normal 0.0 0.9999999999999999 0.0
outer loop
vertex 1551.5562675625333 1692.6246964644317 0.9999999999999999
vertex 1550.9583955683468 1692.7034078057038 4.999999999999999
vertex 1551.5562675625333 1692.6246964644317 4.999999999999999
endloop
endfacet
facet normal -0.0 -0.0 1.0
outer loop
vertex 1547.6925642573767 1693.8994202840213 0.0
vertex 1547.6925642573767 1695.9699726448416 0.0
vertex 1547.556267562533 1694.9346964644315 0.0
endloop
endfacet
facet normal -0.0 -0.0 1.0
outer loop
vertex 1547.6925642573767 1695.9699726448416 0.0
vertex 1547.6925642573767 1693.8994202840213 0.0
vertex 1548.0921659473952 1692.9346964644312 0.0
endloop
endfacet
facet normal -0.0 -0.0 1.0
outer loop
vertex 1547.6925642573767 1695.9699726448416 0.0
vertex 1548.0921659473952 1692.9346964644312 0.0
vertex 1548.0921659473952 1696.9346964644315 0.0
endloop
endfacet
facet normal -0.0 -0.0 1.0
outer loop
vertex 1548.0921659473952 1696.9346964644315 0.0
vertex 1548.0921659473952 1692.9346964644312 0.0
vertex 1548.7278404377869 1692.106269339685 0.0
endloop
endfacet
facet normal -0.0 -0.0 1.0
outer loop
vertex 1548.0921659473952 1696.9346964644315 0.0
vertex 1548.7278404377869 1692.106269339685 0.0
vertex 1548.7278404377869 1697.763123589178 0.0
endloop
endfacet
facet normal -0.0 -0.0 1.0
outer loop
vertex 1548.7278404377869 1697.763123589178 0.0
vertex 1548.7278404377869 1692.106269339685 0.0
vertex 1549.556267562533 1691.4705948492935 0.0
endloop
endfacet
facet normal -0.0 -0.0 1.0
outer loop
vertex 1548.7278404377869 1697.763123589178 0.0
vertex 1549.556267562533 1691.4705948492935 0.0
vertex 1549.556267562533 1698.3987980795694 0.0
endloop
endfacet
facet normal -0.0 -0.0 1.0
outer loop
vertex 1549.556267562533 1698.3987980795694 0.0
vertex 1549.556267562533 1691.4705948492935 0.0
vertex 1550.5209913821232 1691.0709931592748 0.0
endloop
endfacet
facet normal -0.0 -0.0 1.0
outer loop
vertex 1549.556267562533 1698.3987980795694 0.0
vertex 1550.5209913821232 1691.0709931592748 0.0
vertex 1550.5209913821232 1698.798399769588 0.0
endloop
endfacet
facet normal -0.0 -0.0 1.0
outer loop
vertex 1550.5209913821232 1698.798399769588 0.0
vertex 1550.5209913821232 1691.0709931592748 0.0
vertex 1551.556267562533 1690.9346964644312 0.0
endloop
endfacet
facet normal -0.0 -0.0 1.0
outer loop
vertex 1550.5209913821232 1698.798399769588 0.0
vertex 1551.556267562533 1690.9346964644312 0.0
vertex 1551.556267562533 1698.9346964644317 0.0
endloop
endfacet
facet normal -0.0 -0.0 1.0
outer loop
vertex 1552.5915437429433 1691.0709931592748 0.0
vertex 1551.556267562533 1698.9346964644317 0.0
vertex 1551.556267562533 1690.9346964644312 0.0
endloop
endfacet
facet normal -0.0 -0.0 1.0
outer loop
vertex 1551.556267562533 1698.9346964644317 0.0
vertex 1552.5915437429433 1691.0709931592748 0.0
vertex 1552.5915437429433 1698.798399769588 0.0
endloop
endfacet
facet normal -0.0 -0.0 1.0
outer loop
vertex 1552.5915437429433 1698.798399769588 0.0
vertex 1552.5915437429433 1691.0709931592748 0.0
vertex 1553.5562675625333 1691.4705948492935 0.0
endloop
endfacet
facet normal -0.0 -0.0 1.0
outer loop
vertex 1552.5915437429433 1698.798399769588 0.0
vertex 1553.5562675625333 1691.4705948492935 0.0
vertex 1553.5562675625333 1698.3987980795694 0.0
endloop
endfacet
facet normal -0.0 -0.0 1.0
outer loop
vertex 1553.5562675625333 1698.3987980795694 0.0
vertex 1553.5562675625333 1691.4705948492935 0.0
vertex 1554.3846946872795 1692.106269339685 0.0
endloop
endfacet
facet normal -0.0 -0.0 1.0
outer loop
vertex 1553.5562675625333 1698.3987980795694 0.0
vertex 1554.3846946872795 1692.106269339685 0.0
vertex 1554.3846946872795 1697.763123589178 0.0
endloop
endfacet
facet normal -0.0 -0.0 1.0
outer loop
vertex 1554.3846946872795 1697.763123589178 0.0
vertex 1554.3846946872795 1692.106269339685 0.0
vertex 1555.0203691776712 1692.9346964644315 0.0
endloop
endfacet
facet normal -0.0 -0.0 1.0
outer loop
vertex 1554.3846946872795 1697.763123589178 0.0
vertex 1555.0203691776712 1692.9346964644315 0.0
vertex 1555.0203691776712 1696.9346964644317 0.0
endloop
endfacet
facet normal -0.0 -0.0 1.0
outer loop
vertex 1555.0203691776712 1696.9346964644317 0.0
vertex 1555.0203691776712 1692.9346964644315 0.0
vertex 1555.4199708676897 1693.8994202840213 0.0
endloop
endfacet
facet normal -0.0 -0.0 1.0
outer loop
vertex 1555.0203691776712 1696.9346964644317 0.0
vertex 1555.4199708676897 1693.8994202840213 0.0
vertex 1555.4199708676897 1695.9699726448416 0.0
endloop
endfacet
facet normal -0.0 -0.0 1.0
outer loop
vertex 1555.4199708676897 1695.9699726448416 0.0
vertex 1555.4199708676897 1693.8994202840213 0.0
vertex 1555.5562675625333 1694.9346964644315 0.0
endloop
endfacet
facet normal 0.0 0.9874406319167062 0.15799050110666832
outer loop
vertex 1551.556267562533 1698.1346964644317 4.999999999999999
vertex 1552.5915437429433 1698.798399769588 0.0
vertex 1551.556267562533 1698.9346964644317 0.0
endloop
endfacet
facet normal 0.25556844144817487 0.9537944082955249 0.15799050110668197
outer loop
vertex 1552.5915437429433 1698.798399769588 0.0
vertex 1551.556267562533 1698.1346964644317 4.999999999999999
vertex 1552.3844885068613 1698.0256591085565 4.999999999999999
endloop
endfacet
facet normal -0.4937203159583363 0.8551486719688336 0.1579905011066837
outer loop
vertex 1549.956267562533 1697.7059777565416 4.999999999999999
vertex 1550.5209913821232 1698.798399769588 0.0
vertex 1549.556267562533 1698.3987980795694 0.0
endloop
endfacet
facet normal -0.2555684414481596 0.9537944082955294 0.15799050110667825
outer loop
vertex 1550.5209913821232 1698.798399769588 0.0
vertex 1549.956267562533 1697.7059777565416 4.999999999999999
vertex 1550.728046618205 1698.0256591085565 4.999999999999999
endloop
endfacet
facet normal -0.255568441448162 0.9537944082955289 0.15799050110667825
outer loop
vertex 1550.728046618205 1698.0256591085565 4.999999999999999
vertex 1551.556267562533 1698.9346964644317 0.0
vertex 1550.5209913821232 1698.798399769588 0.0
endloop
endfacet
facet normal 0.0 0.9874406319167062 0.15799050110666832
outer loop
vertex 1551.556267562533 1698.9346964644317 0.0
vertex 1550.728046618205 1698.0256591085565 4.999999999999999
vertex 1551.556267562533 1698.1346964644317 4.999999999999999
endloop
endfacet
facet normal -0.8551486719688235 -0.49372031595835547 0.15799050110667703
outer loop
vertex 1548.7849862704227 1693.3346964644315 4.999999999999999
vertex 1547.6925642573767 1693.8994202840213 0.0
vertex 1548.0921659473952 1692.9346964644312 0.0
endloop
endfacet
facet normal -0.9537944082955527 -0.2555684414480777 0.1579905011066704
outer loop
vertex 1547.6925642573767 1693.8994202840213 0.0
vertex 1548.7849862704227 1693.3346964644315 4.999999999999999
vertex 1548.4653049184078 1694.1064755201035 4.999999999999999
endloop
endfacet
facet normal -0.69822596684741 -0.6982259668474519 0.15799050110668286
outer loop
vertex 1549.293525862736 1692.6719547646344 4.999999999999999
vertex 1548.0921659473952 1692.9346964644312 0.0
vertex 1548.7278404377869 1692.106269339685 0.0
endloop
endfacet
facet normal -0.8551486719688193 -0.4937203159583628 0.15799050110667703
outer loop
vertex 1548.0921659473952 1692.9346964644312 0.0
vertex 1549.293525862736 1692.6719547646344 4.999999999999999
vertex 1548.7849862704227 1693.3346964644315 4.999999999999999
endloop
endfacet
facet normal -0.4937203159583362 -0.8551486719688335 0.15799050110668367
outer loop
vertex 1549.956267562533 1692.1634151723213 4.999999999999999
vertex 1548.7278404377869 1692.106269339685 0.0
vertex 1549.556267562533 1691.4705948492935 0.0
endloop
endfacet
facet normal -0.6982259668474073 -0.6982259668474543 0.15799050110668283
outer loop
vertex 1548.7278404377869 1692.106269339685 0.0
vertex 1549.956267562533 1692.1634151723213 4.999999999999999
vertex 1549.293525862736 1692.6719547646344 4.999999999999999
endloop
endfacet
facet normal -0.25556844144807916 -0.953794408295548 0.15799050110669738
outer loop
vertex 1550.728046618205 1691.8437338203064 4.999999999999999
vertex 1549.556267562533 1691.4705948492935 0.0
vertex 1550.5209913821232 1691.0709931592748 0.0
endloop
endfacet
facet normal -0.4937203159583331 -0.8551486719688354 0.1579905011066837
outer loop
vertex 1549.556267562533 1691.4705948492935 0.0
vertex 1550.728046618205 1691.8437338203064 4.999999999999999
vertex 1549.956267562533 1692.1634151723213 4.999999999999999
endloop
endfacet
facet normal -1.7587519083960674e-17 -0.987440631916701 0.15799050110669968
outer loop
vertex 1551.556267562533 1691.7346964644314 4.999999999999999
vertex 1550.5209913821232 1691.0709931592748 0.0
vertex 1551.556267562533 1690.9346964644312 0.0
endloop
endfacet
facet normal -0.25556844144807955 -0.953794408295548 0.1579905011066974
outer loop
vertex 1550.5209913821232 1691.0709931592748 0.0
vertex 1551.556267562533 1691.7346964644314 4.999999999999999
vertex 1550.728046618205 1691.8437338203064 4.999999999999999
endloop
endfacet
facet normal 0.2555684414480949 -0.9537944082955431 0.15799050110670104
outer loop
vertex 1552.3844885068613 1691.8437338203064 4.999999999999999
vertex 1551.556267562533 1690.9346964644312 0.0
vertex 1552.5915437429433 1691.0709931592748 0.0
endloop
endfacet
facet normal -1.8055484598485654e-17 -0.9874406319167011 0.1579905011066997
outer loop
vertex 1551.556267562533 1690.9346964644312 0.0
vertex 1552.3844885068613 1691.8437338203064 4.999999999999999
vertex 1551.556267562533 1691.7346964644314 4.999999999999999
endloop
endfacet
facet normal 0.49372031595834714 -0.8551486719688246 0.15799050110669738
outer loop
vertex 1553.1562675625332 1692.1634151723213 4.999999999999999
vertex 1552.5915437429433 1691.0709931592748 0.0
vertex 1553.5562675625333 1691.4705948492935 0.0
endloop
endfacet
facet normal 0.25556844144809465 -0.9537944082955431 0.15799050110670104
outer loop
vertex 1552.5915437429433 1691.0709931592748 0.0
vertex 1553.1562675625332 1692.1634151723213 4.999999999999999
vertex 1552.3844885068613 1691.8437338203064 4.999999999999999
endloop
endfacet
facet normal 0.6982259668474513 -0.6982259668474067 0.15799050110669802
outer loop
vertex 1553.8190092623302 1692.6719547646344 4.999999999999999
vertex 1553.5562675625333 1691.4705948492935 0.0
vertex 1554.3846946872795 1692.106269339685 0.0
endloop
endfacet
facet normal 0.4937203159583479 -0.8551486719688244 0.15799050110669738
outer loop
vertex 1553.5562675625333 1691.4705948492935 0.0
vertex 1553.8190092623302 1692.6719547646344 4.999999999999999
vertex 1553.1562675625332 1692.1634151723213 4.999999999999999
endloop
endfacet
facet normal 0.8551486719688327 -0.49372031595833654 0.15799050110668766
outer loop
vertex 1555.0203691776712 1692.9346964644315 0.0
vertex 1553.8190092623302 1692.6719547646344 4.999999999999999
vertex 1554.3846946872795 1692.106269339685 0.0
endloop
endfacet
facet normal 0.6982259668474513 -0.6982259668474067 0.15799050110669802
outer loop
vertex 1553.8190092623302 1692.6719547646344 4.999999999999999
vertex 1555.0203691776712 1692.9346964644315 0.0
vertex 1554.3275488546435 1693.3346964644315 4.999999999999999
endloop
endfacet
facet normal 0.9537944082955293 -0.2555684414481537 0.15799050110668858
outer loop
vertex 1555.4199708676897 1693.8994202840213 0.0
vertex 1554.3275488546435 1693.3346964644315 4.999999999999999
vertex 1555.0203691776712 1692.9346964644315 0.0
endloop
endfacet
facet normal 0.8551486719688307 -0.49372031595833993 0.15799050110668766
outer loop
vertex 1554.3275488546435 1693.3346964644315 4.999999999999999
vertex 1555.4199708676897 1693.8994202840213 0.0
vertex 1554.6472302066584 1694.1064755201035 4.999999999999999
endloop
endfacet
facet normal 0.9874406319167036 0.0 0.15799050110668406
outer loop
vertex 1555.5562675625333 1694.9346964644315 0.0
vertex 1554.6472302066584 1694.1064755201035 4.999999999999999
vertex 1555.4199708676897 1693.8994202840213 0.0
endloop
endfacet
facet normal 0.9537944082955289 -0.2555684414481556 0.15799050110668858
outer loop
vertex 1554.6472302066584 1694.1064755201035 4.999999999999999
vertex 1555.5562675625333 1694.9346964644315 0.0
vertex 1554.7562675625334 1694.9346964644315 4.999999999999999
endloop
endfacet
facet normal 0.9537944082955478 0.2555684414480853 0.1579905011066871
outer loop
vertex 1555.4199708676897 1695.9699726448416 0.0
vertex 1554.7562675625334 1694.9346964644315 4.999999999999999
vertex 1555.5562675625333 1694.9346964644315 0.0
endloop
endfacet
facet normal 0.9874406319167035 0.0 0.15799050110668403
outer loop
vertex 1554.7562675625334 1694.9346964644315 4.999999999999999
vertex 1555.4199708676897 1695.9699726448416 0.0
vertex 1554.6472302066584 1695.7629174087597 4.999999999999999
endloop
endfacet
facet normal 0.9537944082955478 0.2555684414480853 0.1579905011066871
outer loop
vertex 1555.4199708676897 1695.9699726448416 0.0
vertex 1554.3275488546435 1696.5346964644318 4.999999999999999
vertex 1554.6472302066584 1695.7629174087597 4.999999999999999
endloop
endfacet
facet normal 0.8551486719688087 0.49372031595837673 0.15799050110669147
outer loop
vertex 1554.3275488546435 1696.5346964644318 4.999999999999999
vertex 1555.4199708676897 1695.9699726448416 0.0
vertex 1555.0203691776712 1696.9346964644317 0.0
endloop
endfacet
facet normal 0.8551486719688112 0.49372031595837235 0.15799050110669144
outer loop
vertex 1555.0203691776712 1696.9346964644317 0.0
vertex 1553.8190092623302 1697.1974381642285 4.999999999999999
vertex 1554.3275488546435 1696.5346964644318 4.999999999999999
endloop
endfacet
facet normal 0.69822596684737 0.6982259668474888 0.15799050110669574
outer loop
vertex 1553.8190092623302 1697.1974381642285 4.999999999999999
vertex 1555.0203691776712 1696.9346964644317 0.0
vertex 1554.3846946872795 1697.763123589178 0.0
endloop
endfacet
facet normal -0.698225966847456 0.6982259668474079 0.15799050110667348
outer loop
vertex 1549.293525862736 1697.1974381642285 4.999999999999999
vertex 1549.556267562533 1698.3987980795694 0.0
vertex 1548.7278404377869 1697.763123589178 0.0
endloop
endfacet
facet normal -0.4937203159583331 0.8551486719688353 0.1579905011066837
outer loop
vertex 1549.556267562533 1698.3987980795694 0.0
vertex 1549.293525862736 1697.1974381642285 4.999999999999999
vertex 1549.956267562533 1697.7059777565416 4.999999999999999
endloop
endfacet
facet normal 0.4937203159583471 0.8551486719688248 0.1579905011066974
outer loop
vertex 1553.1562675625332 1697.7059777565416 4.999999999999999
vertex 1554.3846946872795 1697.763123589178 0.0
vertex 1553.5562675625333 1698.3987980795694 0.0
endloop
endfacet
facet normal 0.6982259668473718 0.6982259668474872 0.15799050110669574
outer loop
vertex 1554.3846946872795 1697.763123589178 0.0
vertex 1553.1562675625332 1697.7059777565416 4.999999999999999
vertex 1553.8190092623302 1697.1974381642285 4.999999999999999
endloop
endfacet
facet normal 0.2555684414481777 0.953794408295524 0.15799050110668197
outer loop
vertex 1552.3844885068613 1698.0256591085565 4.999999999999999
vertex 1553.5562675625333 1698.3987980795694 0.0
vertex 1552.5915437429433 1698.798399769588 0.0
endloop
endfacet
facet normal 0.49372031595834787 0.8551486719688244 0.15799050110669738
outer loop
vertex 1553.5562675625333 1698.3987980795694 0.0
vertex 1552.3844885068613 1698.0256591085565 4.999999999999999
vertex 1553.1562675625332 1697.7059777565416 4.999999999999999
endloop
endfacet
facet normal -0.8551486719688357 0.493720315958341 0.15799050110665755
outer loop
vertex 1548.7849862704227 1696.5346964644314 4.999999999999999
vertex 1547.6925642573767 1695.9699726448416 0.0
vertex 1548.4653049184078 1695.7629174087597 4.999999999999999
endloop
endfacet
facet normal -0.9537944082955436 0.2555684414481158 0.15799050110666457
outer loop
vertex 1547.6925642573767 1695.9699726448416 0.0
vertex 1548.7849862704227 1696.5346964644314 4.999999999999999
vertex 1548.0921659473952 1696.9346964644315 0.0
endloop
endfacet
facet normal -0.698225966847456 0.6982259668474079 0.15799050110667348
outer loop
vertex 1549.293525862736 1697.1974381642285 4.999999999999999
vertex 1548.0921659473952 1696.9346964644315 0.0
vertex 1548.7849862704227 1696.5346964644314 4.999999999999999
endloop
endfacet
facet normal -0.8551486719688361 0.49372031595834004 0.15799050110665752
outer loop
vertex 1548.0921659473952 1696.9346964644315 0.0
vertex 1549.293525862736 1697.1974381642285 4.999999999999999
vertex 1548.7278404377869 1697.763123589178 0.0
endloop
endfacet
facet normal -0.9537944082955532 -0.25556844144807606 0.1579905011066704
outer loop
vertex 1548.4653049184078 1694.1064755201035 4.999999999999999
vertex 1547.556267562533 1694.9346964644315 0.0
vertex 1547.6925642573767 1693.8994202840213 0.0
endloop
endfacet
facet normal -0.9874406319167066 0.0 0.15799050110666493
outer loop
vertex 1547.556267562533 1694.9346964644315 0.0
vertex 1548.4653049184078 1694.1064755201035 4.999999999999999
vertex 1548.356267562533 1694.9346964644315 4.999999999999999
endloop
endfacet
facet normal -0.9537944082955437 0.25556844144811486 0.15799050110666452
outer loop
vertex 1548.4653049184078 1695.7629174087597 4.999999999999999
vertex 1547.556267562533 1694.9346964644315 0.0
vertex 1548.356267562533 1694.9346964644315 4.999999999999999
endloop
endfacet
facet normal -0.9874406319167066 0.0 0.15799050110666493
outer loop
vertex 1547.556267562533 1694.9346964644315 0.0
vertex 1548.4653049184078 1695.7629174087597 4.999999999999999
vertex 1547.6925642573767 1695.9699726448416 0.0
endloop
endfacet
facet normal -0.0 -0.0 1.0
outer loop
vertex 1549.3249789038057 1694.3368244702447 0.9999999999999999
vertex 1549.3249789038057 1695.5325684586182 0.9999999999999999
vertex 1549.2462675625331 1694.9346964644315 0.9999999999999999
endloop
endfacet
facet normal -0.0 -0.0 1.0
outer loop
vertex 1549.3249789038057 1695.5325684586182 0.9999999999999999
vertex 1549.3249789038057 1694.3368244702447 0.9999999999999999
vertex 1549.5557488797913 1693.7796964644313 0.9999999999999999
endloop
endfacet
facet normal -0.0 -0.0 1.0
outer loop
vertex 1549.3249789038057 1695.5325684586182 0.9999999999999999
vertex 1549.5557488797913 1693.7796964644313 0.9999999999999999
vertex 1549.5557488797913 1696.0896964644314 0.9999999999999999
endloop
endfacet
facet normal -0.0 -0.0 1.0
outer loop
vertex 1549.5557488797913 1696.0896964644314 0.9999999999999999
vertex 1549.5557488797913 1693.7796964644313 0.9999999999999999
vertex 1549.9228508979925 1693.3012797998906 0.9999999999999999
endloop
endfacet
facet normal -0.0 -0.0 1.0
outer loop
vertex 1549.5557488797913 1696.0896964644314 0.9999999999999999
vertex 1549.9228508979925 1693.3012797998906 0.9999999999999999
vertex 1549.9228508979925 1696.5681131289723 0.9999999999999999
endloop
endfacet
facet normal -0.0 -0.0 1.0
outer loop
vertex 1549.9228508979925 1696.5681131289723 0.9999999999999999
vertex 1549.9228508979925 1693.3012797998906 0.9999999999999999
vertex 1550.4012675625336 1692.9341777816894 0.9999999999999999
endloop
endfacet
facet normal -0.0 -0.0 1.0
outer loop
vertex 1549.9228508979925 1696.5681131289723 0.9999999999999999
vertex 1550.4012675625336 1692.9341777816894 0.9999999999999999
vertex 1550.4012675625336 1696.9352151471735 0.9999999999999999
endloop
endfacet
facet normal -0.0 -0.0 1.0
outer loop
vertex 1550.4012675625336 1696.9352151471735 0.9999999999999999
vertex 1550.4012675625336 1692.9341777816894 0.9999999999999999
vertex 1550.9583955683468 1692.7034078057038 0.9999999999999999
endloop
endfacet
facet normal -0.0 -0.0 1.0
outer loop
vertex 1550.4012675625336 1696.9352151471735 0.9999999999999999
vertex 1550.9583955683468 1692.7034078057038 0.9999999999999999
vertex 1550.9583955683468 1697.165985123159 0.9999999999999999
endloop
endfacet
facet normal -0.0 -0.0 1.0
outer loop
vertex 1550.9583955683468 1697.165985123159 0.9999999999999999
vertex 1550.9583955683468 1692.7034078057038 0.9999999999999999
vertex 1551.5562675625333 1692.6246964644317 0.9999999999999999
endloop
endfacet
facet normal -0.0 -0.0 1.0
outer loop
vertex 1550.9583955683468 1697.165985123159 0.9999999999999999
vertex 1551.5562675625333 1692.6246964644317 0.9999999999999999
vertex 1551.5562675625333 1697.2446964644312 0.9999999999999999
endloop
endfacet
facet normal -0.0 -0.0 1.0
outer loop
vertex 1551.5562675625333 1697.2446964644312 0.9999999999999999
vertex 1551.5562675625333 1692.6246964644317 0.9999999999999999
vertex 1552.15413955672 1692.7034078057038 0.9999999999999999
endloop
endfacet
facet normal -0.0 -0.0 1.0
outer loop
vertex 1551.5562675625333 1697.2446964644312 0.9999999999999999
vertex 1552.15413955672 1692.7034078057038 0.9999999999999999
vertex 1552.15413955672 1697.165985123159 0.9999999999999999
endloop
endfacet
facet normal -0.0 -0.0 1.0
outer loop
vertex 1552.15413955672 1697.165985123159 0.9999999999999999
vertex 1552.15413955672 1692.7034078057038 0.9999999999999999
vertex 1552.7112675625333 1692.9341777816894 0.9999999999999999
endloop
endfacet
facet normal -0.0 -0.0 1.0
outer loop
vertex 1552.15413955672 1697.165985123159 0.9999999999999999
vertex 1552.7112675625333 1692.9341777816894 0.9999999999999999
vertex 1552.7112675625333 1696.9352151471735 0.9999999999999999
endloop
endfacet
facet normal -0.0 -0.0 1.0
outer loop
vertex 1552.7112675625333 1696.9352151471735 0.9999999999999999
vertex 1552.7112675625333 1692.9341777816894 0.9999999999999999
vertex 1553.1896842270742 1693.3012797998906 0.9999999999999999
endloop
endfacet
facet normal -0.0 -0.0 1.0
outer loop
vertex 1552.7112675625333 1696.9352151471735 0.9999999999999999
vertex 1553.1896842270742 1693.3012797998906 0.9999999999999999
vertex 1553.1896842270742 1696.5681131289723 0.9999999999999999
endloop
endfacet
facet normal -0.0 -0.0 1.0
outer loop
vertex 1553.1896842270742 1696.5681131289723 0.9999999999999999
vertex 1553.1896842270742 1693.3012797998906 0.9999999999999999
vertex 1553.5567862452751 1693.7796964644315 0.9999999999999999
endloop
endfacet
facet normal -0.0 -0.0 1.0
outer loop
vertex 1553.1896842270742 1696.5681131289723 0.9999999999999999
vertex 1553.5567862452751 1693.7796964644315 0.9999999999999999
vertex 1553.5567862452751 1696.0896964644317 0.9999999999999999
endloop
endfacet
facet normal -0.0 -0.0 1.0
outer loop
vertex 1553.5567862452751 1696.0896964644317 0.9999999999999999
vertex 1553.5567862452751 1693.7796964644315 0.9999999999999999
vertex 1553.787556221261 1694.3368244702447 0.9999999999999999
endloop
endfacet
facet normal -0.0 -0.0 1.0
outer loop
vertex 1553.5567862452751 1696.0896964644317 0.9999999999999999
vertex 1553.787556221261 1694.3368244702447 0.9999999999999999
vertex 1553.787556221261 1695.5325684586182 0.9999999999999999
endloop
endfacet
facet normal -0.0 -0.0 1.0
outer loop
vertex 1553.787556221261 1695.5325684586182 0.9999999999999999
vertex 1553.787556221261 1694.3368244702447 0.9999999999999999
vertex 1553.866267562533 1694.9346964644315 0.9999999999999999
endloop
endfacet
facet normal -0.0 -0.0 1.0
outer loop
vertex 1548.4653049184078 1694.1064755201035 4.999999999999999
vertex 1548.4653049184078 1695.7629174087597 4.999999999999999
vertex 1548.356267562533 1694.9346964644315 4.999999999999999
endloop
endfacet
facet normal -0.0 -0.0 1.0
outer loop
vertex 1548.4653049184078 1695.7629174087597 4.999999999999999
vertex 1548.4653049184078 1694.1064755201035 4.999999999999999
vertex 1548.7849862704227 1693.3346964644315 4.999999999999999
endloop
endfacet
facet normal -0.0 -0.0 1.0
outer loop
vertex 1548.4653049184078 1695.7629174087597 4.999999999999999
vertex 1548.7849862704227 1693.3346964644315 4.999999999999999
vertex 1548.7849862704227 1696.5346964644314 4.999999999999999
endloop
endfacet
facet normal -0.0 -0.0 1.0
outer loop
vertex 1548.7849862704227 1696.5346964644314 4.999999999999999
vertex 1548.7849862704227 1693.3346964644315 4.999999999999999
vertex 1549.293525862736 1692.6719547646344 4.999999999999999
endloop
endfacet
facet normal -0.0 -0.0 1.0
outer loop
vertex 1548.7849862704227 1696.5346964644314 4.999999999999999
vertex 1549.293525862736 1692.6719547646344 4.999999999999999
vertex 1549.2462675625331 1694.9346964644315 4.999999999999999
endloop
endfacet
facet normal -0.0 -0.0 1.0
outer loop
vertex 1549.2462675625331 1694.9346964644315 4.999999999999999
vertex 1549.293525862736 1692.6719547646344 4.999999999999999
vertex 1549.3249789038057 1694.3368244702447 4.999999999999999
endloop
endfacet
facet normal -0.0 -0.0 1.0
outer loop
vertex 1549.3249789038057 1694.3368244702447 4.999999999999999
vertex 1549.293525862736 1692.6719547646344 4.999999999999999
vertex 1549.956267562533 1692.1634151723213 4.999999999999999
endloop
endfacet
facet normal -0.0 -0.0 1.0
outer loop
vertex 1549.3249789038057 1694.3368244702447 4.999999999999999
vertex 1549.956267562533 1692.1634151723213 4.999999999999999
vertex 1549.5557488797913 1693.7796964644313 4.999999999999999
endloop
endfacet
facet normal -0.0 -0.0 1.0
outer loop
vertex 1549.5557488797913 1693.7796964644313 4.999999999999999
vertex 1549.956267562533 1692.1634151723213 4.999999999999999
vertex 1549.9228508979925 1693.3012797998906 4.999999999999999
endloop
endfacet
facet normal -0.0 -0.0 1.0
outer loop
vertex 1549.9228508979925 1693.3012797998906 4.999999999999999
vertex 1549.956267562533 1692.1634151723213 4.999999999999999
vertex 1550.4012675625336 1692.9341777816894 4.999999999999999
endloop
endfacet
facet normal -0.0 -0.0 1.0
outer loop
vertex 1550.4012675625336 1692.9341777816894 4.999999999999999
vertex 1549.956267562533 1692.1634151723213 4.999999999999999
vertex 1550.728046618205 1691.8437338203064 4.999999999999999
endloop
endfacet
facet normal -0.0 -0.0 1.0
outer loop
vertex 1550.4012675625336 1692.9341777816894 4.999999999999999
vertex 1550.728046618205 1691.8437338203064 4.999999999999999
vertex 1550.9583955683468 1692.7034078057038 4.999999999999999
endloop
endfacet
facet normal -0.0 -0.0 1.0
outer loop
vertex 1550.9583955683468 1692.7034078057038 4.999999999999999
vertex 1550.728046618205 1691.8437338203064 4.999999999999999
vertex 1551.556267562533 1691.7346964644314 4.999999999999999
endloop
endfacet
facet normal -0.0 -0.0 1.0
outer loop
vertex 1550.9583955683468 1692.7034078057038 4.999999999999999
vertex 1551.556267562533 1691.7346964644314 4.999999999999999
vertex 1551.5562675625333 1692.6246964644317 4.999999999999999
endloop
endfacet
facet normal -0.0 -0.0 1.0
outer loop
vertex 1551.5562675625333 1692.6246964644317 4.999999999999999
vertex 1551.556267562533 1691.7346964644314 4.999999999999999
vertex 1552.3844885068613 1691.8437338203064 4.999999999999999
endloop
endfacet
facet normal -0.0 -0.0 1.0
outer loop
vertex 1551.5562675625333 1692.6246964644317 4.999999999999999
vertex 1552.3844885068613 1691.8437338203064 4.999999999999999
vertex 1552.15413955672 1692.7034078057038 4.999999999999999
endloop
endfacet
facet normal -0.0 -0.0 1.0
outer loop
vertex 1552.15413955672 1692.7034078057038 4.999999999999999
vertex 1552.3844885068613 1691.8437338203064 4.999999999999999
vertex 1552.7112675625333 1692.9341777816894 4.999999999999999
endloop
endfacet
facet normal -0.0 -0.0 1.0
outer loop
vertex 1552.7112675625333 1692.9341777816894 4.999999999999999
vertex 1552.3844885068613 1691.8437338203064 4.999999999999999
vertex 1553.1562675625332 1692.1634151723213 4.999999999999999
endloop
endfacet
facet normal -0.0 -0.0 1.0
outer loop
vertex 1552.7112675625333 1692.9341777816894 4.999999999999999
vertex 1553.1562675625332 1692.1634151723213 4.999999999999999
vertex 1553.1896842270742 1693.3012797998906 4.999999999999999
endloop
endfacet
facet normal -0.0 -0.0 1.0
outer loop
vertex 1553.1896842270742 1693.3012797998906 4.999999999999999
vertex 1553.1562675625332 1692.1634151723213 4.999999999999999
vertex 1553.8190092623302 1692.6719547646344 4.999999999999999
endloop
endfacet
facet normal -0.0 -0.0 1.0
outer loop
vertex 1553.1896842270742 1693.3012797998906 4.999999999999999
vertex 1553.8190092623302 1692.6719547646344 4.999999999999999
vertex 1553.5567862452751 1693.7796964644315 4.999999999999999
endloop
endfacet
facet normal -0.0 -0.0 1.0
outer loop
vertex 1553.5567862452751 1693.7796964644315 4.999999999999999
vertex 1553.8190092623302 1692.6719547646344 4.999999999999999
vertex 1553.787556221261 1694.3368244702447 4.999999999999999
endloop
endfacet
facet normal -0.0 -0.0 1.0
outer loop
vertex 1553.787556221261 1694.3368244702447 4.999999999999999
vertex 1553.8190092623302 1692.6719547646344 4.999999999999999
vertex 1553.866267562533 1694.9346964644315 4.999999999999999
endloop
endfacet
facet normal -0.0 -0.0 1.0
outer loop
vertex 1553.866267562533 1694.9346964644315 4.999999999999999
vertex 1553.8190092623302 1692.6719547646344 4.999999999999999
vertex 1554.3275488546435 1693.3346964644315 4.999999999999999
endloop
endfacet
facet normal -0.0 -0.0 1.0
outer loop
vertex 1549.2462675625331 1694.9346964644315 4.999999999999999
vertex 1549.293525862736 1697.1974381642285 4.999999999999999
vertex 1548.7849862704227 1696.5346964644314 4.999999999999999
endloop
endfacet
facet normal -0.0 -0.0 1.0
outer loop
vertex 1549.293525862736 1697.1974381642285 4.999999999999999
vertex 1549.2462675625331 1694.9346964644315 4.999999999999999
vertex 1549.3249789038057 1695.5325684586182 4.999999999999999
endloop
endfacet
facet normal -0.0 -0.0 1.0
outer loop
vertex 1549.293525862736 1697.1974381642285 4.999999999999999
vertex 1549.3249789038057 1695.5325684586182 4.999999999999999
vertex 1549.956267562533 1697.7059777565416 4.999999999999999
endloop
endfacet
facet normal -0.0 -0.0 1.0
outer loop
vertex 1549.956267562533 1697.7059777565416 4.999999999999999
vertex 1549.3249789038057 1695.5325684586182 4.999999999999999
vertex 1549.5557488797913 1696.0896964644314 4.999999999999999
endloop
endfacet
facet normal -0.0 -0.0 1.0
outer loop
vertex 1549.956267562533 1697.7059777565416 4.999999999999999
vertex 1549.5557488797913 1696.0896964644314 4.999999999999999
vertex 1549.9228508979925 1696.5681131289723 4.999999999999999
endloop
endfacet
facet normal -0.0 -0.0 1.0
outer loop
vertex 1549.956267562533 1697.7059777565416 4.999999999999999
vertex 1549.9228508979925 1696.5681131289723 4.999999999999999
vertex 1550.4012675625336 1696.9352151471735 4.999999999999999
endloop
endfacet
facet normal -0.0 -0.0 1.0
outer loop
vertex 1549.956267562533 1697.7059777565416 4.999999999999999
vertex 1550.4012675625336 1696.9352151471735 4.999999999999999
vertex 1550.728046618205 1698.0256591085565 4.999999999999999
endloop
endfacet
facet normal -0.0 -0.0 1.0
outer loop
vertex 1550.728046618205 1698.0256591085565 4.999999999999999
vertex 1550.4012675625336 1696.9352151471735 4.999999999999999
vertex 1550.9583955683468 1697.165985123159 4.999999999999999
endloop
endfacet
facet normal -0.0 -0.0 1.0
outer loop
vertex 1550.728046618205 1698.0256591085565 4.999999999999999
vertex 1550.9583955683468 1697.165985123159 4.999999999999999
vertex 1551.556267562533 1698.1346964644317 4.999999999999999
endloop
endfacet
facet normal -0.0 -0.0 1.0
outer loop
vertex 1551.556267562533 1698.1346964644317 4.999999999999999
vertex 1550.9583955683468 1697.165985123159 4.999999999999999
vertex 1551.5562675625333 1697.2446964644312 4.999999999999999
endloop
endfacet
facet normal -0.0 -0.0 1.0
outer loop
vertex 1551.556267562533 1698.1346964644317 4.999999999999999
vertex 1551.5562675625333 1697.2446964644312 4.999999999999999
vertex 1552.3844885068613 1698.0256591085565 4.999999999999999
endloop
endfacet
facet normal -0.0 -0.0 1.0
outer loop
vertex 1552.3844885068613 1698.0256591085565 4.999999999999999
vertex 1551.5562675625333 1697.2446964644312 4.999999999999999
vertex 1552.15413955672 1697.165985123159 4.999999999999999
endloop
endfacet
facet normal -0.0 -0.0 1.0
outer loop
vertex 1552.3844885068613 1698.0256591085565 4.999999999999999
vertex 1552.15413955672 1697.165985123159 4.999999999999999
vertex 1552.7112675625333 1696.9352151471735 4.999999999999999
endloop
endfacet
facet normal -0.0 -0.0 1.0
outer loop
vertex 1552.3844885068613 1698.0256591085565 4.999999999999999
vertex 1552.7112675625333 1696.9352151471735 4.999999999999999
vertex 1553.1562675625332 1697.7059777565416 4.999999999999999
endloop
endfacet
facet normal -0.0 -0.0 1.0
outer loop
vertex 1553.1562675625332 1697.7059777565416 4.999999999999999
vertex 1552.7112675625333 1696.9352151471735 4.999999999999999
vertex 1553.1896842270742 1696.5681131289723 4.999999999999999
endloop
endfacet
facet normal -0.0 -0.0 1.0
outer loop
vertex 1553.1562675625332 1697.7059777565416 4.999999999999999
vertex 1553.1896842270742 1696.5681131289723 4.999999999999999
vertex 1553.8190092623302 1697.1974381642285 4.999999999999999
endloop
endfacet
facet normal -0.0 -0.0 1.0
outer loop
vertex 1553.8190092623302 1697.1974381642285 4.999999999999999
vertex 1553.1896842270742 1696.5681131289723 4.999999999999999
vertex 1553.5567862452751 1696.0896964644317 4.999999999999999
endloop
endfacet
facet normal -0.0 -0.0 1.0
outer loop
vertex 1553.8190092623302 1697.1974381642285 4.999999999999999
vertex 1553.5567862452751 1696.0896964644317 4.999999999999999
vertex 1553.787556221261 1695.5325684586182 4.999999999999999
endloop
endfacet
facet normal -0.0 -0.0 1.0
outer loop
vertex 1553.8190092623302 1697.1974381642285 4.999999999999999
vertex 1553.787556221261 1695.5325684586182 4.999999999999999
vertex 1553.866267562533 1694.9346964644315 4.999999999999999
endloop
endfacet
facet normal -0.0 -0.0 1.0
outer loop
vertex 1553.8190092623302 1697.1974381642285 4.999999999999999
vertex 1553.866267562533 1694.9346964644315 4.999999999999999
vertex 1554.3275488546435 1696.5346964644318 4.999999999999999
endloop
endfacet
facet normal -0.0 -0.0 1.0
outer loop
vertex 1554.3275488546435 1696.5346964644318 4.999999999999999
vertex 1553.866267562533 1694.9346964644315 4.999999999999999
vertex 1554.3275488546435 1693.3346964644315 4.999999999999999
endloop
endfacet
facet normal -0.0 -0.0 1.0
outer loop
vertex 1554.3275488546435 1696.5346964644318 4.999999999999999
vertex 1554.3275488546435 1693.3346964644315 4.999999999999999
vertex 1554.6472302066584 1694.1064755201035 4.999999999999999
endloop
endfacet
facet normal -0.0 -0.0 1.0
outer loop
vertex 1554.3275488546435 1696.5346964644318 4.999999999999999
vertex 1554.6472302066584 1694.1064755201035 4.999999999999999
vertex 1554.6472302066584 1695.7629174087597 4.999999999999999
endloop
endfacet
facet normal -0.0 -0.0 1.0
outer loop
vertex 1554.6472302066584 1695.7629174087597 4.999999999999999
vertex 1554.6472302066584 1694.1064755201035 4.999999999999999
vertex 1554.7562675625334 1694.9346964644315 4.999999999999999
endloop
endfacet
endsolid Endcap
