solid Spool
facet normal -1.0 0.0 0.0
  outer loop
    vertex 0.0 4.988000392913818 0.0
    vertex 0.0 -49.000003814697266 0.0
    vertex 0.0 4.988000392913818 9.998000144958496
  endloop
endfacet
facet normal -1.0 0.0 0.0
  outer loop
    vertex 0.0 4.988000392913818 9.998000144958496
    vertex 0.0 -49.000003814697266 0.0
    vertex 0.0 -49.000003814697266 9.998000144958496
  endloop
endfacet
facet normal 0.0 0.0 -1.0
  outer loop
    vertex 9.998000144958496 -49.000003814697266 0.0
    vertex 0.0 -49.000003814697266 0.0
    vertex 9.998000144958496 -9.100000381469725 0.0
  endloop
endfacet
facet normal 0.0 0.0 -1.0
  outer loop
    vertex 33.39800262451172 -49.000003814697266 0.0
    vertex 18.398000717163082 -49.000003814697266 0.0
    vertex 18.398000717163082 -9.100000381469725 0.0
  endloop
endfacet
facet normal 0.0 0.0 -1.0
  outer loop
    vertex 33.39800262451172 3.000000238418579 0.0
    vertex 18.398000717163082 -9.100000381469725 0.0
    vertex 33.20000076293945 3.000000238418579 0.0
  endloop
endfacet
facet normal 0.0 0.0 -1.0
  outer loop
    vertex 33.39800262451172 -49.000003814697266 0.0
    vertex 18.398000717163082 -9.100000381469725 0.0
    vertex 33.39800262451172 3.000000238418579 0.0
  endloop
endfacet
facet normal 0.0 0.0 -1.0
  outer loop
    vertex 9.998000144958496 -9.100000381469725 0.0
    vertex 0.0 -49.000003814697266 0.0
    vertex 0.0 4.988000392913818 0.0
  endloop
endfacet
facet normal -0.0 -0.0 1.0
  outer loop
    vertex 33.39800262451172 -49.000003814697266 9.998000144958496
    vertex 18.398000717163082 -9.100000381469725 9.998000144958496
    vertex 18.398000717163082 -49.000003814697266 9.998000144958496
  endloop
endfacet
facet normal -0.0 -0.0 1.0
  outer loop
    vertex 33.39800262451172 3.000000238418579 9.998000144958496
    vertex 18.398000717163082 -9.100000381469725 9.998000144958496
    vertex 33.39800262451172 -49.000003814697266 9.998000144958496
  endloop
endfacet
facet normal -0.0 -0.0 1.0
  outer loop
    vertex 9.998000144958496 -9.100000381469725 9.998000144958496
    vertex 0.0 4.988000392913818 9.998000144958496
    vertex 0.0 -49.000003814697266 9.998000144958496
  endloop
endfacet
facet normal -0.0 -0.0 1.0
  outer loop
    vertex 9.998000144958496 -9.100000381469725 9.998000144958496
    vertex 0.0 -49.000003814697266 9.998000144958496
    vertex 9.998000144958496 -49.000003814697266 9.998000144958496
  endloop
endfacet
facet normal 1.0 -0.0 -0.0
  outer loop
    vertex 33.39800262451172 -36.522003173828125 4.696000099182129
    vertex 33.39800262451172 -36.552001953125 4.999999999999999
    vertex 33.39800262451172 -49.000003814697266 0.0
  endloop
endfacet
facet normal 1.0 -0.0 -0.0
  outer loop
    vertex 33.39800262451172 -35.59400177001953 6.432000160217284
    vertex 33.39800262451172 -49.000003814697266 9.998000144958496
    vertex 33.39800262451172 -35.862003326416016 6.2880001068115225
  endloop
endfacet
facet normal 1.0 -0.0 -0.0
  outer loop
    vertex 33.39800262451172 -36.552001953125 4.999999999999999
    vertex 33.39800262451172 -49.000003814697266 9.998000144958496
    vertex 33.39800262451172 -49.000003814697266 0.0
  endloop
endfacet
facet normal 1.0 -0.0 -0.0
  outer loop
    vertex 33.39800262451172 -36.098003387451165 3.902000188827514
    vertex 33.39800262451172 -36.290000915527344 4.138000011444091
    vertex 33.39800262451172 -49.000003814697266 0.0
  endloop
endfacet
facet normal 1.0 -0.0 -0.0
  outer loop
    vertex 33.39800262451172 -36.098003387451165 6.094000339508056
    vertex 33.39800262451172 -49.000003814697266 9.998000144958496
    vertex 33.39800262451172 -36.290000915527344 5.860000133514404
  endloop
endfacet
facet normal 1.0 -0.0 -0.0
  outer loop
    vertex 33.39800262451172 -34.698001861572266 3.478000164031982
    vertex 33.39800262451172 -35.0 3.450000047683716
    vertex 33.39800262451172 -49.000003814697266 0.0
  endloop
endfacet
facet normal 1.0 -0.0 -0.0
  outer loop
    vertex 33.39800262451172 -36.432003021240234 4.406000137329102
    vertex 33.39800262451172 -36.522003173828125 4.696000099182129
    vertex 33.39800262451172 -49.000003814697266 0.0
  endloop
endfacet
facet normal 1.0 -0.0 -0.0
  outer loop
    vertex 33.39800262451172 -36.290000915527344 4.138000011444091
    vertex 33.39800262451172 -36.432003021240234 4.406000137329102
    vertex 33.39800262451172 -49.000003814697266 0.0
  endloop
endfacet
facet normal 1.0 -0.0 -0.0
  outer loop
    vertex 33.39800262451172 3.000000238418579 9.998000144958496
    vertex 33.39800262451172 -33.71200180053711 5.860000133514404
    vertex 33.39800262451172 -33.56999969482422 5.592000484466552
  endloop
endfacet
facet normal 1.0 -0.0 -0.0
  outer loop
    vertex 33.39800262451172 3.000000238418579 0.0
    vertex 33.39800262451172 -34.40800094604492 3.5680000782012935
    vertex 33.39800262451172 -34.698001861572266 3.478000164031982
  endloop
endfacet
facet normal 1.0 -0.0 -0.0
  outer loop
    vertex 33.39800262451172 3.000000238418579 0.0
    vertex 33.39800262451172 -34.1400032043457 3.7120001316070557
    vertex 33.39800262451172 -34.40800094604492 3.5680000782012935
  endloop
endfacet
facet normal 1.0 -0.0 -0.0
  outer loop
    vertex 33.39800262451172 3.000000238418579 0.0
    vertex 33.39800262451172 -33.56999969482422 4.406000137329102
    vertex 33.39800262451172 -33.71200180053711 4.138000011444091
  endloop
endfacet
facet normal 1.0 -0.0 -0.0
  outer loop
    vertex 33.39800262451172 3.000000238418579 0.0
    vertex 33.39800262451172 -33.48000335693359 4.696000099182129
    vertex 33.39800262451172 -33.56999969482422 4.406000137329102
  endloop
endfacet
facet normal 1.0 -0.0 -0.0
  outer loop
    vertex 33.39800262451172 3.000000238418579 0.0
    vertex 33.39800262451172 -33.45000076293945 4.999999999999999
    vertex 33.39800262451172 -33.48000335693359 4.696000099182129
  endloop
endfacet
facet normal 1.0 -0.0 -0.0
  outer loop
    vertex 33.39800262451172 -35.862003326416016 3.7120001316070557
    vertex 33.39800262451172 -36.098003387451165 3.902000188827514
    vertex 33.39800262451172 -49.000003814697266 0.0
  endloop
endfacet
facet normal 1.0 -0.0 -0.0
  outer loop
    vertex 33.39800262451172 3.000000238418579 0.0
    vertex 33.39800262451172 -33.90400314331055 3.902000188827514
    vertex 33.39800262451172 -34.1400032043457 3.7120001316070557
  endloop
endfacet
facet normal 1.0 -0.0 -0.0
  outer loop
    vertex 33.39800262451172 3.000000238418579 9.998000144958496
    vertex 33.39800262451172 -33.90400314331055 6.094000339508056
    vertex 33.39800262451172 -33.71200180053711 5.860000133514404
  endloop
endfacet
facet normal 1.0 -0.0 -0.0
  outer loop
    vertex 33.39800262451172 3.000000238418579 0.0
    vertex 33.39800262451172 -33.71200180053711 4.138000011444091
    vertex 33.39800262451172 -33.90400314331055 3.902000188827514
  endloop
endfacet
facet normal 1.0 -0.0 -0.0
  outer loop
    vertex 33.39800262451172 -35.30400085449219 3.478000164031982
    vertex 33.39800262451172 -35.59400177001953 3.5680000782012935
    vertex 33.39800262451172 -49.000003814697266 0.0
  endloop
endfacet
facet normal 1.0 -0.0 -0.0
  outer loop
    vertex 33.39800262451172 -35.59400177001953 3.5680000782012935
    vertex 33.39800262451172 -35.862003326416016 3.7120001316070557
    vertex 33.39800262451172 -49.000003814697266 0.0
  endloop
endfacet
facet normal 1.0 -0.0 -0.0
  outer loop
    vertex 33.39800262451172 -35.0 3.450000047683716
    vertex 33.39800262451172 -35.30400085449219 3.478000164031982
    vertex 33.39800262451172 -49.000003814697266 0.0
  endloop
endfacet
facet normal 1.0 -0.0 -0.0
  outer loop
    vertex 33.39800262451172 3.000000238418579 9.998000144958496
    vertex 33.39800262451172 -33.56999969482422 5.592000484466552
    vertex 33.39800262451172 -33.48000335693359 5.300000190734862
  endloop
endfacet
facet normal 1.0 -0.0 -0.0
  outer loop
    vertex 33.39800262451172 3.000000238418579 0.0
    vertex 33.39800262451172 -34.698001861572266 3.478000164031982
    vertex 33.39800262451172 -49.000003814697266 0.0
  endloop
endfacet
facet normal 1.0 -0.0 -0.0
  outer loop
    vertex 33.39800262451172 3.000000238418579 9.998000144958496
    vertex 33.39800262451172 -33.45000076293945 4.999999999999999
    vertex 33.39800262451172 3.000000238418579 0.0
  endloop
endfacet
facet normal 1.0 -0.0 -0.0
  outer loop
    vertex 33.39800262451172 3.000000238418579 9.998000144958496
    vertex 33.39800262451172 -33.48000335693359 5.300000190734862
    vertex 33.39800262451172 -33.45000076293945 4.999999999999999
  endloop
endfacet
facet normal 1.0 -0.0 -0.0
  outer loop
    vertex 33.39800262451172 -34.698001861572266 6.520000457763672
    vertex 33.39800262451172 -49.000003814697266 9.998000144958496
    vertex 33.39800262451172 -35.0 6.550000190734863
  endloop
endfacet
facet normal 1.0 -0.0 -0.0
  outer loop
    vertex 33.39800262451172 3.000000238418579 9.998000144958496
    vertex 33.39800262451172 -34.40800094604492 6.432000160217284
    vertex 33.39800262451172 -34.1400032043457 6.2880001068115225
  endloop
endfacet
facet normal 1.0 -0.0 -0.0
  outer loop
    vertex 33.39800262451172 -35.862003326416016 6.2880001068115225
    vertex 33.39800262451172 -49.000003814697266 9.998000144958496
    vertex 33.39800262451172 -36.098003387451165 6.094000339508056
  endloop
endfacet
facet normal 1.0 -0.0 -0.0
  outer loop
    vertex 33.39800262451172 -36.432003021240234 5.592000484466552
    vertex 33.39800262451172 -49.000003814697266 9.998000144958496
    vertex 33.39800262451172 -36.522003173828125 5.300000190734862
  endloop
endfacet
facet normal 1.0 -0.0 -0.0
  outer loop
    vertex 33.39800262451172 -35.0 6.550000190734863
    vertex 33.39800262451172 -49.000003814697266 9.998000144958496
    vertex 33.39800262451172 -35.30400085449219 6.520000457763672
  endloop
endfacet
facet normal 1.0 -0.0 -0.0
  outer loop
    vertex 33.39800262451172 -36.290000915527344 5.860000133514404
    vertex 33.39800262451172 -49.000003814697266 9.998000144958496
    vertex 33.39800262451172 -36.432003021240234 5.592000484466552
  endloop
endfacet
facet normal 1.0 -0.0 -0.0
  outer loop
    vertex 33.39800262451172 3.000000238418579 9.998000144958496
    vertex 33.39800262451172 -34.698001861572266 6.520000457763672
    vertex 33.39800262451172 -34.40800094604492 6.432000160217284
  endloop
endfacet
facet normal 1.0 -0.0 -0.0
  outer loop
    vertex 33.39800262451172 -35.30400085449219 6.520000457763672
    vertex 33.39800262451172 -49.000003814697266 9.998000144958496
    vertex 33.39800262451172 -35.59400177001953 6.432000160217284
  endloop
endfacet
facet normal 1.0 -0.0 -0.0
  outer loop
    vertex 33.39800262451172 3.000000238418579 9.998000144958496
    vertex 33.39800262451172 -34.1400032043457 6.2880001068115225
    vertex 33.39800262451172 -33.90400314331055 6.094000339508056
  endloop
endfacet
facet normal 1.0 -0.0 -0.0
  outer loop
    vertex 33.39800262451172 -36.522003173828125 5.300000190734862
    vertex 33.39800262451172 -49.000003814697266 9.998000144958496
    vertex 33.39800262451172 -36.552001953125 4.999999999999999
  endloop
endfacet
facet normal 1.0 -0.0 -0.0
  outer loop
    vertex 33.39800262451172 3.000000238418579 9.998000144958496
    vertex 33.39800262451172 -49.000003814697266 9.998000144958496
    vertex 33.39800262451172 -34.698001861572266 6.520000457763672
  endloop
endfacet
facet normal 0.0 -1.0 0.0
  outer loop
    vertex 18.398000717163082 -49.000003814697266 9.998000144958496
    vertex 18.398000717163082 -49.000003814697266 0.0
    vertex 33.39800262451172 -49.000003814697266 9.998000144958496
  endloop
endfacet
facet normal 0.0 -1.0 0.0
  outer loop
    vertex 33.39800262451172 -49.000003814697266 9.998000144958496
    vertex 18.398000717163082 -49.000003814697266 0.0
    vertex 33.39800262451172 -49.000003814697266 0.0
  endloop
endfacet
facet normal 0.0 -1.0 0.0
  outer loop
    vertex 9.998000144958496 -49.000003814697266 9.998000144958496
    vertex 0.0 -49.000003814697266 0.0
    vertex 9.998000144958496 -49.000003814697266 0.0
  endloop
endfacet
facet normal 0.0 -1.0 0.0
  outer loop
    vertex 0.0 -49.000003814697266 9.998000144958496
    vertex 0.0 -49.000003814697266 0.0
    vertex 9.998000144958496 -49.000003814697266 9.998000144958496
  endloop
endfacet
facet normal 1.0 -0.0 -0.0
  outer loop
    vertex 9.998000144958496 -9.100000381469725 0.0
    vertex 9.998000144958496 -49.000003814697266 9.998000144958496
    vertex 9.998000144958496 -49.000003814697266 0.0
  endloop
endfacet
facet normal 1.0 -0.0 -0.0
  outer loop
    vertex 9.998000144958496 -9.100000381469725 9.998000144958496
    vertex 9.998000144958496 -49.000003814697266 9.998000144958496
    vertex 9.998000144958496 -9.100000381469725 0.0
  endloop
endfacet
facet normal -1.0 0.0 0.0
  outer loop
    vertex 18.398000717163082 -9.100000381469725 0.0
    vertex 18.398000717163082 -35.0 1.5000001192092896
    vertex 18.398000717163082 -32.374000549316406 3.0160000324249268
  endloop
endfacet
facet normal -1.0 0.0 0.0
  outer loop
    vertex 18.398000717163082 -9.100000381469725 0.0
    vertex 18.398000717163082 -31.97000122070312 3.248000144958496
    vertex 18.398000717163082 -9.100000381469725 9.998000144958496
  endloop
endfacet
facet normal -1.0 0.0 0.0
  outer loop
    vertex 18.398000717163082 -9.100000381469725 9.998000144958496
    vertex 18.398000717163082 -34.59800338745117 8.266000747680664
    vertex 18.398000717163082 -35.0 8.498000144958496
  endloop
endfacet
facet normal -1.0 0.0 0.0
  outer loop
    vertex 18.398000717163082 -9.100000381469725 9.998000144958496
    vertex 18.398000717163082 -35.0 8.498000144958496
    vertex 18.398000717163082 -49.000003814697266 9.998000144958496
  endloop
endfacet
facet normal -1.0 0.0 0.0
  outer loop
    vertex 18.398000717163082 -35.0 8.498000144958496
    vertex 18.398000717163082 -38.03200149536133 6.750000476837158
    vertex 18.398000717163082 -49.000003814697266 9.998000144958496
  endloop
endfacet
facet normal -1.0 0.0 0.0
  outer loop
    vertex 18.398000717163082 -9.100000381469725 9.998000144958496
    vertex 18.398000717163082 -31.97000122070312 6.750000476837158
    vertex 18.398000717163082 -34.59800338745117 8.266000747680664
  endloop
endfacet
facet normal -1.0 0.0 0.0
  outer loop
    vertex 18.398000717163082 -38.03200149536133 6.750000476837158
    vertex 18.398000717163082 -49.000003814697266 0.0
    vertex 18.398000717163082 -49.000003814697266 9.998000144958496
  endloop
endfacet
facet normal -1.0 0.0 0.0
  outer loop
    vertex 18.398000717163082 -38.03200149536133 3.248000144958496
    vertex 18.398000717163082 -49.000003814697266 0.0
    vertex 18.398000717163082 -38.03200149536133 6.750000476837158
  endloop
endfacet
facet normal -1.0 0.0 0.0
  outer loop
    vertex 18.398000717163082 -9.100000381469725 9.998000144958496
    vertex 18.398000717163082 -31.97000122070312 3.248000144958496
    vertex 18.398000717163082 -31.97000122070312 6.750000476837158
  endloop
endfacet
facet normal -1.0 0.0 0.0
  outer loop
    vertex 18.398000717163082 -9.100000381469725 0.0
    vertex 18.398000717163082 -49.000003814697266 0.0
    vertex 18.398000717163082 -35.0 1.5000001192092896
  endloop
endfacet
facet normal -1.0 0.0 0.0
  outer loop
    vertex 18.398000717163082 -35.0 1.5000001192092896
    vertex 18.398000717163082 -49.000003814697266 0.0
    vertex 18.398000717163082 -37.62800216674805 3.0160000324249268
  endloop
endfacet
facet normal -1.0 0.0 0.0
  outer loop
    vertex 18.398000717163082 -9.100000381469725 0.0
    vertex 18.398000717163082 -32.374000549316406 3.0160000324249268
    vertex 18.398000717163082 -31.97000122070312 3.248000144958496
  endloop
endfacet
facet normal -1.0 0.0 0.0
  outer loop
    vertex 18.398000717163082 -37.62800216674805 3.0160000324249268
    vertex 18.398000717163082 -49.000003814697266 0.0
    vertex 18.398000717163082 -38.03200149536133 3.248000144958496
  endloop
endfacet
facet normal 0.0 -1.0 0.0
  outer loop
    vertex 9.998000144958496 -9.100000381469725 9.998000144958496
    vertex 9.998000144958496 -9.100000381469725 0.0
    vertex 18.398000717163082 -9.100000381469725 9.998000144958496
  endloop
endfacet
facet normal 0.0 -1.0 0.0
  outer loop
    vertex 18.398000717163082 -9.100000381469725 9.998000144958496
    vertex 9.998000144958496 -9.100000381469725 0.0
    vertex 18.398000717163082 -9.100000381469725 0.0
  endloop
endfacet
facet normal -0.0 -0.0923202318644697 0.9957293682464581
  outer loop
    vertex 33.39800262451172 -35.0 3.450000047683716
    vertex 21.000001907348633 -34.698001861572266 3.478000164031982
    vertex 21.000001907348633 -35.0 3.450000047683716
  endloop
endfacet
facet normal -0.0 -0.09232023186446972 0.9957293682464581
  outer loop
    vertex 33.39800262451172 -34.698001861572266 3.478000164031982
    vertex 21.000001907348633 -34.698001861572266 3.478000164031982
    vertex 33.39800262451172 -35.0 3.450000047683716
  endloop
endfacet
facet normal -2.932731622891231e-19 -0.09885094646952507 -0.9951022512194811
  outer loop
    vertex 33.39800262451172 -35.0 6.550000190734863
    vertex 21.000001907348633 -35.0 6.550000190734863
    vertex 33.39800262451172 -34.698001861572266 6.520000457763672
  endloop
endfacet
facet normal -5.865463245782464e-19 -0.09885094646952504 -0.9951022512194811
  outer loop
    vertex 33.39800262451172 -34.698001861572266 6.520000457763672
    vertex 21.000001907348633 -35.0 6.550000190734863
    vertex 21.000001907348633 -34.698001861572266 6.520000457763672
  endloop
endfacet
facet normal 2.971727803086511e-19 -0.9950363445839593 -0.09951217491841145
  outer loop
    vertex 21.000001907348633 -33.48000335693359 5.300000190734862
    vertex 21.000001907348633 -33.45000076293945 4.999999999999999
    vertex 33.39800262451172 -33.48000335693359 5.300000190734862
  endloop
endfacet
facet normal 0.0 -0.9950363445839593 -0.09951217491841144
  outer loop
    vertex 33.39800262451172 -33.48000335693359 5.300000190734862
    vertex 21.000001907348633 -33.45000076293945 4.999999999999999
    vertex 33.39800262451172 -33.45000076293945 4.999999999999999
  endloop
endfacet
facet normal -2.894422707968738e-19 0.9951663794433844 0.09820324447565876
  outer loop
    vertex 21.000001907348633 -36.552001953125 4.999999999999999
    vertex 33.39800262451172 -36.522003173828125 4.696000099182129
    vertex 21.000001907348633 -36.522003173828125 4.696000099182129
  endloop
endfacet
facet normal -0.0 0.9951663794433844 0.09820324447565877
  outer loop
    vertex 33.39800262451172 -36.552001953125 4.999999999999999
    vertex 33.39800262451172 -36.522003173828125 4.696000099182129
    vertex 21.000001907348633 -36.552001953125 4.999999999999999
  endloop
endfacet
facet normal -1.4912342782133155e-18 -0.6350180439090115 -0.7724973034968943
  outer loop
    vertex 33.39800262451172 -34.1400032043457 6.2880001068115225
    vertex 21.000001907348633 -34.1400032043457 6.2880001068115225
    vertex 33.39800262451172 -33.90400314331055 6.094000339508056
  endloop
endfacet
facet normal 0.0 -0.6350180439090116 -0.7724973034968942
  outer loop
    vertex 33.39800262451172 -33.90400314331055 6.094000339508056
    vertex 21.000001907348633 -34.1400032043457 6.2880001068115225
    vertex 21.000001907348633 -33.90400314331055 6.094000339508056
  endloop
endfacet
facet normal -1.3227335074795686e-18 -0.8836243381773565 -0.4681965708766229
  outer loop
    vertex 21.000001907348633 -33.71200180053711 5.860000133514404
    vertex 21.000001907348633 -33.56999969482422 5.592000484466552
    vertex 33.39800262451172 -33.71200180053711 5.860000133514404
  endloop
endfacet
facet normal -1.3227335074795692e-18 -0.8836243381773567 -0.468196570876623
  outer loop
    vertex 33.39800262451172 -33.71200180053711 5.860000133514404
    vertex 21.000001907348633 -33.56999969482422 5.592000484466552
    vertex 33.39800262451172 -33.56999969482422 5.592000484466552
  endloop
endfacet
facet normal -1.3186275771527344e-18 0.47331360382539894 0.8808939961390437
  outer loop
    vertex 33.39800262451172 -35.862003326416016 3.7120001316070557
    vertex 21.000001907348633 -35.59400177001953 3.5680000782012935
    vertex 21.000001907348633 -35.862003326416016 3.7120001316070557
  endloop
endfacet
facet normal 1.3186275771527344e-18 0.47331360382539894 0.8808939961390435
  outer loop
    vertex 33.39800262451172 -35.59400177001953 3.5680000782012935
    vertex 21.000001907348633 -35.59400177001953 3.5680000782012935
    vertex 33.39800262451172 -35.862003326416016 3.7120001316070557
  endloop
endfacet
facet normal 6.1048795134893e-19 -0.2963981035167336 0.9550644817140274
  outer loop
    vertex 33.39800262451172 -34.698001861572266 3.478000164031982
    vertex 21.000001907348633 -34.40800094604492 3.5680000782012935
    vertex 21.000001907348633 -34.698001861572266 3.478000164031982
  endloop
endfacet
facet normal 6.104879513489301e-19 -0.2963981035167336 0.9550644817140274
  outer loop
    vertex 33.39800262451172 -34.40800094604492 3.5680000782012935
    vertex 21.000001907348633 -34.40800094604492 3.5680000782012935
    vertex 33.39800262451172 -34.698001861572266 3.478000164031982
  endloop
endfacet
facet normal -0.0 -0.6271071226830134 0.778933024515094
  outer loop
    vertex 33.39800262451172 -34.1400032043457 3.7120001316070557
    vertex 21.000001907348633 -33.90400314331055 3.902000188827514
    vertex 21.000001907348633 -34.1400032043457 3.7120001316070557
  endloop
endfacet
facet normal -0.0 -0.6271071226830134 0.778933024515094
  outer loop
    vertex 33.39800262451172 -33.90400314331055 3.902000188827514
    vertex 21.000001907348633 -33.90400314331055 3.902000188827514
    vertex 33.39800262451172 -34.1400032043457 3.7120001316070557
  endloop
endfacet
facet normal 0.0 -0.9951651589633588 0.0982156117194861
  outer loop
    vertex 21.000001907348633 -33.45000076293945 4.999999999999999
    vertex 21.000001907348633 -33.48000335693359 4.696000099182129
    vertex 33.39800262451172 -33.45000076293945 4.999999999999999
  endloop
endfacet
facet normal 2.8944191582255253e-19 -0.9951651589633588 0.0982156117194861
  outer loop
    vertex 33.39800262451172 -33.45000076293945 4.999999999999999
    vertex 21.000001907348633 -33.48000335693359 4.696000099182129
    vertex 33.39800262451172 -33.48000335693359 4.696000099182129
  endloop
endfacet
facet normal 1.3227293164530378e-18 -0.8836246828121239 0.46819592044909325
  outer loop
    vertex 21.000001907348633 -33.56999969482422 4.406000137329102
    vertex 21.000001907348633 -33.71200180053711 4.138000011444091
    vertex 33.39800262451172 -33.56999969482422 4.406000137329102
  endloop
endfacet
facet normal 1.3227293164530386e-18 -0.8836246828121239 0.46819592044909336
  outer loop
    vertex 33.39800262451172 -33.56999969482422 4.406000137329102
    vertex 21.000001907348633 -33.71200180053711 4.138000011444091
    vertex 33.39800262451172 -33.71200180053711 4.138000011444091
  endloop
endfacet
facet normal 0.0 -0.4733188316758263 -0.8808911871400638
  outer loop
    vertex 33.39800262451172 -34.40800094604492 6.432000160217284
    vertex 21.000001907348633 -34.40800094604492 6.432000160217284
    vertex 33.39800262451172 -34.1400032043457 6.2880001068115225
  endloop
endfacet
facet normal 0.0 -0.4733188316758263 -0.8808911871400638
  outer loop
    vertex 33.39800262451172 -34.1400032043457 6.2880001068115225
    vertex 21.000001907348633 -34.40800094604492 6.432000160217284
    vertex 21.000001907348633 -34.1400032043457 6.2880001068115225
  endloop
endfacet
facet normal -6.116697422909206e-19 -0.29037375875867283 -0.9569133086253739
  outer loop
    vertex 33.39800262451172 -34.698001861572266 6.520000457763672
    vertex 21.000001907348633 -34.698001861572266 6.520000457763672
    vertex 33.39800262451172 -34.40800094604492 6.432000160217284
  endloop
endfacet
facet normal 6.116697422909209e-19 -0.2903737587586729 -0.956913308625374
  outer loop
    vertex 33.39800262451172 -34.40800094604492 6.432000160217284
    vertex 21.000001907348633 -34.698001861572266 6.520000457763672
    vertex 21.000001907348633 -34.40800094604492 6.432000160217284
  endloop
endfacet
facet normal 0.0 -0.7730714689327398 -0.6343189291848197
  outer loop
    vertex 21.000001907348633 -33.90400314331055 6.094000339508056
    vertex 21.000001907348633 -33.71200180053711 5.860000133514404
    vertex 33.39800262451172 -33.90400314331055 6.094000339508056
  endloop
endfacet
facet normal 1.5179599122850955e-18 -0.7730714689327396 -0.6343189291848198
  outer loop
    vertex 33.39800262451172 -33.90400314331055 6.094000339508056
    vertex 21.000001907348633 -33.71200180053711 5.860000133514404
    vertex 33.39800262451172 -33.71200180053711 5.860000133514404
  endloop
endfacet
facet normal -6.025197145084499e-19 -0.9556408314550864 -0.2945345501903491
  outer loop
    vertex 21.000001907348633 -33.56999969482422 5.592000484466552
    vertex 21.000001907348633 -33.48000335693359 5.300000190734862
    vertex 33.39800262451172 -33.56999969482422 5.592000484466552
  endloop
endfacet
facet normal 0.0 -0.9556408314550864 -0.294534550190349
  outer loop
    vertex 33.39800262451172 -33.56999969482422 5.592000484466552
    vertex 21.000001907348633 -33.48000335693359 5.300000190734862
    vertex 33.39800262451172 -33.48000335693359 5.300000190734862
  endloop
endfacet
facet normal -0.0 0.6271071226830225 0.7789330245150868
  outer loop
    vertex 33.39800262451172 -36.098003387451165 3.902000188827514
    vertex 21.000001907348633 -35.862003326416016 3.7120001316070557
    vertex 21.000001907348633 -36.098003387451165 3.902000188827514
  endloop
endfacet
facet normal -0.0 0.6271071226830224 0.7789330245150868
  outer loop
    vertex 33.39800262451172 -35.862003326416016 3.7120001316070557
    vertex 21.000001907348633 -35.862003326416016 3.7120001316070557
    vertex 33.39800262451172 -36.098003387451165 3.902000188827514
  endloop
endfacet
facet normal -1.3186609113155028e-18 -0.47331883167582633 0.8808911871400638
  outer loop
    vertex 33.39800262451172 -34.40800094604492 3.5680000782012935
    vertex 21.000001907348633 -34.1400032043457 3.7120001316070557
    vertex 21.000001907348633 -34.40800094604492 3.5680000782012935
  endloop
endfacet
facet normal -1.318660911315503e-18 -0.47331883167582633 0.8808911871400638
  outer loop
    vertex 33.39800262451172 -34.1400032043457 3.7120001316070557
    vertex 21.000001907348633 -34.1400032043457 3.7120001316070557
    vertex 33.39800262451172 -34.40800094604492 3.5680000782012935
  endloop
endfacet
facet normal 2.994875474651878e-18 -0.7757092858566003 0.6310904086070738
  outer loop
    vertex 21.000001907348633 -33.71200180053711 4.138000011444091
    vertex 21.000001907348633 -33.90400314331055 3.902000188827514
    vertex 33.39800262451172 -33.71200180053711 4.138000011444091
  endloop
endfacet
facet normal 1.4974377373259393e-18 -0.7757092858566003 0.6310904086070738
  outer loop
    vertex 33.39800262451172 -33.71200180053711 4.138000011444091
    vertex 21.000001907348633 -33.90400314331055 3.902000188827514
    vertex 33.39800262451172 -33.90400314331055 3.902000188827514
  endloop
endfacet
facet normal 0.0 -0.9550675398176225 0.29638824940728387
  outer loop
    vertex 21.000001907348633 -33.48000335693359 4.696000099182129
    vertex 21.000001907348633 -33.56999969482422 4.406000137329102
    vertex 33.39800262451172 -33.48000335693359 4.696000099182129
  endloop
endfacet
facet normal -6.104939213615757e-19 -0.9550675398176225 0.2963882494072838
  outer loop
    vertex 33.39800262451172 -33.48000335693359 4.696000099182129
    vertex 21.000001907348633 -33.56999969482422 4.406000137329102
    vertex 33.39800262451172 -33.56999969482422 4.406000137329102
  endloop
endfacet
facet normal -6.1048795134893e-19 0.2963981035167336 0.9550644817140274
  outer loop
    vertex 33.39800262451172 -35.59400177001953 3.5680000782012935
    vertex 21.000001907348633 -35.30400085449219 3.478000164031982
    vertex 21.000001907348633 -35.59400177001953 3.5680000782012935
  endloop
endfacet
facet normal -6.104879513489301e-19 0.2963981035167336 0.9550644817140274
  outer loop
    vertex 33.39800262451172 -35.30400085449219 3.478000164031982
    vertex 21.000001907348633 -35.30400085449219 3.478000164031982
    vertex 33.39800262451172 -35.59400177001953 3.5680000782012935
  endloop
endfacet
facet normal 2.8962040664865935e-19 0.09171717176404713 0.995785097500261
  outer loop
    vertex 33.39800262451172 -35.30400085449219 3.478000164031982
    vertex 21.000001907348633 -35.0 3.450000047683716
    vertex 21.000001907348633 -35.30400085449219 3.478000164031982
  endloop
endfacet
facet normal 2.8962040664865945e-19 0.09171717176404715 0.995785097500261
  outer loop
    vertex 33.39800262451172 -35.0 3.450000047683716
    vertex 21.000001907348633 -35.0 3.450000047683716
    vertex 33.39800262451172 -35.30400085449219 3.478000164031982
  endloop
endfacet
facet normal -1.318627577152734e-18 0.47331360382539905 -0.8808939961390435
  outer loop
    vertex 33.39800262451172 -35.862003326416016 6.2880001068115225
    vertex 21.000001907348633 -35.862003326416016 6.2880001068115225
    vertex 33.39800262451172 -35.59400177001953 6.432000160217284
  endloop
endfacet
facet normal 0.0 0.47331360382539894 -0.8808939961390437
  outer loop
    vertex 33.39800262451172 -35.59400177001953 6.432000160217284
    vertex 21.000001907348633 -35.862003326416016 6.2880001068115225
    vertex 21.000001907348633 -35.59400177001953 6.432000160217284
  endloop
endfacet
facet normal -0.0 0.9550639835202684 0.2963997088095681
  outer loop
    vertex 21.000001907348633 -36.522003173828125 4.696000099182129
    vertex 33.39800262451172 -36.432003021240234 4.406000137329102
    vertex 21.000001907348633 -36.432003021240234 4.406000137329102
  endloop
endfacet
facet normal 6.10491648121384e-19 0.9550639835202684 0.2963997088095682
  outer loop
    vertex 33.39800262451172 -36.522003173828125 4.696000099182129
    vertex 33.39800262451172 -36.432003021240234 4.406000137329102
    vertex 21.000001907348633 -36.522003173828125 4.696000099182129
  endloop
endfacet
facet normal -0.0 0.7757154240250426 0.631082863758515
  outer loop
    vertex 21.000001907348633 -36.290000915527344 4.138000011444091
    vertex 33.39800262451172 -36.098003387451165 3.902000188827514
    vertex 21.000001907348633 -36.098003387451165 3.902000188827514
  endloop
endfacet
facet normal 1.4974495865138126e-18 0.7757154240250426 0.631082863758515
  outer loop
    vertex 33.39800262451172 -36.290000915527344 4.138000011444091
    vertex 33.39800262451172 -36.098003387451165 3.902000188827514
    vertex 21.000001907348633 -36.290000915527344 4.138000011444091
  endloop
endfacet
facet normal -2.971731544502059e-19 0.9950375973381468 -0.09949964765529748
  outer loop
    vertex 21.000001907348633 -36.522003173828125 5.300000190734862
    vertex 33.39800262451172 -36.552001953125 4.999999999999999
    vertex 21.000001907348633 -36.552001953125 4.999999999999999
  endloop
endfacet
facet normal -2.9717315445020586e-19 0.9950375973381468 -0.09949964765529748
  outer loop
    vertex 33.39800262451172 -36.522003173828125 5.300000190734862
    vertex 33.39800262451172 -36.552001953125 4.999999999999999
    vertex 21.000001907348633 -36.522003173828125 5.300000190734862
  endloop
endfacet
facet normal 1.2050349978735528e-18 0.9556373173945416 -0.2945459515983274
  outer loop
    vertex 21.000001907348633 -36.432003021240234 5.592000484466552
    vertex 33.39800262451172 -36.522003173828125 5.300000190734862
    vertex 21.000001907348633 -36.522003173828125 5.300000190734862
  endloop
endfacet
facet normal -1.205034997873553e-18 0.9556373173945416 -0.2945459515983275
  outer loop
    vertex 33.39800262451172 -36.432003021240234 5.592000484466552
    vertex 33.39800262451172 -36.522003173828125 5.300000190734862
    vertex 21.000001907348633 -36.432003021240234 5.592000484466552
  endloop
endfacet
facet normal -0.0 0.7730776489785443 -0.634311397225217
  outer loop
    vertex 21.000001907348633 -36.098003387451165 6.094000339508056
    vertex 33.39800262451172 -36.290000915527344 5.860000133514404
    vertex 21.000001907348633 -36.290000915527344 5.860000133514404
  endloop
endfacet
facet normal -1.517972047077497e-18 0.7730776489785443 -0.634311397225217
  outer loop
    vertex 33.39800262451172 -36.098003387451165 6.094000339508056
    vertex 33.39800262451172 -36.290000915527344 5.860000133514404
    vertex 21.000001907348633 -36.098003387451165 6.094000339508056
  endloop
endfacet
facet normal 1.4912342782133723e-18 0.6350180439090206 -0.7724973034968868
  outer loop
    vertex 33.39800262451172 -36.098003387451165 6.094000339508056
    vertex 21.000001907348633 -36.098003387451165 6.094000339508056
    vertex 33.39800262451172 -35.862003326416016 6.2880001068115225
  endloop
endfacet
facet normal 0.0 0.6350180439090206 -0.7724973034968868
  outer loop
    vertex 33.39800262451172 -35.862003326416016 6.2880001068115225
    vertex 21.000001907348633 -36.098003387451165 6.094000339508056
    vertex 21.000001907348633 -35.862003326416016 6.2880001068115225
  endloop
endfacet
facet normal 5.78880749624276e-19 0.09820603118123603 -0.9951661044467052
  outer loop
    vertex 33.39800262451172 -35.30400085449219 6.520000457763672
    vertex 21.000001907348633 -35.30400085449219 6.520000457763672
    vertex 33.39800262451172 -35.0 6.550000190734863
  endloop
endfacet
facet normal 5.78880749624276e-19 0.098206031181236 -0.9951661044467052
  outer loop
    vertex 33.39800262451172 -35.0 6.550000190734863
    vertex 21.000001907348633 -35.30400085449219 6.520000457763672
    vertex 21.000001907348633 -35.0 6.550000190734863
  endloop
endfacet
facet normal -1.3227293164530386e-18 0.8836246828121239 0.46819592044909336
  outer loop
    vertex 21.000001907348633 -36.432003021240234 4.406000137329102
    vertex 33.39800262451172 -36.290000915527344 4.138000011444091
    vertex 21.000001907348633 -36.290000915527344 4.138000011444091
  endloop
endfacet
facet normal 1.3227293164530382e-18 0.8836246828121237 0.46819592044909336
  outer loop
    vertex 33.39800262451172 -36.432003021240234 4.406000137329102
    vertex 33.39800262451172 -36.290000915527344 4.138000011444091
    vertex 21.000001907348633 -36.432003021240234 4.406000137329102
  endloop
endfacet
facet normal 1.3227335074795692e-18 0.8836243381773567 -0.468196570876623
  outer loop
    vertex 21.000001907348633 -36.290000915527344 5.860000133514404
    vertex 33.39800262451172 -36.432003021240234 5.592000484466552
    vertex 21.000001907348633 -36.432003021240234 5.592000484466552
  endloop
endfacet
facet normal 1.3227335074795686e-18 0.8836243381773567 -0.468196570876623
  outer loop
    vertex 33.39800262451172 -36.290000915527344 5.860000133514404
    vertex 33.39800262451172 -36.432003021240234 5.592000484466552
    vertex 21.000001907348633 -36.290000915527344 5.860000133514404
  endloop
endfacet
facet normal 6.116697422909208e-19 0.29037375875867283 -0.9569133086253739
  outer loop
    vertex 33.39800262451172 -35.59400177001953 6.432000160217284
    vertex 21.000001907348633 -35.59400177001953 6.432000160217284
    vertex 33.39800262451172 -35.30400085449219 6.520000457763672
  endloop
endfacet
facet normal -6.116697422909209e-19 0.2903737587586729 -0.956913308625374
  outer loop
    vertex 33.39800262451172 -35.30400085449219 6.520000457763672
    vertex 21.000001907348633 -35.59400177001953 6.432000160217284
    vertex 21.000001907348633 -35.30400085449219 6.520000457763672
  endloop
endfacet
facet normal -6.484573692652837e-18 -0.4979879059431469 0.8671839744450769
  outer loop
    vertex 21.000001907348633 -31.97000122070312 3.248000144958496
    vertex 18.398000717163082 -31.97000122070312 3.248000144958496
    vertex 18.398000717163082 -32.374000549316406 3.0160000324249268
  endloop
endfacet
facet normal 0.0003549547278530793 -0.49970607971656367 0.8661949595220724
  outer loop
    vertex 21.000001907348633 -31.97000122070312 3.248000144958496
    vertex 18.398000717163082 -32.374000549316406 3.0160000324249268
    vertex 21.000001907348633 -35.0 1.5000001192092896
  endloop
endfacet
facet normal 7.847864761236107e-17 -0.4999699281558786 0.8660427650756085
  outer loop
    vertex 21.000001907348633 -35.0 1.5000001192092896
    vertex 18.398000717163082 -32.374000549316406 3.0160000324249268
    vertex 18.398000717163082 -35.0 1.5000001192092896
  endloop
endfacet
facet normal -7.837400197250168e-17 -0.4996841652109579 -0.8662076743122451
  outer loop
    vertex 21.000001907348633 -31.97000122070312 6.750000476837158
    vertex 18.398000717163082 -34.59800338745117 8.266000747680664
    vertex 18.398000717163082 -31.97000122070312 6.750000476837158
  endloop
endfacet
facet normal 0.0 -1.0 0.0
  outer loop
    vertex 18.398000717163082 -31.97000122070312 6.750000476837158
    vertex 18.398000717163082 -31.97000122070312 3.248000144958496
    vertex 21.000001907348633 -31.97000122070312 3.248000144958496
  endloop
endfacet
facet normal 0.0 -1.0 0.0
  outer loop
    vertex 18.398000717163082 -31.97000122070312 6.750000476837158
    vertex 21.000001907348633 -31.97000122070312 3.248000144958496
    vertex 21.000001907348633 -31.97000122070312 6.750000476837158
  endloop
endfacet
facet normal 6.541254284493695e-18 -0.49984897859579497 -0.866112578477383
  outer loop
    vertex 21.000001907348633 -35.0 8.498000144958496
    vertex 18.398000717163082 -35.0 8.498000144958496
    vertex 18.398000717163082 -34.59800338745117 8.266000747680664
  endloop
endfacet
facet normal 2.9438236112236867e-05 -0.49970603427256816 -0.8661950579661452
  outer loop
    vertex 21.000001907348633 -35.0 8.498000144958496
    vertex 18.398000717163082 -34.59800338745117 8.266000747680664
    vertex 21.000001907348633 -31.97000122070312 6.750000476837158
  endloop
endfacet
facet normal 7.837400658881482e-17 0.49968407676626964 0.8662077253328101
  outer loop
    vertex 21.000001907348633 -35.0 1.5000001192092896
    vertex 18.398000717163082 -35.0 1.5000001192092896
    vertex 18.398000717163082 -37.62800216674805 3.0160000324249268
  endloop
endfacet
facet normal -1.0 0.0 0.0
  outer loop
    vertex 21.000001907348633 -35.862003326416016 6.2880001068115225
    vertex 21.000001907348633 -36.098003387451165 6.094000339508056
    vertex 21.000001907348633 -38.03200149536133 6.750000476837158
  endloop
endfacet
facet normal -1.0 0.0 0.0
  outer loop
    vertex 21.000001907348633 -36.098003387451165 6.094000339508056
    vertex 21.000001907348633 -36.290000915527344 5.860000133514404
    vertex 21.000001907348633 -38.03200149536133 6.750000476837158
  endloop
endfacet
facet normal -1.0 0.0 0.0
  outer loop
    vertex 21.000001907348633 -35.0 8.498000144958496
    vertex 21.000001907348633 -35.59400177001953 6.432000160217284
    vertex 21.000001907348633 -35.862003326416016 6.2880001068115225
  endloop
endfacet
facet normal -1.0 0.0 0.0
  outer loop
    vertex 21.000001907348633 -35.0 8.498000144958496
    vertex 21.000001907348633 -35.30400085449219 6.520000457763672
    vertex 21.000001907348633 -35.59400177001953 6.432000160217284
  endloop
endfacet
facet normal -1.0 0.0 0.0
  outer loop
    vertex 21.000001907348633 -35.0 6.550000190734863
    vertex 21.000001907348633 -35.30400085449219 6.520000457763672
    vertex 21.000001907348633 -35.0 8.498000144958496
  endloop
endfacet
facet normal -1.0 0.0 0.0
  outer loop
    vertex 21.000001907348633 -36.552001953125 4.999999999999999
    vertex 21.000001907348633 -38.03200149536133 3.248000144958496
    vertex 21.000001907348633 -38.03200149536133 6.750000476837158
  endloop
endfacet
facet normal -1.0 0.0 0.0
  outer loop
    vertex 21.000001907348633 -35.862003326416016 3.7120001316070557
    vertex 21.000001907348633 -38.03200149536133 3.248000144958496
    vertex 21.000001907348633 -36.098003387451165 3.902000188827514
  endloop
endfacet
facet normal -1.0 0.0 0.0
  outer loop
    vertex 21.000001907348633 -36.522003173828125 4.696000099182129
    vertex 21.000001907348633 -38.03200149536133 3.248000144958496
    vertex 21.000001907348633 -36.552001953125 4.999999999999999
  endloop
endfacet
facet normal -1.0 0.0 0.0
  outer loop
    vertex 21.000001907348633 -36.290000915527344 5.860000133514404
    vertex 21.000001907348633 -36.432003021240234 5.592000484466552
    vertex 21.000001907348633 -38.03200149536133 6.750000476837158
  endloop
endfacet
facet normal -1.0 0.0 0.0
  outer loop
    vertex 21.000001907348633 -35.0 1.5000001192092896
    vertex 21.000001907348633 -35.862003326416016 3.7120001316070557
    vertex 21.000001907348633 -35.59400177001953 3.5680000782012935
  endloop
endfacet
facet normal -1.0 0.0 0.0
  outer loop
    vertex 21.000001907348633 -36.432003021240234 4.406000137329102
    vertex 21.000001907348633 -38.03200149536133 3.248000144958496
    vertex 21.000001907348633 -36.522003173828125 4.696000099182129
  endloop
endfacet
facet normal -1.0 0.0 0.0
  outer loop
    vertex 21.000001907348633 -34.40800094604492 6.432000160217284
    vertex 21.000001907348633 -34.698001861572266 6.520000457763672
    vertex 21.000001907348633 -35.0 8.498000144958496
  endloop
endfacet
facet normal -1.0 0.0 0.0
  outer loop
    vertex 21.000001907348633 -34.1400032043457 6.2880001068115225
    vertex 21.000001907348633 -34.40800094604492 6.432000160217284
    vertex 21.000001907348633 -35.0 8.498000144958496
  endloop
endfacet
facet normal -1.0 0.0 0.0
  outer loop
    vertex 21.000001907348633 -31.97000122070312 3.248000144958496
    vertex 21.000001907348633 -33.90400314331055 3.902000188827514
    vertex 21.000001907348633 -33.71200180053711 4.138000011444091
  endloop
endfacet
facet normal -1.0 0.0 0.0
  outer loop
    vertex 21.000001907348633 -34.698001861572266 6.520000457763672
    vertex 21.000001907348633 -35.0 6.550000190734863
    vertex 21.000001907348633 -35.0 8.498000144958496
  endloop
endfacet
facet normal -1.0 0.0 0.0
  outer loop
    vertex 21.000001907348633 -31.97000122070312 6.750000476837158
    vertex 21.000001907348633 -33.90400314331055 6.094000339508056
    vertex 21.000001907348633 -34.1400032043457 6.2880001068115225
  endloop
endfacet
facet normal -1.0 0.0 0.0
  outer loop
    vertex 21.000001907348633 -31.97000122070312 6.750000476837158
    vertex 21.000001907348633 -33.71200180053711 5.860000133514404
    vertex 21.000001907348633 -33.90400314331055 6.094000339508056
  endloop
endfacet
facet normal -1.0 0.0 0.0
  outer loop
    vertex 21.000001907348633 -31.97000122070312 6.750000476837158
    vertex 21.000001907348633 -33.56999969482422 5.592000484466552
    vertex 21.000001907348633 -33.71200180053711 5.860000133514404
  endloop
endfacet
facet normal -1.0 0.0 0.0
  outer loop
    vertex 21.000001907348633 -31.97000122070312 6.750000476837158
    vertex 21.000001907348633 -34.1400032043457 6.2880001068115225
    vertex 21.000001907348633 -35.0 8.498000144958496
  endloop
endfacet
facet normal -1.0 0.0 0.0
  outer loop
    vertex 21.000001907348633 -36.432003021240234 5.592000484466552
    vertex 21.000001907348633 -36.522003173828125 5.300000190734862
    vertex 21.000001907348633 -38.03200149536133 6.750000476837158
  endloop
endfacet
facet normal -1.0 0.0 0.0
  outer loop
    vertex 21.000001907348633 -36.522003173828125 5.300000190734862
    vertex 21.000001907348633 -36.552001953125 4.999999999999999
    vertex 21.000001907348633 -38.03200149536133 6.750000476837158
  endloop
endfacet
facet normal -1.0 0.0 0.0
  outer loop
    vertex 21.000001907348633 -35.0 8.498000144958496
    vertex 21.000001907348633 -35.862003326416016 6.2880001068115225
    vertex 21.000001907348633 -38.03200149536133 6.750000476837158
  endloop
endfacet
facet normal -1.0 0.0 0.0
  outer loop
    vertex 21.000001907348633 -31.97000122070312 3.248000144958496
    vertex 21.000001907348633 -33.71200180053711 4.138000011444091
    vertex 21.000001907348633 -33.56999969482422 4.406000137329102
  endloop
endfacet
facet normal -1.0 0.0 0.0
  outer loop
    vertex 21.000001907348633 -31.97000122070312 3.248000144958496
    vertex 21.000001907348633 -33.56999969482422 4.406000137329102
    vertex 21.000001907348633 -33.48000335693359 4.696000099182129
  endloop
endfacet
facet normal -1.0 0.0 0.0
  outer loop
    vertex 21.000001907348633 -31.97000122070312 6.750000476837158
    vertex 21.000001907348633 -33.45000076293945 4.999999999999999
    vertex 21.000001907348633 -33.48000335693359 5.300000190734862
  endloop
endfacet
facet normal -1.0 0.0 0.0
  outer loop
    vertex 21.000001907348633 -31.97000122070312 6.750000476837158
    vertex 21.000001907348633 -33.48000335693359 5.300000190734862
    vertex 21.000001907348633 -33.56999969482422 5.592000484466552
  endloop
endfacet
facet normal -1.0 0.0 0.0
  outer loop
    vertex 21.000001907348633 -31.97000122070312 3.248000144958496
    vertex 21.000001907348633 -33.48000335693359 4.696000099182129
    vertex 21.000001907348633 -33.45000076293945 4.999999999999999
  endloop
endfacet
facet normal -1.0 0.0 0.0
  outer loop
    vertex 21.000001907348633 -31.97000122070312 3.248000144958496
    vertex 21.000001907348633 -34.1400032043457 3.7120001316070557
    vertex 21.000001907348633 -33.90400314331055 3.902000188827514
  endloop
endfacet
facet normal -1.0 0.0 0.0
  outer loop
    vertex 21.000001907348633 -35.0 1.5000001192092896
    vertex 21.000001907348633 -35.30400085449219 3.478000164031982
    vertex 21.000001907348633 -35.0 3.450000047683716
  endloop
endfacet
facet normal -1.0 0.0 0.0
  outer loop
    vertex 21.000001907348633 -36.290000915527344 4.138000011444091
    vertex 21.000001907348633 -38.03200149536133 3.248000144958496
    vertex 21.000001907348633 -36.432003021240234 4.406000137329102
  endloop
endfacet
facet normal -1.0 0.0 0.0
  outer loop
    vertex 21.000001907348633 -31.97000122070312 3.248000144958496
    vertex 21.000001907348633 -35.0 1.5000001192092896
    vertex 21.000001907348633 -34.1400032043457 3.7120001316070557
  endloop
endfacet
facet normal -1.0 0.0 0.0
  outer loop
    vertex 21.000001907348633 -31.97000122070312 3.248000144958496
    vertex 21.000001907348633 -33.45000076293945 4.999999999999999
    vertex 21.000001907348633 -31.97000122070312 6.750000476837158
  endloop
endfacet
facet normal -1.0 0.0 0.0
  outer loop
    vertex 21.000001907348633 -34.1400032043457 3.7120001316070557
    vertex 21.000001907348633 -35.0 1.5000001192092896
    vertex 21.000001907348633 -34.40800094604492 3.5680000782012935
  endloop
endfacet
facet normal -1.0 0.0 0.0
  outer loop
    vertex 21.000001907348633 -34.40800094604492 3.5680000782012935
    vertex 21.000001907348633 -35.0 1.5000001192092896
    vertex 21.000001907348633 -34.698001861572266 3.478000164031982
  endloop
endfacet
facet normal -1.0 0.0 0.0
  outer loop
    vertex 21.000001907348633 -36.098003387451165 3.902000188827514
    vertex 21.000001907348633 -38.03200149536133 3.248000144958496
    vertex 21.000001907348633 -36.290000915527344 4.138000011444091
  endloop
endfacet
facet normal -1.0 0.0 0.0
  outer loop
    vertex 21.000001907348633 -35.0 1.5000001192092896
    vertex 21.000001907348633 -38.03200149536133 3.248000144958496
    vertex 21.000001907348633 -35.862003326416016 3.7120001316070557
  endloop
endfacet
facet normal -1.0 0.0 0.0
  outer loop
    vertex 21.000001907348633 -34.698001861572266 3.478000164031982
    vertex 21.000001907348633 -35.0 1.5000001192092896
    vertex 21.000001907348633 -35.0 3.450000047683716
  endloop
endfacet
facet normal -1.0 0.0 0.0
  outer loop
    vertex 21.000001907348633 -35.0 1.5000001192092896
    vertex 21.000001907348633 -35.59400177001953 3.5680000782012935
    vertex 21.000001907348633 -35.30400085449219 3.478000164031982
  endloop
endfacet
facet normal -0.0 1.0 -0.0
  outer loop
    vertex 18.398000717163082 -38.03200149536133 6.750000476837158
    vertex 21.000001907348633 -38.03200149536133 3.248000144958496
    vertex 18.398000717163082 -38.03200149536133 3.248000144958496
  endloop
endfacet
facet normal -0.0 1.0 -0.0
  outer loop
    vertex 21.000001907348633 -38.03200149536133 6.750000476837158
    vertex 21.000001907348633 -38.03200149536133 3.248000144958496
    vertex 18.398000717163082 -38.03200149536133 6.750000476837158
  endloop
endfacet
facet normal 5.888842421875897e-17 0.49945832456426115 -0.8663379144557055
  outer loop
    vertex 21.000001907348633 -38.03200149536133 6.750000476837158
    vertex 18.398000717163082 -38.03200149536133 6.750000476837158
    vertex 21.000001907348633 -35.0 8.498000144958496
  endloop
endfacet
facet normal 0.0 0.49945832456426126 -0.8663379144557054
  outer loop
    vertex 21.000001907348633 -35.0 8.498000144958496
    vertex 18.398000717163082 -38.03200149536133 6.750000476837158
    vertex 18.398000717163082 -35.0 8.498000144958496
  endloop
endfacet
facet normal 0.00030375672290494356 0.4994583782166491 0.8663378302723761
  outer loop
    vertex 21.000001907348633 -35.0 1.5000001192092896
    vertex 18.398000717163082 -37.62800216674805 3.0160000324249268
    vertex 21.000001907348633 -38.03200149536133 3.248000144958496
  endloop
endfacet
facet normal -6.484573692652837e-18 0.4979879059431469 0.8671839744450769
  outer loop
    vertex 21.000001907348633 -38.03200149536133 3.248000144958496
    vertex 18.398000717163082 -37.62800216674805 3.0160000324249268
    vertex 18.398000717163082 -38.03200149536133 3.248000144958496
  endloop
endfacet
facet normal -0.8836129566429439 0.468218050541321 4.314957581189243e-18
  outer loop
    vertex 45.772414407644625 191.25567999737927 10.000000145053507
    vertex 45.38241501799621 190.51967993634412 0.002000000094996546
    vertex 45.38241501799621 190.51967993634412 10.000000145053507
  endloop
endfacet
facet normal 0.883611061878341 0.4682216262906173 -0.0
  outer loop
    vertex 37.92241211882631 191.25567999737927 10.000000145053507
    vertex 38.31241532317203 190.51967993634412 10.000000145053507
    vertex 37.92241211882631 191.25567999737927 0.002000000094996546
  endloop
endfacet
facet normal -1.0 0.0 0.0
  outer loop
    vertex 46.098410806570406 205.86967841046516 10.000000145053507
    vertex 46.098410806570406 192.8796805466956 0.002000000094996546
    vertex 46.098410806570406 192.8796805466956 10.000000145053507
  endloop
endfacet
facet normal 0.7733172891389074 0.6340192192030549 4.9323017460314964e-18
  outer loop
    vertex 38.31241532317203 190.51967993634412 10.000000145053507
    vertex 38.84041520110173 189.87567511456677 10.000000145053507
    vertex 38.31241532317203 190.51967993634412 0.002000000094996546
  endloop
endfacet
facet normal -0.00024497956164706516 0.0004623187691761924 -0.9999998631231758
  outer loop
    vertex 55.248412332449384 190.86967841046513 0.0
    vertex 43.47241517058409 188.95567694562146 0.002000000094996546
    vertex 44.20841141692193 189.34567633526987 0.002000000094996546
  endloop
endfacet
facet normal 0.9951551284856562 0.09831719203016981 -9.553067561029633e-19
  outer loop
    vertex 37.596411905203276 192.8796805466956 10.000000145053507
    vertex 37.67841263762513 192.04967871564097 10.000000145053507
    vertex 37.596411905203276 192.8796805466956 0.002000000094996546
  endloop
endfacet
facet normal -0.0 -0.0 1.0
  outer loop
    vertex 55.248412332449384 190.86967841046513 10.000000145053507
    vertex 45.38241501799621 190.51967993634412 10.000000145053507
    vertex 44.854415140066536 189.87567511456677 10.000000145053507
  endloop
endfacet
facet normal 0.9951551284856562 0.09831719203016981 -0.0
  outer loop
    vertex 37.596411905203276 192.8796805466956 0.002000000094996546
    vertex 37.67841263762513 192.04967871564097 10.000000145053507
    vertex 37.67841263762513 192.04967871564097 0.002000000094996546
  endloop
endfacet
facet normal 1.0 -0.0 -0.0
  outer loop
    vertex 37.596411905203276 205.86967841046516 0.002000000094996546
    vertex 37.596411905203276 192.8796805466956 10.000000145053507
    vertex 37.596411905203276 192.8796805466956 0.002000000094996546
  endloop
endfacet
facet normal 0.9558831106523709 0.29374730427622214 2.00542001826183e-18
  outer loop
    vertex 37.67841263762513 192.04967871564097 0.002000000094996546
    vertex 37.92241211882631 191.25567999737927 10.000000145053507
    vertex 37.92241211882631 191.25567999737927 0.002000000094996546
  endloop
endfacet
facet normal -0.0 1.0 -0.0
  outer loop
    vertex 37.596411905203276 205.86967841046516 10.000000145053507
    vertex 37.596411905203276 205.86967841046516 0.002000000094996546
    vertex 32.246413431082175 205.86967841046516 10.000000145053507
  endloop
endfacet
facet normal 0.6342791130074772 0.7731041371008489 -0.0
  outer loop
    vertex 39.48641510954898 189.34567633526987 10.000000145053507
    vertex 39.48641510954898 189.34567633526987 0.002000000094996546
    vertex 38.84041520110173 189.87567511456677 10.000000145053507
  endloop
endfacet
facet normal 0.9977939742599097 -0.0663866321680423 -1.2007559192111926e-17
  outer loop
    vertex 56.24641343108224 205.86967841046516 0.002000000094996546
    vertex 55.248412332449384 190.86967841046513 10.000000145053507
    vertex 55.248412332449384 190.86967841046513 0.0
  endloop
endfacet
facet normal -0.00021393663048273074 2.1134083719076567e-05 -0.9999999768922342
  outer loop
    vertex 55.248412332449384 190.86967841046513 0.0
    vertex 46.016417703543055 192.04967871564097 0.002000000094996546
    vertex 46.098410806570406 192.8796805466956 0.002000000094996546
  endloop
endfacet
facet normal 0.6342791130074772 0.7731041371008489 -4.900532123488339e-18
  outer loop
    vertex 38.84041520110173 189.87567511456677 10.000000145053507
    vertex 39.48641510954898 189.34567633526987 0.002000000094996546
    vertex 38.84041520110173 189.87567511456677 0.002000000094996546
  endloop
endfacet
facet normal -0.0 1.0 -0.0
  outer loop
    vertex 32.246413431082175 205.86967841046516 10.000000145053507
    vertex 37.596411905203276 205.86967841046516 0.002000000094996546
    vertex 32.246413431082175 205.86967841046516 0.002000000094996546
  endloop
endfacet
facet normal -0.9951560234432159 0.09830813295290276 9.55307615224299e-19
  outer loop
    vertex 46.098410806570406 192.8796805466956 0.002000000094996546
    vertex 46.016417703543055 192.04967871564097 0.002000000094996546
    vertex 46.098410806570406 192.8796805466956 10.000000145053507
  endloop
endfacet
facet normal -0.0 -0.0 1.0
  outer loop
    vertex 55.248412332449384 190.86967841046513 10.000000145053507
    vertex 46.098410806570406 192.8796805466956 10.000000145053507
    vertex 46.016417703543055 192.04967871564097 10.000000145053507
  endloop
endfacet
facet normal 0.9558831106523709 0.29374730427622214 2.00542001826183e-18
  outer loop
    vertex 37.67841263762513 192.04967871564097 10.000000145053507
    vertex 37.92241211882631 191.25567999737927 10.000000145053507
    vertex 37.67841263762513 192.04967871564097 0.002000000094996546
  endloop
endfacet
facet normal -0.468219945309359 0.8836119526208893 -0.0
  outer loop
    vertex 44.20841141692193 189.34567633526987 10.000000145053507
    vertex 44.20841141692193 189.34567633526987 0.002000000094996546
    vertex 43.47241517058409 188.95567694562146 10.000000145053507
  endloop
endfacet
facet normal -0.8836129566429439 0.468218050541321 0.0
  outer loop
    vertex 45.772414407644625 191.25567999737927 0.002000000094996546
    vertex 45.38241501799621 190.51967993634412 0.002000000094996546
    vertex 45.772414407644625 191.25567999737927 10.000000145053507
  endloop
endfacet
facet normal -0.7733172891389207 0.6340192192030387 4.932301746031582e-18
  outer loop
    vertex 45.38241501799621 190.51967993634412 0.002000000094996546
    vertex 44.854415140066536 189.87567511456677 0.002000000094996546
    vertex 45.38241501799621 190.51967993634412 10.000000145053507
  endloop
endfacet
facet normal -0.0 -0.0 1.0
  outer loop
    vertex 55.248412332449384 190.86967841046513 10.000000145053507
    vertex 45.772414407644625 191.25567999737927 10.000000145053507
    vertex 45.38241501799621 190.51967993634412 10.000000145053507
  endloop
endfacet
facet normal -0.10093088636613039 0.994893439609161 -0.0
  outer loop
    vertex 42.67641373625792 188.71368018048477 10.000000145053507
    vertex 42.67641373625792 188.71368018048477 0.002000000094996546
    vertex 41.84841462126769 188.62968054669568 10.000000145053507
  endloop
endfacet
facet normal -0.0 -0.0 1.0
  outer loop
    vertex 37.596411905203276 205.86967841046516 10.000000145053507
    vertex 32.246413431082175 205.86967841046516 10.000000145053507
    vertex 37.596411905203276 192.8796805466956 10.000000145053507
  endloop
endfacet
facet normal -0.00020845016039786667 6.405870059713684e-05 -0.9999999762225066
  outer loop
    vertex 55.248412332449384 190.86967841046513 0.0
    vertex 45.772414407644625 191.25567999737927 0.002000000094996546
    vertex 46.016417703543055 192.04967871564097 0.002000000094996546
  endloop
endfacet
facet normal 0.7733172891389074 0.6340192192030549 4.9323017460314964e-18
  outer loop
    vertex 38.31241532317203 190.51967993634412 0.002000000094996546
    vertex 38.84041520110173 189.87567511456677 10.000000145053507
    vertex 38.84041520110173 189.87567511456677 0.002000000094996546
  endloop
endfacet
facet normal -0.468219945309359 0.8836119526208893 -0.0
  outer loop
    vertex 43.47241517058409 188.95567694562146 10.000000145053507
    vertex 44.20841141692193 189.34567633526987 0.002000000094996546
    vertex 43.47241517058409 188.95567694562146 0.002000000094996546
  endloop
endfacet
facet normal -0.9951560234432159 0.09830813295290276 9.55307615224299e-19
  outer loop
    vertex 46.098410806570406 192.8796805466956 10.000000145053507
    vertex 46.016417703543055 192.04967871564097 0.002000000094996546
    vertex 46.016417703543055 192.04967871564097 10.000000145053507
  endloop
endfacet
facet normal 0.9977939742599097 -0.06638663216804226 1.201236365723877e-17
  outer loop
    vertex 56.24641343108224 205.86967841046516 10.000000145053507
    vertex 55.248412332449384 190.86967841046513 10.000000145053507
    vertex 56.24641343108224 205.86967841046516 0.002000000094996546
  endloop
endfacet
facet normal 0.0 0.0 -1.0
  outer loop
    vertex 37.596411905203276 192.8796805466956 0.002000000094996546
    vertex 32.246413431082175 205.86967841046516 0.002000000094996546
    vertex 37.596411905203276 205.86967841046516 0.002000000094996546
  endloop
endfacet
facet normal -0.00020878909921639326 0.00017117980358448054 -0.9999999635522929
  outer loop
    vertex 55.248412332449384 190.86967841046513 0.0
    vertex 44.854415140066536 189.87567511456677 0.002000000094996546
    vertex 45.38241501799621 190.51967993634412 0.002000000094996546
  endloop
endfacet
facet normal -0.7733172891389207 0.6340192192030387 4.932301746031582e-18
  outer loop
    vertex 45.38241501799621 190.51967993634412 10.000000145053507
    vertex 44.854415140066536 189.87567511456677 0.002000000094996546
    vertex 44.854415140066536 189.87567511456677 10.000000145053507
  endloop
endfacet
facet normal -1.0 0.0 0.0
  outer loop
    vertex 46.098410806570406 205.86967841046516 0.002000000094996546
    vertex 46.098410806570406 192.8796805466956 0.002000000094996546
    vertex 46.098410806570406 205.86967841046516 10.000000145053507
  endloop
endfacet
facet normal 0.1006898217033784 0.9949178658589573 9.55078994034647e-19
  outer loop
    vertex 41.01841279021301 188.71368018048477 10.000000145053507
    vertex 41.84841462126769 188.62968054669568 0.002000000094996546
    vertex 41.01841279021301 188.71368018048477 0.002000000094996546
  endloop
endfacet
facet normal 0.2908718662491922 0.956762017131069 -1.997195358285595e-18
  outer loop
    vertex 40.222415170584085 188.95567694562146 10.000000145053507
    vertex 41.01841279021301 188.71368018048477 0.002000000094996546
    vertex 40.222415170584085 188.95567694562146 0.002000000094996546
  endloop
endfacet
facet normal -0.0 1.0 -0.0
  outer loop
    vertex 46.098410806570406 205.86967841046516 10.000000145053507
    vertex 56.24641343108224 205.86967841046516 0.002000000094996546
    vertex 46.098410806570406 205.86967841046516 0.002000000094996546
  endloop
endfacet
facet normal -0.0 -0.0 1.0
  outer loop
    vertex 55.248412332449384 190.86967841046513 10.000000145053507
    vertex 44.854415140066536 189.87567511456677 10.000000145053507
    vertex 44.20841141692193 189.34567633526987 10.000000145053507
  endloop
endfacet
facet normal -0.0 -0.0 1.0
  outer loop
    vertex 56.24641343108224 205.86967841046516 10.000000145053507
    vertex 46.098410806570406 192.8796805466956 10.000000145053507
    vertex 55.248412332449384 190.86967841046513 10.000000145053507
  endloop
endfacet
facet normal 0.1006898217033784 0.9949178658589573 9.55078994034647e-19
  outer loop
    vertex 41.84841462126769 188.62968054669568 10.000000145053507
    vertex 41.84841462126769 188.62968054669568 0.002000000094996546
    vertex 41.01841279021301 188.71368018048477 10.000000145053507
  endloop
endfacet
facet normal 0.2908718662491922 0.956762017131069 -1.997195358285595e-18
  outer loop
    vertex 41.01841279021301 188.71368018048477 10.000000145053507
    vertex 41.01841279021301 188.71368018048477 0.002000000094996546
    vertex 40.222415170584085 188.95567694562146 10.000000145053507
  endloop
endfacet
facet normal 0.4682180505413596 0.8836129566429235 -4.3149575811898044e-18
  outer loop
    vertex 39.48641510954898 189.34567633526987 10.000000145053507
    vertex 40.222415170584085 188.95567694562146 0.002000000094996546
    vertex 39.48641510954898 189.34567633526987 0.002000000094996546
  endloop
endfacet
facet normal -0.0 -0.0 1.0
  outer loop
    vertex 55.248412332449384 190.86967841046513 10.000000145053507
    vertex 46.016417703543055 192.04967871564097 10.000000145053507
    vertex 45.772414407644625 191.25567999737927 10.000000145053507
  endloop
endfacet
facet normal 0.883611061878341 0.4682216262906173 -0.0
  outer loop
    vertex 37.92241211882631 191.25567999737927 0.002000000094996546
    vertex 38.31241532317203 190.51967993634412 10.000000145053507
    vertex 38.31241532317203 190.51967993634412 0.002000000094996546
  endloop
endfacet
facet normal -0.6342768743738691 0.7731059737413203 -4.9004858895972386e-18
  outer loop
    vertex 44.20841141692193 189.34567633526987 10.000000145053507
    vertex 44.854415140066536 189.87567511456677 0.002000000094996546
    vertex 44.20841141692193 189.34567633526987 0.002000000094996546
  endloop
endfacet
facet normal -0.0 -0.0 1.0
  outer loop
    vertex 55.248412332449384 190.86967841046513 10.000000145053507
    vertex 44.20841141692193 189.34567633526987 10.000000145053507
    vertex 43.47241517058409 188.95567694562146 10.000000145053507
  endloop
endfacet
facet normal -0.0 -0.0 1.0
  outer loop
    vertex 56.24641343108224 205.86967841046516 10.000000145053507
    vertex 46.098410806570406 205.86967841046516 10.000000145053507
    vertex 46.098410806570406 192.8796805466956 10.000000145053507
  endloop
endfacet
facet normal -0.0002178072975782889 0.00026548047025749664 -0.9999999410400487
  outer loop
    vertex 55.248412332449384 190.86967841046513 0.0
    vertex 44.20841141692193 189.34567633526987 0.002000000094996546
    vertex 44.854415140066536 189.87567511456677 0.002000000094996546
  endloop
endfacet
facet normal -0.0 1.0 -0.0
  outer loop
    vertex 56.24641343108224 205.86967841046516 10.000000145053507
    vertex 56.24641343108224 205.86967841046516 0.002000000094996546
    vertex 46.098410806570406 205.86967841046516 10.000000145053507
  endloop
endfacet
facet normal -0.9558818211377896 0.2937515004528536 0.0
  outer loop
    vertex 46.016417703543055 192.04967871564097 10.000000145053507
    vertex 45.772414407644625 191.25567999737927 0.002000000094996546
    vertex 45.772414407644625 191.25567999737927 10.000000145053507
  endloop
endfacet
facet normal -0.0002066001244962386 0.00010947542903935934 -0.9999999726657592
  outer loop
    vertex 55.248412332449384 190.86967841046513 0.0
    vertex 45.38241501799621 190.51967993634412 0.002000000094996546
    vertex 45.772414407644625 191.25567999737927 0.002000000094996546
  endloop
endfacet
facet normal 1.0 -0.0 -0.0
  outer loop
    vertex 37.596411905203276 205.86967841046516 10.000000145053507
    vertex 37.596411905203276 192.8796805466956 10.000000145053507
    vertex 37.596411905203276 205.86967841046516 0.002000000094996546
  endloop
endfacet
facet normal 0.4682180505413596 0.8836129566429235 -4.3149575811898044e-18
  outer loop
    vertex 40.222415170584085 188.95567694562146 10.000000145053507
    vertex 40.222415170584085 188.95567694562146 0.002000000094996546
    vertex 39.48641510954898 189.34567633526987 10.000000145053507
  endloop
endfacet
facet normal -0.2908705902333749 0.956762405060571 -0.0
  outer loop
    vertex 42.67641373625792 188.71368018048477 10.000000145053507
    vertex 43.47241517058409 188.95567694562146 0.002000000094996546
    vertex 42.67641373625792 188.71368018048477 0.002000000094996546
  endloop
endfacet
facet normal -0.000186562840272129 0.0001457459972336401 -0.999999971976205
  outer loop
    vertex 56.24641343108224 205.86967841046516 0.002000000094996546
    vertex 55.248412332449384 190.86967841046513 0.0
    vertex 46.098410806570406 192.8796805466956 0.002000000094996546
  endloop
endfacet
facet normal -0.29087059023337486 0.956762405060571 -1.9971770256913324e-18
  outer loop
    vertex 43.47241517058409 188.95567694562146 10.000000145053507
    vertex 43.47241517058409 188.95567694562146 0.002000000094996546
    vertex 42.67641373625792 188.71368018048477 10.000000145053507
  endloop
endfacet
facet normal -0.6342768743738691 0.7731059737413203 -0.0
  outer loop
    vertex 44.854415140066536 189.87567511456677 10.000000145053507
    vertex 44.854415140066536 189.87567511456677 0.002000000094996546
    vertex 44.20841141692193 189.34567633526987 10.000000145053507
  endloop
endfacet
facet normal -0.10093088636613042 0.994893439609161 -9.596811987705474e-19
  outer loop
    vertex 41.84841462126769 188.62968054669568 10.000000145053507
    vertex 42.67641373625792 188.71368018048477 0.002000000094996546
    vertex 41.84841462126769 188.62968054669568 0.002000000094996546
  endloop
endfacet
facet normal -0.9558818211377896 0.2937515004528536 0.0
  outer loop
    vertex 46.016417703543055 192.04967871564097 0.002000000094996546
    vertex 45.772414407644625 191.25567999737927 0.002000000094996546
    vertex 46.016417703543055 192.04967871564097 10.000000145053507
  endloop
endfacet
facet normal 0.0 0.0 -1.0
  outer loop
    vertex 56.24641343108224 205.86967841046516 0.002000000094996546
    vertex 46.098410806570406 192.8796805466956 0.002000000094996546
    vertex 46.098410806570406 205.86967841046516 0.002000000094996546
  endloop
endfacet
facet normal -0.9873597252875576 0.1584953402472101 -4.171051970386353e-17
  outer loop
    vertex 32.246413431082175 205.86967841046516 10.000000145053507
    vertex 0.0 4.988000392913818 0.0
    vertex 0.0 4.988000392913818 9.998000144958496
  endloop
endfacet
facet normal -0.9873597252875576 0.1584953402472101 -4.171051970386353e-17
  outer loop
    vertex 0.0 4.988000392913818 0.0
    vertex 32.246413431082175 205.86967841046516 10.000000145053507
    vertex 32.246413431082175 205.86967841046516 0.002000000094996546
  endloop
endfacet
facet normal -2.1021542671404793e-06 -1.001189146951131e-05 0.9999999999476716
  outer loop
    vertex 9.998000144958496 -9.100000381469725 9.998000144958496
    vertex 32.246413431082175 205.86967841046516 10.000000145053507
    vertex 0.0 4.988000392913818 9.998000144958496
  endloop
endfacet
facet normal -2.1021542671404793e-06 -1.001189146951131e-05 0.9999999999476716
  outer loop
    vertex 32.246413431082175 205.86967841046516 10.000000145053507
    vertex 9.998000144958496 -9.100000381469725 9.998000144958496
    vertex 18.398000717163082 -9.100000381469725 9.998000144958496
  endloop
endfacet
facet normal -2.1021542671404793e-06 -1.001189146951131e-05 0.9999999999476716
  outer loop
    vertex 32.246413431082175 205.86967841046516 10.000000145053507
    vertex 18.398000717163082 -9.100000381469725 9.998000144958496
    vertex 33.39800262451172 3.000000238418579 9.998000144958496
  endloop
endfacet
facet normal -2.1021542671404793e-06 -1.001189146951131e-05 0.9999999999476716
  outer loop
    vertex 32.246413431082175 205.86967841046516 10.000000145053507
    vertex 33.39800262451172 3.000000238418579 9.998000144958496
    vertex 37.596411905203276 192.8796805466956 10.000000145053507
  endloop
endfacet
facet normal -2.1021542671404793e-06 -1.001189146951131e-05 0.9999999999476716
  outer loop
    vertex 37.596411905203276 192.8796805466956 10.000000145053507
    vertex 33.39800262451172 3.000000238418579 9.998000144958496
    vertex 37.67841263762513 192.04967871564097 10.000000145053507
  endloop
endfacet
facet normal -2.1021542671404793e-06 -1.001189146951131e-05 0.9999999999476716
  outer loop
    vertex 37.67841263762513 192.04967871564097 10.000000145053507
    vertex 33.39800262451172 3.000000238418579 9.998000144958496
    vertex 37.92241211882631 191.25567999737927 10.000000145053507
  endloop
endfacet
facet normal -2.1021542671404793e-06 -1.001189146951131e-05 0.9999999999476716
  outer loop
    vertex 37.92241211882631 191.25567999737927 10.000000145053507
    vertex 33.39800262451172 3.000000238418579 9.998000144958496
    vertex 38.31241532317203 190.51967993634412 10.000000145053507
  endloop
endfacet
facet normal -2.1021542671404793e-06 -1.001189146951131e-05 0.9999999999476716
  outer loop
    vertex 38.31241532317203 190.51967993634412 10.000000145053507
    vertex 33.39800262451172 3.000000238418579 9.998000144958496
    vertex 38.84041520110173 189.87567511456677 10.000000145053507
  endloop
endfacet
facet normal -2.1021542671404793e-06 -1.001189146951131e-05 0.9999999999476716
  outer loop
    vertex 38.84041520110173 189.87567511456677 10.000000145053507
    vertex 33.39800262451172 3.000000238418579 9.998000144958496
    vertex 39.48641510954898 189.34567633526987 10.000000145053507
  endloop
endfacet
facet normal -2.1021542671404793e-06 -1.001189146951131e-05 0.9999999999476716
  outer loop
    vertex 39.48641510954898 189.34567633526987 10.000000145053507
    vertex 33.39800262451172 3.000000238418579 9.998000144958496
    vertex 40.222415170584085 188.95567694562146 10.000000145053507
  endloop
endfacet
facet normal -2.1021542671404793e-06 -1.001189146951131e-05 0.9999999999476716
  outer loop
    vertex 40.222415170584085 188.95567694562146 10.000000145053507
    vertex 33.39800262451172 3.000000238418579 9.998000144958496
    vertex 41.01841279021301 188.71368018048477 10.000000145053507
  endloop
endfacet
facet normal -2.1021542671404793e-06 -1.001189146951131e-05 0.9999999999476716
  outer loop
    vertex 41.01841279021301 188.71368018048477 10.000000145053507
    vertex 33.39800262451172 3.000000238418579 9.998000144958496
    vertex 41.84841462126769 188.62968054669568 10.000000145053507
  endloop
endfacet
facet normal -2.1021542671404793e-06 -1.001189146951131e-05 0.9999999999476716
  outer loop
    vertex 41.84841462126769 188.62968054669568 10.000000145053507
    vertex 33.39800262451172 3.000000238418579 9.998000144958496
    vertex 42.67641373625792 188.71368018048477 10.000000145053507
  endloop
endfacet
facet normal -2.1021542671404793e-06 -1.001189146951131e-05 0.9999999999476716
  outer loop
    vertex 42.67641373625792 188.71368018048477 10.000000145053507
    vertex 33.39800262451172 3.000000238418579 9.998000144958496
    vertex 55.248412332449384 190.86967841046513 10.000000145053507
  endloop
endfacet
facet normal -2.1021542671404793e-06 -1.001189146951131e-05 0.9999999999476716
  outer loop
    vertex 42.67641373625792 188.71368018048477 10.000000145053507
    vertex 55.248412332449384 190.86967841046513 10.000000145053507
    vertex 43.47241517058409 188.95567694562146 10.000000145053507
  endloop
endfacet
facet normal -2.363617691233376e-05 1.2170585415627528e-05 -0.999999999646604
  outer loop
    vertex 32.246413431082175 205.86967841046516 0.002000000094996546
    vertex 9.998000144958496 -9.100000381469725 0.0
    vertex 0.0 4.988000392913818 0.0
  endloop
endfacet
facet normal -2.363617691233376e-05 1.2170585415627528e-05 -0.999999999646604
  outer loop
    vertex 9.998000144958496 -9.100000381469725 0.0
    vertex 32.246413431082175 205.86967841046516 0.002000000094996546
    vertex 18.398000717163082 -9.100000381469725 0.0
  endloop
endfacet
facet normal -2.363617691233376e-05 1.2170585415627528e-05 -0.999999999646604
  outer loop
    vertex 18.398000717163082 -9.100000381469725 0.0
    vertex 32.246413431082175 205.86967841046516 0.002000000094996546
    vertex 33.20000076293945 3.000000238418579 0.0
  endloop
endfacet
facet normal -2.363617691233376e-05 1.2170585415627528e-05 -0.999999999646604
  outer loop
    vertex 33.20000076293945 3.000000238418579 0.0
    vertex 32.246413431082175 205.86967841046516 0.002000000094996546
    vertex 37.596411905203276 192.8796805466956 0.002000000094996546
  endloop
endfacet
facet normal -2.363617691233376e-05 1.2170585415627528e-05 -0.999999999646604
  outer loop
    vertex 33.20000076293945 3.000000238418579 0.0
    vertex 37.596411905203276 192.8796805466956 0.002000000094996546
    vertex 33.39800262451172 3.000000238418579 0.0
  endloop
endfacet
facet normal -2.363617691233376e-05 1.2170585415627528e-05 -0.999999999646604
  outer loop
    vertex 33.39800262451172 3.000000238418579 0.0
    vertex 37.596411905203276 192.8796805466956 0.002000000094996546
    vertex 37.67841263762513 192.04967871564097 0.002000000094996546
  endloop
endfacet
facet normal -2.363617691233376e-05 1.2170585415627528e-05 -0.999999999646604
  outer loop
    vertex 33.39800262451172 3.000000238418579 0.0
    vertex 37.67841263762513 192.04967871564097 0.002000000094996546
    vertex 37.92241211882631 191.25567999737927 0.002000000094996546
  endloop
endfacet
facet normal -2.363617691233376e-05 1.2170585415627528e-05 -0.999999999646604
  outer loop
    vertex 33.39800262451172 3.000000238418579 0.0
    vertex 37.92241211882631 191.25567999737927 0.002000000094996546
    vertex 38.31241532317203 190.51967993634412 0.002000000094996546
  endloop
endfacet
facet normal -2.363617691233376e-05 1.2170585415627528e-05 -0.999999999646604
  outer loop
    vertex 33.39800262451172 3.000000238418579 0.0
    vertex 38.31241532317203 190.51967993634412 0.002000000094996546
    vertex 38.84041520110173 189.87567511456677 0.002000000094996546
  endloop
endfacet
facet normal -2.363617691233376e-05 1.2170585415627528e-05 -0.999999999646604
  outer loop
    vertex 33.39800262451172 3.000000238418579 0.0
    vertex 38.84041520110173 189.87567511456677 0.002000000094996546
    vertex 39.48641510954898 189.34567633526987 0.002000000094996546
  endloop
endfacet
facet normal -2.363617691233376e-05 1.2170585415627528e-05 -0.999999999646604
  outer loop
    vertex 33.39800262451172 3.000000238418579 0.0
    vertex 39.48641510954898 189.34567633526987 0.002000000094996546
    vertex 40.222415170584085 188.95567694562146 0.002000000094996546
  endloop
endfacet
facet normal -2.363617691233376e-05 1.2170585415627528e-05 -0.999999999646604
  outer loop
    vertex 33.39800262451172 3.000000238418579 0.0
    vertex 40.222415170584085 188.95567694562146 0.002000000094996546
    vertex 41.01841279021301 188.71368018048477 0.002000000094996546
  endloop
endfacet
facet normal -2.363617691233376e-05 1.2170585415627528e-05 -0.999999999646604
  outer loop
    vertex 33.39800262451172 3.000000238418579 0.0
    vertex 41.01841279021301 188.71368018048477 0.002000000094996546
    vertex 41.84841462126769 188.62968054669568 0.002000000094996546
  endloop
endfacet
facet normal -2.363617691233376e-05 1.2170585415627528e-05 -0.999999999646604
  outer loop
    vertex 33.39800262451172 3.000000238418579 0.0
    vertex 41.84841462126769 188.62968054669568 0.002000000094996546
    vertex 42.67641373625792 188.71368018048477 0.002000000094996546
  endloop
endfacet
facet normal -2.363617691233376e-05 1.2170585415627528e-05 -0.999999999646604
  outer loop
    vertex 33.39800262451172 3.000000238418579 0.0
    vertex 42.67641373625792 188.71368018048477 0.002000000094996546
    vertex 55.248412332449384 190.86967841046513 0.0
  endloop
endfacet
facet normal -2.363617691233376e-05 1.2170585415627528e-05 -0.999999999646604
  outer loop
    vertex 55.248412332449384 190.86967841046513 0.0
    vertex 42.67641373625792 188.71368018048477 0.002000000094996546
    vertex 43.47241517058409 188.95567694562146 0.002000000094996546
  endloop
endfacet
facet normal 0.9933042873772692 -0.11552745421732338 -2.205213456734049e-17
  outer loop
    vertex 55.248412332449384 190.86967841046513 0.0
    vertex 33.39800262451172 3.000000238418579 9.998000144958496
    vertex 33.39800262451172 3.000000238418579 0.0
  endloop
endfacet
facet normal 0.9933042873772692 -0.11552745421732338 -2.205213456734049e-17
  outer loop
    vertex 33.39800262451172 3.000000238418579 9.998000144958496
    vertex 55.248412332449384 190.86967841046513 0.0
    vertex 55.248412332449384 190.86967841046513 10.000000145053507
  endloop
endfacet
endsolid Spool
