solid Spool
facet normal -1.0 0.0 0.0
  outer loop
    vertex 0.0 4.988000392913818 0.0
    vertex 0.0 -49.000003814697266 0.0
    vertex 0.0 4.988000392913818 9.998000144958496
  endloop
endfacet
facet normal -1.0 0.0 0.0
  outer loop
    vertex 0.0 4.988000392913818 9.998000144958496
    vertex 0.0 -49.000003814697266 0.0
    vertex 0.0 -49.000003814697266 9.998000144958496
  endloop
endfacet
facet normal 0.0 0.0 -1.0
  outer loop
    vertex 9.998000144958496 -49.000003814697266 0.0
    vertex 0.0 -49.000003814697266 0.0
    vertex 9.998000144958496 -9.100000381469725 0.0
  endloop
endfacet
facet normal 0.0 0.0 -1.0
  outer loop
    vertex 33.39800262451172 -49.000003814697266 0.0
    vertex 18.398000717163082 -49.000003814697266 0.0
    vertex 18.398000717163082 -9.100000381469725 0.0
  endloop
endfacet
facet normal 0.0 0.0 -1.0
  outer loop
    vertex 33.39800262451172 3.000000238418579 0.0
    vertex 18.398000717163082 -9.100000381469725 0.0
    vertex 33.20000076293945 3.000000238418579 0.0
  endloop
endfacet
facet normal 0.0 0.0 -1.0
  outer loop
    vertex 33.39800262451172 -49.000003814697266 0.0
    vertex 18.398000717163082 -9.100000381469725 0.0
    vertex 33.39800262451172 3.000000238418579 0.0
  endloop
endfacet
facet normal 0.0 0.0 -1.0
  outer loop
    vertex 9.998000144958496 -9.100000381469725 0.0
    vertex 0.0 -49.000003814697266 0.0
    vertex 0.0 4.988000392913818 0.0
  endloop
endfacet
facet normal -0.0 -0.0 1.0
  outer loop
    vertex 33.39800262451172 -49.000003814697266 9.998000144958496
    vertex 18.398000717163082 -9.100000381469725 9.998000144958496
    vertex 18.398000717163082 -49.000003814697266 9.998000144958496
  endloop
endfacet
facet normal -0.0 -0.0 1.0
  outer loop
    vertex 33.39800262451172 3.000000238418579 9.998000144958496
    vertex 18.398000717163082 -9.100000381469725 9.998000144958496
    vertex 33.39800262451172 -49.000003814697266 9.998000144958496
  endloop
endfacet
facet normal -0.0 -0.0 1.0
  outer loop
    vertex 9.998000144958496 -9.100000381469725 9.998000144958496
    vertex 0.0 4.988000392913818 9.998000144958496
    vertex 0.0 -49.000003814697266 9.998000144958496
  endloop
endfacet
facet normal -0.0 -0.0 1.0
  outer loop
    vertex 9.998000144958496 -9.100000381469725 9.998000144958496
    vertex 0.0 -49.000003814697266 9.998000144958496
    vertex 9.998000144958496 -49.000003814697266 9.998000144958496
  endloop
endfacet
facet normal 1.0 -0.0 -0.0
  outer loop
    vertex 33.39800262451172 -36.522003173828125 4.696000099182129
    vertex 33.39800262451172 -36.552001953125 4.999999999999999
    vertex 33.39800262451172 -49.000003814697266 0.0
  endloop
endfacet
facet normal 1.0 -0.0 -0.0
  outer loop
    vertex 33.39800262451172 -35.59400177001953 6.432000160217284
    vertex 33.39800262451172 -49.000003814697266 9.998000144958496
    vertex 33.39800262451172 -35.862003326416016 6.2880001068115225
  endloop
endfacet
facet normal 1.0 -0.0 -0.0
  outer loop
    vertex 33.39800262451172 -36.552001953125 4.999999999999999
    vertex 33.39800262451172 -49.000003814697266 9.998000144958496
    vertex 33.39800262451172 -49.000003814697266 0.0
  endloop
endfacet
facet normal 1.0 -0.0 -0.0
  outer loop
    vertex 33.39800262451172 -36.098003387451165 3.902000188827514
    vertex 33.39800262451172 -36.290000915527344 4.138000011444091
    vertex 33.39800262451172 -49.000003814697266 0.0
  endloop
endfacet
facet normal 1.0 -0.0 -0.0
  outer loop
    vertex 33.39800262451172 -36.098003387451165 6.094000339508056
    vertex 33.39800262451172 -49.000003814697266 9.998000144958496
    vertex 33.39800262451172 -36.290000915527344 5.860000133514404
  endloop
endfacet
facet normal 1.0 -0.0 -0.0
  outer loop
    vertex 33.39800262451172 -34.698001861572266 3.478000164031982
    vertex 33.39800262451172 -35.0 3.450000047683716
    vertex 33.39800262451172 -49.000003814697266 0.0
  endloop
endfacet
facet normal 1.0 -0.0 -0.0
  outer loop
    vertex 33.39800262451172 -36.432003021240234 4.406000137329102
    vertex 33.39800262451172 -36.522003173828125 4.696000099182129
    vertex 33.39800262451172 -49.000003814697266 0.0
  endloop
endfacet
facet normal 1.0 -0.0 -0.0
  outer loop
    vertex 33.39800262451172 -36.290000915527344 4.138000011444091
    vertex 33.39800262451172 -36.432003021240234 4.406000137329102
    vertex 33.39800262451172 -49.000003814697266 0.0
  endloop
endfacet
facet normal 1.0 -0.0 -0.0
  outer loop
    vertex 33.39800262451172 3.000000238418579 9.998000144958496
    vertex 33.39800262451172 -33.71200180053711 5.860000133514404
    vertex 33.39800262451172 -33.56999969482422 5.592000484466552
  endloop
endfacet
facet normal 1.0 -0.0 -0.0
  outer loop
    vertex 33.39800262451172 3.000000238418579 0.0
    vertex 33.39800262451172 -34.40800094604492 3.5680000782012935
    vertex 33.39800262451172 -34.698001861572266 3.478000164031982
  endloop
endfacet
facet normal 1.0 -0.0 -0.0
  outer loop
    vertex 33.39800262451172 3.000000238418579 0.0
    vertex 33.39800262451172 -34.1400032043457 3.7120001316070557
    vertex 33.39800262451172 -34.40800094604492 3.5680000782012935
  endloop
endfacet
facet normal 1.0 -0.0 -0.0
  outer loop
    vertex 33.39800262451172 3.000000238418579 0.0
    vertex 33.39800262451172 -33.56999969482422 4.406000137329102
    vertex 33.39800262451172 -33.71200180053711 4.138000011444091
  endloop
endfacet
facet normal 1.0 -0.0 -0.0
  outer loop
    vertex 33.39800262451172 3.000000238418579 0.0
    vertex 33.39800262451172 -33.48000335693359 4.696000099182129
    vertex 33.39800262451172 -33.56999969482422 4.406000137329102
  endloop
endfacet
facet normal 1.0 -0.0 -0.0
  outer loop
    vertex 33.39800262451172 3.000000238418579 0.0
    vertex 33.39800262451172 -33.45000076293945 4.999999999999999
    vertex 33.39800262451172 -33.48000335693359 4.696000099182129
  endloop
endfacet
facet normal 1.0 -0.0 -0.0
  outer loop
    vertex 33.39800262451172 -35.862003326416016 3.7120001316070557
    vertex 33.39800262451172 -36.098003387451165 3.902000188827514
    vertex 33.39800262451172 -49.000003814697266 0.0
  endloop
endfacet
facet normal 1.0 -0.0 -0.0
  outer loop
    vertex 33.39800262451172 3.000000238418579 0.0
    vertex 33.39800262451172 -33.90400314331055 3.902000188827514
    vertex 33.39800262451172 -34.1400032043457 3.7120001316070557
  endloop
endfacet
facet normal 1.0 -0.0 -0.0
  outer loop
    vertex 33.39800262451172 3.000000238418579 9.998000144958496
    vertex 33.39800262451172 -33.90400314331055 6.094000339508056
    vertex 33.39800262451172 -33.71200180053711 5.860000133514404
  endloop
endfacet
facet normal 1.0 -0.0 -0.0
  outer loop
    vertex 33.39800262451172 3.000000238418579 0.0
    vertex 33.39800262451172 -33.71200180053711 4.138000011444091
    vertex 33.39800262451172 -33.90400314331055 3.902000188827514
  endloop
endfacet
facet normal 1.0 -0.0 -0.0
  outer loop
    vertex 33.39800262451172 -35.30400085449219 3.478000164031982
    vertex 33.39800262451172 -35.59400177001953 3.5680000782012935
    vertex 33.39800262451172 -49.000003814697266 0.0
  endloop
endfacet
facet normal 1.0 -0.0 -0.0
  outer loop
    vertex 33.39800262451172 -35.59400177001953 3.5680000782012935
    vertex 33.39800262451172 -35.862003326416016 3.7120001316070557
    vertex 33.39800262451172 -49.000003814697266 0.0
  endloop
endfacet
facet normal 1.0 -0.0 -0.0
  outer loop
    vertex 33.39800262451172 -35.0 3.450000047683716
    vertex 33.39800262451172 -35.30400085449219 3.478000164031982
    vertex 33.39800262451172 -49.000003814697266 0.0
  endloop
endfacet
facet normal 1.0 -0.0 -0.0
  outer loop
    vertex 33.39800262451172 3.000000238418579 9.998000144958496
    vertex 33.39800262451172 -33.56999969482422 5.592000484466552
    vertex 33.39800262451172 -33.48000335693359 5.300000190734862
  endloop
endfacet
facet normal 1.0 -0.0 -0.0
  outer loop
    vertex 33.39800262451172 3.000000238418579 0.0
    vertex 33.39800262451172 -34.698001861572266 3.478000164031982
    vertex 33.39800262451172 -49.000003814697266 0.0
  endloop
endfacet
facet normal 1.0 -0.0 -0.0
  outer loop
    vertex 33.39800262451172 3.000000238418579 9.998000144958496
    vertex 33.39800262451172 -33.45000076293945 4.999999999999999
    vertex 33.39800262451172 3.000000238418579 0.0
  endloop
endfacet
facet normal 1.0 -0.0 -0.0
  outer loop
    vertex 33.39800262451172 3.000000238418579 9.998000144958496
    vertex 33.39800262451172 -33.48000335693359 5.300000190734862
    vertex 33.39800262451172 -33.45000076293945 4.999999999999999
  endloop
endfacet
facet normal 1.0 -0.0 -0.0
  outer loop
    vertex 33.39800262451172 -34.698001861572266 6.520000457763672
    vertex 33.39800262451172 -49.000003814697266 9.998000144958496
    vertex 33.39800262451172 -35.0 6.550000190734863
  endloop
endfacet
facet normal 1.0 -0.0 -0.0
  outer loop
    vertex 33.39800262451172 3.000000238418579 9.998000144958496
    vertex 33.39800262451172 -34.40800094604492 6.432000160217284
    vertex 33.39800262451172 -34.1400032043457 6.2880001068115225
  endloop
endfacet
facet normal 1.0 -0.0 -0.0
  outer loop
    vertex 33.39800262451172 -35.862003326416016 6.2880001068115225
    vertex 33.39800262451172 -49.000003814697266 9.998000144958496
    vertex 33.39800262451172 -36.098003387451165 6.094000339508056
  endloop
endfacet
facet normal 1.0 -0.0 -0.0
  outer loop
    vertex 33.39800262451172 -36.432003021240234 5.592000484466552
    vertex 33.39800262451172 -49.000003814697266 9.998000144958496
    vertex 33.39800262451172 -36.522003173828125 5.300000190734862
  endloop
endfacet
facet normal 1.0 -0.0 -0.0
  outer loop
    vertex 33.39800262451172 -35.0 6.550000190734863
    vertex 33.39800262451172 -49.000003814697266 9.998000144958496
    vertex 33.39800262451172 -35.30400085449219 6.520000457763672
  endloop
endfacet
facet normal 1.0 -0.0 -0.0
  outer loop
    vertex 33.39800262451172 -36.290000915527344 5.860000133514404
    vertex 33.39800262451172 -49.000003814697266 9.998000144958496
    vertex 33.39800262451172 -36.432003021240234 5.592000484466552
  endloop
endfacet
facet normal 1.0 -0.0 -0.0
  outer loop
    vertex 33.39800262451172 3.000000238418579 9.998000144958496
    vertex 33.39800262451172 -34.698001861572266 6.520000457763672
    vertex 33.39800262451172 -34.40800094604492 6.432000160217284
  endloop
endfacet
facet normal 1.0 -0.0 -0.0
  outer loop
    vertex 33.39800262451172 -35.30400085449219 6.520000457763672
    vertex 33.39800262451172 -49.000003814697266 9.998000144958496
    vertex 33.39800262451172 -35.59400177001953 6.432000160217284
  endloop
endfacet
facet normal 1.0 -0.0 -0.0
  outer loop
    vertex 33.39800262451172 3.000000238418579 9.998000144958496
    vertex 33.39800262451172 -34.1400032043457 6.2880001068115225
    vertex 33.39800262451172 -33.90400314331055 6.094000339508056
  endloop
endfacet
facet normal 1.0 -0.0 -0.0
  outer loop
    vertex 33.39800262451172 -36.522003173828125 5.300000190734862
    vertex 33.39800262451172 -49.000003814697266 9.998000144958496
    vertex 33.39800262451172 -36.552001953125 4.999999999999999
  endloop
endfacet
facet normal 1.0 -0.0 -0.0
  outer loop
    vertex 33.39800262451172 3.000000238418579 9.998000144958496
    vertex 33.39800262451172 -49.000003814697266 9.998000144958496
    vertex 33.39800262451172 -34.698001861572266 6.520000457763672
  endloop
endfacet
facet normal 0.0 -1.0 0.0
  outer loop
    vertex 18.398000717163082 -49.000003814697266 9.998000144958496
    vertex 18.398000717163082 -49.000003814697266 0.0
    vertex 33.39800262451172 -49.000003814697266 9.998000144958496
  endloop
endfacet
facet normal 0.0 -1.0 0.0
  outer loop
    vertex 33.39800262451172 -49.000003814697266 9.998000144958496
    vertex 18.398000717163082 -49.000003814697266 0.0
    vertex 33.39800262451172 -49.000003814697266 0.0
  endloop
endfacet
facet normal 0.0 -1.0 0.0
  outer loop
    vertex 9.998000144958496 -49.000003814697266 9.998000144958496
    vertex 0.0 -49.000003814697266 0.0
    vertex 9.998000144958496 -49.000003814697266 0.0
  endloop
endfacet
facet normal 0.0 -1.0 0.0
  outer loop
    vertex 0.0 -49.000003814697266 9.998000144958496
    vertex 0.0 -49.000003814697266 0.0
    vertex 9.998000144958496 -49.000003814697266 9.998000144958496
  endloop
endfacet
facet normal 1.0 -0.0 -0.0
  outer loop
    vertex 9.998000144958496 -9.100000381469725 0.0
    vertex 9.998000144958496 -49.000003814697266 9.998000144958496
    vertex 9.998000144958496 -49.000003814697266 0.0
  endloop
endfacet
facet normal 1.0 -0.0 -0.0
  outer loop
    vertex 9.998000144958496 -9.100000381469725 9.998000144958496
    vertex 9.998000144958496 -49.000003814697266 9.998000144958496
    vertex 9.998000144958496 -9.100000381469725 0.0
  endloop
endfacet
facet normal -1.0 0.0 0.0
  outer loop
    vertex 18.398000717163082 -9.100000381469725 0.0
    vertex 18.398000717163082 -35.0 1.5000001192092896
    vertex 18.398000717163082 -32.374000549316406 3.0160000324249268
  endloop
endfacet
facet normal -1.0 0.0 0.0
  outer loop
    vertex 18.398000717163082 -9.100000381469725 0.0
    vertex 18.398000717163082 -31.97000122070312 3.248000144958496
    vertex 18.398000717163082 -9.100000381469725 9.998000144958496
  endloop
endfacet
facet normal -1.0 0.0 0.0
  outer loop
    vertex 18.398000717163082 -9.100000381469725 9.998000144958496
    vertex 18.398000717163082 -34.59800338745117 8.266000747680664
    vertex 18.398000717163082 -35.0 8.498000144958496
  endloop
endfacet
facet normal -1.0 0.0 0.0
  outer loop
    vertex 18.398000717163082 -9.100000381469725 9.998000144958496
    vertex 18.398000717163082 -35.0 8.498000144958496
    vertex 18.398000717163082 -49.000003814697266 9.998000144958496
  endloop
endfacet
facet normal -1.0 0.0 0.0
  outer loop
    vertex 18.398000717163082 -35.0 8.498000144958496
    vertex 18.398000717163082 -38.03200149536133 6.750000476837158
    vertex 18.398000717163082 -49.000003814697266 9.998000144958496
  endloop
endfacet
facet normal -1.0 0.0 0.0
  outer loop
    vertex 18.398000717163082 -9.100000381469725 9.998000144958496
    vertex 18.398000717163082 -31.97000122070312 6.750000476837158
    vertex 18.398000717163082 -34.59800338745117 8.266000747680664
  endloop
endfacet
facet normal -1.0 0.0 0.0
  outer loop
    vertex 18.398000717163082 -38.03200149536133 6.750000476837158
    vertex 18.398000717163082 -49.000003814697266 0.0
    vertex 18.398000717163082 -49.000003814697266 9.998000144958496
  endloop
endfacet
facet normal -1.0 0.0 0.0
  outer loop
    vertex 18.398000717163082 -38.03200149536133 3.248000144958496
    vertex 18.398000717163082 -49.000003814697266 0.0
    vertex 18.398000717163082 -38.03200149536133 6.750000476837158
  endloop
endfacet
facet normal -1.0 0.0 0.0
  outer loop
    vertex 18.398000717163082 -9.100000381469725 9.998000144958496
    vertex 18.398000717163082 -31.97000122070312 3.248000144958496
    vertex 18.398000717163082 -31.97000122070312 6.750000476837158
  endloop
endfacet
facet normal -1.0 0.0 0.0
  outer loop
    vertex 18.398000717163082 -9.100000381469725 0.0
    vertex 18.398000717163082 -49.000003814697266 0.0
    vertex 18.398000717163082 -35.0 1.5000001192092896
  endloop
endfacet
facet normal -1.0 0.0 0.0
  outer loop
    vertex 18.398000717163082 -35.0 1.5000001192092896
    vertex 18.398000717163082 -49.000003814697266 0.0
    vertex 18.398000717163082 -37.62800216674805 3.0160000324249268
  endloop
endfacet
facet normal -1.0 0.0 0.0
  outer loop
    vertex 18.398000717163082 -9.100000381469725 0.0
    vertex 18.398000717163082 -32.374000549316406 3.0160000324249268
    vertex 18.398000717163082 -31.97000122070312 3.248000144958496
  endloop
endfacet
facet normal -1.0 0.0 0.0
  outer loop
    vertex 18.398000717163082 -37.62800216674805 3.0160000324249268
    vertex 18.398000717163082 -49.000003814697266 0.0
    vertex 18.398000717163082 -38.03200149536133 3.248000144958496
  endloop
endfacet
facet normal 0.0 -1.0 0.0
  outer loop
    vertex 9.998000144958496 -9.100000381469725 9.998000144958496
    vertex 9.998000144958496 -9.100000381469725 0.0
    vertex 18.398000717163082 -9.100000381469725 9.998000144958496
  endloop
endfacet
facet normal 0.0 -1.0 0.0
  outer loop
    vertex 18.398000717163082 -9.100000381469725 9.998000144958496
    vertex 9.998000144958496 -9.100000381469725 0.0
    vertex 18.398000717163082 -9.100000381469725 0.0
  endloop
endfacet
facet normal -0.0 -0.0923202318644697 0.9957293682464581
  outer loop
    vertex 33.39800262451172 -35.0 3.450000047683716
    vertex 21.000001907348633 -34.698001861572266 3.478000164031982
    vertex 21.000001907348633 -35.0 3.450000047683716
  endloop
endfacet
facet normal -0.0 -0.09232023186446972 0.9957293682464581
  outer loop
    vertex 33.39800262451172 -34.698001861572266 3.478000164031982
    vertex 21.000001907348633 -34.698001861572266 3.478000164031982
    vertex 33.39800262451172 -35.0 3.450000047683716
  endloop
endfacet
facet normal -2.932731622891231e-19 -0.09885094646952507 -0.9951022512194811
  outer loop
    vertex 33.39800262451172 -35.0 6.550000190734863
    vertex 21.000001907348633 -35.0 6.550000190734863
    vertex 33.39800262451172 -34.698001861572266 6.520000457763672
  endloop
endfacet
facet normal -5.865463245782464e-19 -0.09885094646952504 -0.9951022512194811
  outer loop
    vertex 33.39800262451172 -34.698001861572266 6.520000457763672
    vertex 21.000001907348633 -35.0 6.550000190734863
    vertex 21.000001907348633 -34.698001861572266 6.520000457763672
  endloop
endfacet
facet normal 2.971727803086511e-19 -0.9950363445839593 -0.09951217491841145
  outer loop
    vertex 21.000001907348633 -33.48000335693359 5.300000190734862
    vertex 21.000001907348633 -33.45000076293945 4.999999999999999
    vertex 33.39800262451172 -33.48000335693359 5.300000190734862
  endloop
endfacet
facet normal 0.0 -0.9950363445839593 -0.09951217491841144
  outer loop
    vertex 33.39800262451172 -33.48000335693359 5.300000190734862
    vertex 21.000001907348633 -33.45000076293945 4.999999999999999
    vertex 33.39800262451172 -33.45000076293945 4.999999999999999
  endloop
endfacet
facet normal -2.894422707968738e-19 0.9951663794433844 0.09820324447565876
  outer loop
    vertex 21.000001907348633 -36.552001953125 4.999999999999999
    vertex 33.39800262451172 -36.522003173828125 4.696000099182129
    vertex 21.000001907348633 -36.522003173828125 4.696000099182129
  endloop
endfacet
facet normal -0.0 0.9951663794433844 0.09820324447565877
  outer loop
    vertex 33.39800262451172 -36.552001953125 4.999999999999999
    vertex 33.39800262451172 -36.522003173828125 4.696000099182129
    vertex 21.000001907348633 -36.552001953125 4.999999999999999
  endloop
endfacet
facet normal -1.4912342782133155e-18 -0.6350180439090115 -0.7724973034968943
  outer loop
    vertex 33.39800262451172 -34.1400032043457 6.2880001068115225
    vertex 21.000001907348633 -34.1400032043457 6.2880001068115225
    vertex 33.39800262451172 -33.90400314331055 6.094000339508056
  endloop
endfacet
facet normal 0.0 -0.6350180439090116 -0.7724973034968942
  outer loop
    vertex 33.39800262451172 -33.90400314331055 6.094000339508056
    vertex 21.000001907348633 -34.1400032043457 6.2880001068115225
    vertex 21.000001907348633 -33.90400314331055 6.094000339508056
  endloop
endfacet
facet normal -1.3227335074795686e-18 -0.8836243381773565 -0.4681965708766229
  outer loop
    vertex 21.000001907348633 -33.71200180053711 5.860000133514404
    vertex 21.000001907348633 -33.56999969482422 5.592000484466552
    vertex 33.39800262451172 -33.71200180053711 5.860000133514404
  endloop
endfacet
facet normal -1.3227335074795692e-18 -0.8836243381773567 -0.468196570876623
  outer loop
    vertex 33.39800262451172 -33.71200180053711 5.860000133514404
    vertex 21.000001907348633 -33.56999969482422 5.592000484466552
    vertex 33.39800262451172 -33.56999969482422 5.592000484466552
  endloop
endfacet
facet normal -1.3186275771527344e-18 0.47331360382539894 0.8808939961390437
  outer loop
    vertex 33.39800262451172 -35.862003326416016 3.7120001316070557
    vertex 21.000001907348633 -35.59400177001953 3.5680000782012935
    vertex 21.000001907348633 -35.862003326416016 3.7120001316070557
  endloop
endfacet
facet normal 1.3186275771527344e-18 0.47331360382539894 0.8808939961390435
  outer loop
    vertex 33.39800262451172 -35.59400177001953 3.5680000782012935
    vertex 21.000001907348633 -35.59400177001953 3.5680000782012935
    vertex 33.39800262451172 -35.862003326416016 3.7120001316070557
  endloop
endfacet
facet normal 6.1048795134893e-19 -0.2963981035167336 0.9550644817140274
  outer loop
    vertex 33.39800262451172 -34.698001861572266 3.478000164031982
    vertex 21.000001907348633 -34.40800094604492 3.5680000782012935
    vertex 21.000001907348633 -34.698001861572266 3.478000164031982
  endloop
endfacet
facet normal 6.104879513489301e-19 -0.2963981035167336 0.9550644817140274
  outer loop
    vertex 33.39800262451172 -34.40800094604492 3.5680000782012935
    vertex 21.000001907348633 -34.40800094604492 3.5680000782012935
    vertex 33.39800262451172 -34.698001861572266 3.478000164031982
  endloop
endfacet
facet normal -0.0 -0.6271071226830134 0.778933024515094
  outer loop
    vertex 33.39800262451172 -34.1400032043457 3.7120001316070557
    vertex 21.000001907348633 -33.90400314331055 3.902000188827514
    vertex 21.000001907348633 -34.1400032043457 3.7120001316070557
  endloop
endfacet
facet normal -0.0 -0.6271071226830134 0.778933024515094
  outer loop
    vertex 33.39800262451172 -33.90400314331055 3.902000188827514
    vertex 21.000001907348633 -33.90400314331055 3.902000188827514
    vertex 33.39800262451172 -34.1400032043457 3.7120001316070557
  endloop
endfacet
facet normal 0.0 -0.9951651589633588 0.0982156117194861
  outer loop
    vertex 21.000001907348633 -33.45000076293945 4.999999999999999
    vertex 21.000001907348633 -33.48000335693359 4.696000099182129
    vertex 33.39800262451172 -33.45000076293945 4.999999999999999
  endloop
endfacet
facet normal 2.8944191582255253e-19 -0.9951651589633588 0.0982156117194861
  outer loop
    vertex 33.39800262451172 -33.45000076293945 4.999999999999999
    vertex 21.000001907348633 -33.48000335693359 4.696000099182129
    vertex 33.39800262451172 -33.48000335693359 4.696000099182129
  endloop
endfacet
facet normal 1.3227293164530378e-18 -0.8836246828121239 0.46819592044909325
  outer loop
    vertex 21.000001907348633 -33.56999969482422 4.406000137329102
    vertex 21.000001907348633 -33.71200180053711 4.138000011444091
    vertex 33.39800262451172 -33.56999969482422 4.406000137329102
  endloop
endfacet
facet normal 1.3227293164530386e-18 -0.8836246828121239 0.46819592044909336
  outer loop
    vertex 33.39800262451172 -33.56999969482422 4.406000137329102
    vertex 21.000001907348633 -33.71200180053711 4.138000011444091
    vertex 33.39800262451172 -33.71200180053711 4.138000011444091
  endloop
endfacet
facet normal 0.0 -0.4733188316758263 -0.8808911871400638
  outer loop
    vertex 33.39800262451172 -34.40800094604492 6.432000160217284
    vertex 21.000001907348633 -34.40800094604492 6.432000160217284
    vertex 33.39800262451172 -34.1400032043457 6.2880001068115225
  endloop
endfacet
facet normal 0.0 -0.4733188316758263 -0.8808911871400638
  outer loop
    vertex 33.39800262451172 -34.1400032043457 6.2880001068115225
    vertex 21.000001907348633 -34.40800094604492 6.432000160217284
    vertex 21.000001907348633 -34.1400032043457 6.2880001068115225
  endloop
endfacet
facet normal -6.116697422909206e-19 -0.29037375875867283 -0.9569133086253739
  outer loop
    vertex 33.39800262451172 -34.698001861572266 6.520000457763672
    vertex 21.000001907348633 -34.698001861572266 6.520000457763672
    vertex 33.39800262451172 -34.40800094604492 6.432000160217284
  endloop
endfacet
facet normal 6.116697422909209e-19 -0.2903737587586729 -0.956913308625374
  outer loop
    vertex 33.39800262451172 -34.40800094604492 6.432000160217284
    vertex 21.000001907348633 -34.698001861572266 6.520000457763672
    vertex 21.000001907348633 -34.40800094604492 6.432000160217284
  endloop
endfacet
facet normal 0.0 -0.7730714689327398 -0.6343189291848197
  outer loop
    vertex 21.000001907348633 -33.90400314331055 6.094000339508056
    vertex 21.000001907348633 -33.71200180053711 5.860000133514404
    vertex 33.39800262451172 -33.90400314331055 6.094000339508056
  endloop
endfacet
facet normal 1.5179599122850955e-18 -0.7730714689327396 -0.6343189291848198
  outer loop
    vertex 33.39800262451172 -33.90400314331055 6.094000339508056
    vertex 21.000001907348633 -33.71200180053711 5.860000133514404
    vertex 33.39800262451172 -33.71200180053711 5.860000133514404
  endloop
endfacet
facet normal -6.025197145084499e-19 -0.9556408314550864 -0.2945345501903491
  outer loop
    vertex 21.000001907348633 -33.56999969482422 5.592000484466552
    vertex 21.000001907348633 -33.48000335693359 5.300000190734862
    vertex 33.39800262451172 -33.56999969482422 5.592000484466552
  endloop
endfacet
facet normal 0.0 -0.9556408314550864 -0.294534550190349
  outer loop
    vertex 33.39800262451172 -33.56999969482422 5.592000484466552
    vertex 21.000001907348633 -33.48000335693359 5.300000190734862
    vertex 33.39800262451172 -33.48000335693359 5.300000190734862
  endloop
endfacet
facet normal -0.0 0.6271071226830225 0.7789330245150868
  outer loop
    vertex 33.39800262451172 -36.098003387451165 3.902000188827514
    vertex 21.000001907348633 -35.862003326416016 3.7120001316070557
    vertex 21.000001907348633 -36.098003387451165 3.902000188827514
  endloop
endfacet
facet normal -0.0 0.6271071226830224 0.7789330245150868
  outer loop
    vertex 33.39800262451172 -35.862003326416016 3.7120001316070557
    vertex 21.000001907348633 -35.862003326416016 3.7120001316070557
    vertex 33.39800262451172 -36.098003387451165 3.902000188827514
  endloop
endfacet
facet normal -1.3186609113155028e-18 -0.47331883167582633 0.8808911871400638
  outer loop
    vertex 33.39800262451172 -34.40800094604492 3.5680000782012935
    vertex 21.000001907348633 -34.1400032043457 3.7120001316070557
    vertex 21.000001907348633 -34.40800094604492 3.5680000782012935
  endloop
endfacet
facet normal -1.318660911315503e-18 -0.47331883167582633 0.8808911871400638
  outer loop
    vertex 33.39800262451172 -34.1400032043457 3.7120001316070557
    vertex 21.000001907348633 -34.1400032043457 3.7120001316070557
    vertex 33.39800262451172 -34.40800094604492 3.5680000782012935
  endloop
endfacet
facet normal 2.994875474651878e-18 -0.7757092858566003 0.6310904086070738
  outer loop
    vertex 21.000001907348633 -33.71200180053711 4.138000011444091
    vertex 21.000001907348633 -33.90400314331055 3.902000188827514
    vertex 33.39800262451172 -33.71200180053711 4.138000011444091
  endloop
endfacet
facet normal 1.4974377373259393e-18 -0.7757092858566003 0.6310904086070738
  outer loop
    vertex 33.39800262451172 -33.71200180053711 4.138000011444091
    vertex 21.000001907348633 -33.90400314331055 3.902000188827514
    vertex 33.39800262451172 -33.90400314331055 3.902000188827514
  endloop
endfacet
facet normal 0.0 -0.9550675398176225 0.29638824940728387
  outer loop
    vertex 21.000001907348633 -33.48000335693359 4.696000099182129
    vertex 21.000001907348633 -33.56999969482422 4.406000137329102
    vertex 33.39800262451172 -33.48000335693359 4.696000099182129
  endloop
endfacet
facet normal -6.104939213615757e-19 -0.9550675398176225 0.2963882494072838
  outer loop
    vertex 33.39800262451172 -33.48000335693359 4.696000099182129
    vertex 21.000001907348633 -33.56999969482422 4.406000137329102
    vertex 33.39800262451172 -33.56999969482422 4.406000137329102
  endloop
endfacet
facet normal -6.1048795134893e-19 0.2963981035167336 0.9550644817140274
  outer loop
    vertex 33.39800262451172 -35.59400177001953 3.5680000782012935
    vertex 21.000001907348633 -35.30400085449219 3.478000164031982
    vertex 21.000001907348633 -35.59400177001953 3.5680000782012935
  endloop
endfacet
facet normal -6.104879513489301e-19 0.2963981035167336 0.9550644817140274
  outer loop
    vertex 33.39800262451172 -35.30400085449219 3.478000164031982
    vertex 21.000001907348633 -35.30400085449219 3.478000164031982
    vertex 33.39800262451172 -35.59400177001953 3.5680000782012935
  endloop
endfacet
facet normal 2.8962040664865935e-19 0.09171717176404713 0.995785097500261
  outer loop
    vertex 33.39800262451172 -35.30400085449219 3.478000164031982
    vertex 21.000001907348633 -35.0 3.450000047683716
    vertex 21.000001907348633 -35.30400085449219 3.478000164031982
  endloop
endfacet
facet normal 2.8962040664865945e-19 0.09171717176404715 0.995785097500261
  outer loop
    vertex 33.39800262451172 -35.0 3.450000047683716
    vertex 21.000001907348633 -35.0 3.450000047683716
    vertex 33.39800262451172 -35.30400085449219 3.478000164031982
  endloop
endfacet
facet normal -1.318627577152734e-18 0.47331360382539905 -0.8808939961390435
  outer loop
    vertex 33.39800262451172 -35.862003326416016 6.2880001068115225
    vertex 21.000001907348633 -35.862003326416016 6.2880001068115225
    vertex 33.39800262451172 -35.59400177001953 6.432000160217284
  endloop
endfacet
facet normal 0.0 0.47331360382539894 -0.8808939961390437
  outer loop
    vertex 33.39800262451172 -35.59400177001953 6.432000160217284
    vertex 21.000001907348633 -35.862003326416016 6.2880001068115225
    vertex 21.000001907348633 -35.59400177001953 6.432000160217284
  endloop
endfacet
facet normal -0.0 0.9550639835202684 0.2963997088095681
  outer loop
    vertex 21.000001907348633 -36.522003173828125 4.696000099182129
    vertex 33.39800262451172 -36.432003021240234 4.406000137329102
    vertex 21.000001907348633 -36.432003021240234 4.406000137329102
  endloop
endfacet
facet normal 6.10491648121384e-19 0.9550639835202684 0.2963997088095682
  outer loop
    vertex 33.39800262451172 -36.522003173828125 4.696000099182129
    vertex 33.39800262451172 -36.432003021240234 4.406000137329102
    vertex 21.000001907348633 -36.522003173828125 4.696000099182129
  endloop
endfacet
facet normal -0.0 0.7757154240250426 0.631082863758515
  outer loop
    vertex 21.000001907348633 -36.290000915527344 4.138000011444091
    vertex 33.39800262451172 -36.098003387451165 3.902000188827514
    vertex 21.000001907348633 -36.098003387451165 3.902000188827514
  endloop
endfacet
facet normal 1.4974495865138126e-18 0.7757154240250426 0.631082863758515
  outer loop
    vertex 33.39800262451172 -36.290000915527344 4.138000011444091
    vertex 33.39800262451172 -36.098003387451165 3.902000188827514
    vertex 21.000001907348633 -36.290000915527344 4.138000011444091
  endloop
endfacet
facet normal -2.971731544502059e-19 0.9950375973381468 -0.09949964765529748
  outer loop
    vertex 21.000001907348633 -36.522003173828125 5.300000190734862
    vertex 33.39800262451172 -36.552001953125 4.999999999999999
    vertex 21.000001907348633 -36.552001953125 4.999999999999999
  endloop
endfacet
facet normal -2.9717315445020586e-19 0.9950375973381468 -0.09949964765529748
  outer loop
    vertex 33.39800262451172 -36.522003173828125 5.300000190734862
    vertex 33.39800262451172 -36.552001953125 4.999999999999999
    vertex 21.000001907348633 -36.522003173828125 5.300000190734862
  endloop
endfacet
facet normal 1.2050349978735528e-18 0.9556373173945416 -0.2945459515983274
  outer loop
    vertex 21.000001907348633 -36.432003021240234 5.592000484466552
    vertex 33.39800262451172 -36.522003173828125 5.300000190734862
    vertex 21.000001907348633 -36.522003173828125 5.300000190734862
  endloop
endfacet
facet normal -1.205034997873553e-18 0.9556373173945416 -0.2945459515983275
  outer loop
    vertex 33.39800262451172 -36.432003021240234 5.592000484466552
    vertex 33.39800262451172 -36.522003173828125 5.300000190734862
    vertex 21.000001907348633 -36.432003021240234 5.592000484466552
  endloop
endfacet
facet normal -0.0 0.7730776489785443 -0.634311397225217
  outer loop
    vertex 21.000001907348633 -36.098003387451165 6.094000339508056
    vertex 33.39800262451172 -36.290000915527344 5.860000133514404
    vertex 21.000001907348633 -36.290000915527344 5.860000133514404
  endloop
endfacet
facet normal -1.517972047077497e-18 0.7730776489785443 -0.634311397225217
  outer loop
    vertex 33.39800262451172 -36.098003387451165 6.094000339508056
    vertex 33.39800262451172 -36.290000915527344 5.860000133514404
    vertex 21.000001907348633 -36.098003387451165 6.094000339508056
  endloop
endfacet
facet normal 1.4912342782133723e-18 0.6350180439090206 -0.7724973034968868
  outer loop
    vertex 33.39800262451172 -36.098003387451165 6.094000339508056
    vertex 21.000001907348633 -36.098003387451165 6.094000339508056
    vertex 33.39800262451172 -35.862003326416016 6.2880001068115225
  endloop
endfacet
facet normal 0.0 0.6350180439090206 -0.7724973034968868
  outer loop
    vertex 33.39800262451172 -35.862003326416016 6.2880001068115225
    vertex 21.000001907348633 -36.098003387451165 6.094000339508056
    vertex 21.000001907348633 -35.862003326416016 6.2880001068115225
  endloop
endfacet
facet normal 5.78880749624276e-19 0.09820603118123603 -0.9951661044467052
  outer loop
    vertex 33.39800262451172 -35.30400085449219 6.520000457763672
    vertex 21.000001907348633 -35.30400085449219 6.520000457763672
    vertex 33.39800262451172 -35.0 6.550000190734863
  endloop
endfacet
facet normal 5.78880749624276e-19 0.098206031181236 -0.9951661044467052
  outer loop
    vertex 33.39800262451172 -35.0 6.550000190734863
    vertex 21.000001907348633 -35.30400085449219 6.520000457763672
    vertex 21.000001907348633 -35.0 6.550000190734863
  endloop
endfacet
facet normal -1.3227293164530386e-18 0.8836246828121239 0.46819592044909336
  outer loop
    vertex 21.000001907348633 -36.432003021240234 4.406000137329102
    vertex 33.39800262451172 -36.290000915527344 4.138000011444091
    vertex 21.000001907348633 -36.290000915527344 4.138000011444091
  endloop
endfacet
facet normal 1.3227293164530382e-18 0.8836246828121237 0.46819592044909336
  outer loop
    vertex 33.39800262451172 -36.432003021240234 4.406000137329102
    vertex 33.39800262451172 -36.290000915527344 4.138000011444091
    vertex 21.000001907348633 -36.432003021240234 4.406000137329102
  endloop
endfacet
facet normal 1.3227335074795692e-18 0.8836243381773567 -0.468196570876623
  outer loop
    vertex 21.000001907348633 -36.290000915527344 5.860000133514404
    vertex 33.39800262451172 -36.432003021240234 5.592000484466552
    vertex 21.000001907348633 -36.432003021240234 5.592000484466552
  endloop
endfacet
facet normal 1.3227335074795686e-18 0.8836243381773567 -0.468196570876623
  outer loop
    vertex 33.39800262451172 -36.290000915527344 5.860000133514404
    vertex 33.39800262451172 -36.432003021240234 5.592000484466552
    vertex 21.000001907348633 -36.290000915527344 5.860000133514404
  endloop
endfacet
facet normal 6.116697422909208e-19 0.29037375875867283 -0.9569133086253739
  outer loop
    vertex 33.39800262451172 -35.59400177001953 6.432000160217284
    vertex 21.000001907348633 -35.59400177001953 6.432000160217284
    vertex 33.39800262451172 -35.30400085449219 6.520000457763672
  endloop
endfacet
facet normal -6.116697422909209e-19 0.2903737587586729 -0.956913308625374
  outer loop
    vertex 33.39800262451172 -35.30400085449219 6.520000457763672
    vertex 21.000001907348633 -35.59400177001953 6.432000160217284
    vertex 21.000001907348633 -35.30400085449219 6.520000457763672
  endloop
endfacet
facet normal -6.484573692652837e-18 -0.4979879059431469 0.8671839744450769
  outer loop
    vertex 21.000001907348633 -31.97000122070312 3.248000144958496
    vertex 18.398000717163082 -31.97000122070312 3.248000144958496
    vertex 18.398000717163082 -32.374000549316406 3.0160000324249268
  endloop
endfacet
facet normal 0.0003549547278530793 -0.49970607971656367 0.8661949595220724
  outer loop
    vertex 21.000001907348633 -31.97000122070312 3.248000144958496
    vertex 18.398000717163082 -32.374000549316406 3.0160000324249268
    vertex 21.000001907348633 -35.0 1.5000001192092896
  endloop
endfacet
facet normal 7.847864761236107e-17 -0.4999699281558786 0.8660427650756085
  outer loop
    vertex 21.000001907348633 -35.0 1.5000001192092896
    vertex 18.398000717163082 -32.374000549316406 3.0160000324249268
    vertex 18.398000717163082 -35.0 1.5000001192092896
  endloop
endfacet
facet normal -7.837400197250168e-17 -0.4996841652109579 -0.8662076743122451
  outer loop
    vertex 21.000001907348633 -31.97000122070312 6.750000476837158
    vertex 18.398000717163082 -34.59800338745117 8.266000747680664
    vertex 18.398000717163082 -31.97000122070312 6.750000476837158
  endloop
endfacet
facet normal 0.0 -1.0 0.0
  outer loop
    vertex 18.398000717163082 -31.97000122070312 6.750000476837158
    vertex 18.398000717163082 -31.97000122070312 3.248000144958496
    vertex 21.000001907348633 -31.97000122070312 3.248000144958496
  endloop
endfacet
facet normal 0.0 -1.0 0.0
  outer loop
    vertex 18.398000717163082 -31.97000122070312 6.750000476837158
    vertex 21.000001907348633 -31.97000122070312 3.248000144958496
    vertex 21.000001907348633 -31.97000122070312 6.750000476837158
  endloop
endfacet
facet normal 6.541254284493695e-18 -0.49984897859579497 -0.866112578477383
  outer loop
    vertex 21.000001907348633 -35.0 8.498000144958496
    vertex 18.398000717163082 -35.0 8.498000144958496
    vertex 18.398000717163082 -34.59800338745117 8.266000747680664
  endloop
endfacet
facet normal 2.9438236112236867e-05 -0.49970603427256816 -0.8661950579661452
  outer loop
    vertex 21.000001907348633 -35.0 8.498000144958496
    vertex 18.398000717163082 -34.59800338745117 8.266000747680664
    vertex 21.000001907348633 -31.97000122070312 6.750000476837158
  endloop
endfacet
facet normal 7.837400658881482e-17 0.49968407676626964 0.8662077253328101
  outer loop
    vertex 21.000001907348633 -35.0 1.5000001192092896
    vertex 18.398000717163082 -35.0 1.5000001192092896
    vertex 18.398000717163082 -37.62800216674805 3.0160000324249268
  endloop
endfacet
facet normal -1.0 0.0 0.0
  outer loop
    vertex 21.000001907348633 -35.862003326416016 6.2880001068115225
    vertex 21.000001907348633 -36.098003387451165 6.094000339508056
    vertex 21.000001907348633 -38.03200149536133 6.750000476837158
  endloop
endfacet
facet normal -1.0 0.0 0.0
  outer loop
    vertex 21.000001907348633 -36.098003387451165 6.094000339508056
    vertex 21.000001907348633 -36.290000915527344 5.860000133514404
    vertex 21.000001907348633 -38.03200149536133 6.750000476837158
  endloop
endfacet
facet normal -1.0 0.0 0.0
  outer loop
    vertex 21.000001907348633 -35.0 8.498000144958496
    vertex 21.000001907348633 -35.59400177001953 6.432000160217284
    vertex 21.000001907348633 -35.862003326416016 6.2880001068115225
  endloop
endfacet
facet normal -1.0 0.0 0.0
  outer loop
    vertex 21.000001907348633 -35.0 8.498000144958496
    vertex 21.000001907348633 -35.30400085449219 6.520000457763672
    vertex 21.000001907348633 -35.59400177001953 6.432000160217284
  endloop
endfacet
facet normal -1.0 0.0 0.0
  outer loop
    vertex 21.000001907348633 -35.0 6.550000190734863
    vertex 21.000001907348633 -35.30400085449219 6.520000457763672
    vertex 21.000001907348633 -35.0 8.498000144958496
  endloop
endfacet
facet normal -1.0 0.0 0.0
  outer loop
    vertex 21.000001907348633 -36.552001953125 4.999999999999999
    vertex 21.000001907348633 -38.03200149536133 3.248000144958496
    vertex 21.000001907348633 -38.03200149536133 6.750000476837158
  endloop
endfacet
facet normal -1.0 0.0 0.0
  outer loop
    vertex 21.000001907348633 -35.862003326416016 3.7120001316070557
    vertex 21.000001907348633 -38.03200149536133 3.248000144958496
    vertex 21.000001907348633 -36.098003387451165 3.902000188827514
  endloop
endfacet
facet normal -1.0 0.0 0.0
  outer loop
    vertex 21.000001907348633 -36.522003173828125 4.696000099182129
    vertex 21.000001907348633 -38.03200149536133 3.248000144958496
    vertex 21.000001907348633 -36.552001953125 4.999999999999999
  endloop
endfacet
facet normal -1.0 0.0 0.0
  outer loop
    vertex 21.000001907348633 -36.290000915527344 5.860000133514404
    vertex 21.000001907348633 -36.432003021240234 5.592000484466552
    vertex 21.000001907348633 -38.03200149536133 6.750000476837158
  endloop
endfacet
facet normal -1.0 0.0 0.0
  outer loop
    vertex 21.000001907348633 -35.0 1.5000001192092896
    vertex 21.000001907348633 -35.862003326416016 3.7120001316070557
    vertex 21.000001907348633 -35.59400177001953 3.5680000782012935
  endloop
endfacet
facet normal -1.0 0.0 0.0
  outer loop
    vertex 21.000001907348633 -36.432003021240234 4.406000137329102
    vertex 21.000001907348633 -38.03200149536133 3.248000144958496
    vertex 21.000001907348633 -36.522003173828125 4.696000099182129
  endloop
endfacet
facet normal -1.0 0.0 0.0
  outer loop
    vertex 21.000001907348633 -34.40800094604492 6.432000160217284
    vertex 21.000001907348633 -34.698001861572266 6.520000457763672
    vertex 21.000001907348633 -35.0 8.498000144958496
  endloop
endfacet
facet normal -1.0 0.0 0.0
  outer loop
    vertex 21.000001907348633 -34.1400032043457 6.2880001068115225
    vertex 21.000001907348633 -34.40800094604492 6.432000160217284
    vertex 21.000001907348633 -35.0 8.498000144958496
  endloop
endfacet
facet normal -1.0 0.0 0.0
  outer loop
    vertex 21.000001907348633 -31.97000122070312 3.248000144958496
    vertex 21.000001907348633 -33.90400314331055 3.902000188827514
    vertex 21.000001907348633 -33.71200180053711 4.138000011444091
  endloop
endfacet
facet normal -1.0 0.0 0.0
  outer loop
    vertex 21.000001907348633 -34.698001861572266 6.520000457763672
    vertex 21.000001907348633 -35.0 6.550000190734863
    vertex 21.000001907348633 -35.0 8.498000144958496
  endloop
endfacet
facet normal -1.0 0.0 0.0
  outer loop
    vertex 21.000001907348633 -31.97000122070312 6.750000476837158
    vertex 21.000001907348633 -33.90400314331055 6.094000339508056
    vertex 21.000001907348633 -34.1400032043457 6.2880001068115225
  endloop
endfacet
facet normal -1.0 0.0 0.0
  outer loop
    vertex 21.000001907348633 -31.97000122070312 6.750000476837158
    vertex 21.000001907348633 -33.71200180053711 5.860000133514404
    vertex 21.000001907348633 -33.90400314331055 6.094000339508056
  endloop
endfacet
facet normal -1.0 0.0 0.0
  outer loop
    vertex 21.000001907348633 -31.97000122070312 6.750000476837158
    vertex 21.000001907348633 -33.56999969482422 5.592000484466552
    vertex 21.000001907348633 -33.71200180053711 5.860000133514404
  endloop
endfacet
facet normal -1.0 0.0 0.0
  outer loop
    vertex 21.000001907348633 -31.97000122070312 6.750000476837158
    vertex 21.000001907348633 -34.1400032043457 6.2880001068115225
    vertex 21.000001907348633 -35.0 8.498000144958496
  endloop
endfacet
facet normal -1.0 0.0 0.0
  outer loop
    vertex 21.000001907348633 -36.432003021240234 5.592000484466552
    vertex 21.000001907348633 -36.522003173828125 5.300000190734862
    vertex 21.000001907348633 -38.03200149536133 6.750000476837158
  endloop
endfacet
facet normal -1.0 0.0 0.0
  outer loop
    vertex 21.000001907348633 -36.522003173828125 5.300000190734862
    vertex 21.000001907348633 -36.552001953125 4.999999999999999
    vertex 21.000001907348633 -38.03200149536133 6.750000476837158
  endloop
endfacet
facet normal -1.0 0.0 0.0
  outer loop
    vertex 21.000001907348633 -35.0 8.498000144958496
    vertex 21.000001907348633 -35.862003326416016 6.2880001068115225
    vertex 21.000001907348633 -38.03200149536133 6.750000476837158
  endloop
endfacet
facet normal -1.0 0.0 0.0
  outer loop
    vertex 21.000001907348633 -31.97000122070312 3.248000144958496
    vertex 21.000001907348633 -33.71200180053711 4.138000011444091
    vertex 21.000001907348633 -33.56999969482422 4.406000137329102
  endloop
endfacet
facet normal -1.0 0.0 0.0
  outer loop
    vertex 21.000001907348633 -31.97000122070312 3.248000144958496
    vertex 21.000001907348633 -33.56999969482422 4.406000137329102
    vertex 21.000001907348633 -33.48000335693359 4.696000099182129
  endloop
endfacet
facet normal -1.0 0.0 0.0
  outer loop
    vertex 21.000001907348633 -31.97000122070312 6.750000476837158
    vertex 21.000001907348633 -33.45000076293945 4.999999999999999
    vertex 21.000001907348633 -33.48000335693359 5.300000190734862
  endloop
endfacet
facet normal -1.0 0.0 0.0
  outer loop
    vertex 21.000001907348633 -31.97000122070312 6.750000476837158
    vertex 21.000001907348633 -33.48000335693359 5.300000190734862
    vertex 21.000001907348633 -33.56999969482422 5.592000484466552
  endloop
endfacet
facet normal -1.0 0.0 0.0
  outer loop
    vertex 21.000001907348633 -31.97000122070312 3.248000144958496
    vertex 21.000001907348633 -33.48000335693359 4.696000099182129
    vertex 21.000001907348633 -33.45000076293945 4.999999999999999
  endloop
endfacet
facet normal -1.0 0.0 0.0
  outer loop
    vertex 21.000001907348633 -31.97000122070312 3.248000144958496
    vertex 21.000001907348633 -34.1400032043457 3.7120001316070557
    vertex 21.000001907348633 -33.90400314331055 3.902000188827514
  endloop
endfacet
facet normal -1.0 0.0 0.0
  outer loop
    vertex 21.000001907348633 -35.0 1.5000001192092896
    vertex 21.000001907348633 -35.30400085449219 3.478000164031982
    vertex 21.000001907348633 -35.0 3.450000047683716
  endloop
endfacet
facet normal -1.0 0.0 0.0
  outer loop
    vertex 21.000001907348633 -36.290000915527344 4.138000011444091
    vertex 21.000001907348633 -38.03200149536133 3.248000144958496
    vertex 21.000001907348633 -36.432003021240234 4.406000137329102
  endloop
endfacet
facet normal -1.0 0.0 0.0
  outer loop
    vertex 21.000001907348633 -31.97000122070312 3.248000144958496
    vertex 21.000001907348633 -35.0 1.5000001192092896
    vertex 21.000001907348633 -34.1400032043457 3.7120001316070557
  endloop
endfacet
facet normal -1.0 0.0 0.0
  outer loop
    vertex 21.000001907348633 -31.97000122070312 3.248000144958496
    vertex 21.000001907348633 -33.45000076293945 4.999999999999999
    vertex 21.000001907348633 -31.97000122070312 6.750000476837158
  endloop
endfacet
facet normal -1.0 0.0 0.0
  outer loop
    vertex 21.000001907348633 -34.1400032043457 3.7120001316070557
    vertex 21.000001907348633 -35.0 1.5000001192092896
    vertex 21.000001907348633 -34.40800094604492 3.5680000782012935
  endloop
endfacet
facet normal -1.0 0.0 0.0
  outer loop
    vertex 21.000001907348633 -34.40800094604492 3.5680000782012935
    vertex 21.000001907348633 -35.0 1.5000001192092896
    vertex 21.000001907348633 -34.698001861572266 3.478000164031982
  endloop
endfacet
facet normal -1.0 0.0 0.0
  outer loop
    vertex 21.000001907348633 -36.098003387451165 3.902000188827514
    vertex 21.000001907348633 -38.03200149536133 3.248000144958496
    vertex 21.000001907348633 -36.290000915527344 4.138000011444091
  endloop
endfacet
facet normal -1.0 0.0 0.0
  outer loop
    vertex 21.000001907348633 -35.0 1.5000001192092896
    vertex 21.000001907348633 -38.03200149536133 3.248000144958496
    vertex 21.000001907348633 -35.862003326416016 3.7120001316070557
  endloop
endfacet
facet normal -1.0 0.0 0.0
  outer loop
    vertex 21.000001907348633 -34.698001861572266 3.478000164031982
    vertex 21.000001907348633 -35.0 1.5000001192092896
    vertex 21.000001907348633 -35.0 3.450000047683716
  endloop
endfacet
facet normal -1.0 0.0 0.0
  outer loop
    vertex 21.000001907348633 -35.0 1.5000001192092896
    vertex 21.000001907348633 -35.59400177001953 3.5680000782012935
    vertex 21.000001907348633 -35.30400085449219 3.478000164031982
  endloop
endfacet
facet normal -0.0 1.0 -0.0
  outer loop
    vertex 18.398000717163082 -38.03200149536133 6.750000476837158
    vertex 21.000001907348633 -38.03200149536133 3.248000144958496
    vertex 18.398000717163082 -38.03200149536133 3.248000144958496
  endloop
endfacet
facet normal -0.0 1.0 -0.0
  outer loop
    vertex 21.000001907348633 -38.03200149536133 6.750000476837158
    vertex 21.000001907348633 -38.03200149536133 3.248000144958496
    vertex 18.398000717163082 -38.03200149536133 6.750000476837158
  endloop
endfacet
facet normal 5.888842421875897e-17 0.49945832456426115 -0.8663379144557055
  outer loop
    vertex 21.000001907348633 -38.03200149536133 6.750000476837158
    vertex 18.398000717163082 -38.03200149536133 6.750000476837158
    vertex 21.000001907348633 -35.0 8.498000144958496
  endloop
endfacet
facet normal 0.0 0.49945832456426126 -0.8663379144557054
  outer loop
    vertex 21.000001907348633 -35.0 8.498000144958496
    vertex 18.398000717163082 -38.03200149536133 6.750000476837158
    vertex 18.398000717163082 -35.0 8.498000144958496
  endloop
endfacet
facet normal 0.00030375672290494356 0.4994583782166491 0.8663378302723761
  outer loop
    vertex 21.000001907348633 -35.0 1.5000001192092896
    vertex 18.398000717163082 -37.62800216674805 3.0160000324249268
    vertex 21.000001907348633 -38.03200149536133 3.248000144958496
  endloop
endfacet
facet normal -6.484573692652837e-18 0.4979879059431469 0.8671839744450769
  outer loop
    vertex 21.000001907348633 -38.03200149536133 3.248000144958496
    vertex 18.398000717163082 -37.62800216674805 3.0160000324249268
    vertex 18.398000717163082 -38.03200149536133 3.248000144958496
  endloop
endfacet
facet normal 0.9558831106523709 0.29374730427622214 4.010840036523659e-18
  outer loop
    vertex 66.76834107157167 254.15072708029996 9.998000144958512
    vertex 67.01234055277284 253.35672836203827 9.998000144958512
    vertex 66.76834107157167 254.15072708029996 0.0
  endloop
endfacet
facet normal -1.0 0.0 0.0
  outer loop
    vertex 75.18833924051698 267.97072677512415 9.998000144958512
    vertex 75.18833924051698 254.98072891135462 0.0
    vertex 75.18833924051698 254.98072891135462 9.998000144958512
  endloop
endfacet
facet normal 0.9951551284856549 0.09831719203018323 -9.553067561029621e-19
  outer loop
    vertex 66.6863403391498 254.98072891135462 9.998000144958512
    vertex 66.76834107157167 254.15072708029996 9.998000144958512
    vertex 66.6863403391498 254.98072891135462 0.0
  endloop
endfacet
facet normal -0.4682199453093367 0.8836119526209012 -0.0
  outer loop
    vertex 73.29833985086853 251.44672469992886 9.998000144958512
    vertex 73.29833985086853 251.44672469992886 0.0
    vertex 72.56234360453065 251.05672531028046 9.998000144958512
  endloop
endfacet
facet normal -0.8836129566429272 0.46821805054135274 4.3149575811891604e-18
  outer loop
    vertex 74.8623428415912 253.35672836203827 9.998000144958512
    vertex 74.47234345194275 252.6207283010031 0.0
    vertex 74.47234345194275 252.6207283010031 9.998000144958512
  endloop
endfacet
facet normal 0.6342791130074772 0.7731041371008489 -4.900532123488339e-18
  outer loop
    vertex 67.93034363504825 251.97672347922577 9.998000144958512
    vertex 68.5763435434955 251.44672469992886 0.0
    vertex 67.93034363504825 251.97672347922577 0.0
  endloop
endfacet
facet normal -0.0 -0.0 1.0
  outer loop
    vertex 84.33834076639592 252.97072677512412 9.998000144958512
    vertex 74.47234345194275 252.6207283010031 9.998000144958512
    vertex 73.94434357401308 251.97672347922577 9.998000144958512
  endloop
endfacet
facet normal -0.0 -0.0 1.0
  outer loop
    vertex 85.33634186502877 267.97072677512415 9.998000144958512
    vertex 75.18833924051698 267.97072677512415 9.998000144958512
    vertex 75.18833924051698 254.98072891135462 9.998000144958512
  endloop
endfacet
facet normal -0.9951560234432159 0.09830813295290276 9.55307615224299e-19
  outer loop
    vertex 75.18833924051698 254.98072891135462 0.0
    vertex 75.10634613748962 254.15072708029996 0.0
    vertex 75.18833924051698 254.98072891135462 9.998000144958512
  endloop
endfacet
facet normal -0.0 -0.0 1.0
  outer loop
    vertex 84.33834076639592 252.97072677512412 9.998000144958512
    vertex 75.18833924051698 254.98072891135462 9.998000144958512
    vertex 75.10634613748962 254.15072708029996 9.998000144958512
  endloop
endfacet
facet normal 0.2908718662491998 0.9567620171310668 -0.0
  outer loop
    vertex 70.10834122415955 250.81472854514377 9.998000144958512
    vertex 70.10834122415955 250.81472854514377 0.0
    vertex 69.31234360453064 251.05672531028046 9.998000144958512
  endloop
endfacet
facet normal 0.8836110618783468 0.4682216262906067 -4.314948328462919e-18
  outer loop
    vertex 67.01234055277284 253.35672836203827 9.998000144958512
    vertex 67.40234375711856 252.6207283010031 9.998000144958512
    vertex 67.01234055277284 253.35672836203827 0.0
  endloop
endfacet
facet normal -0.10093088636613175 0.994893439609161 -0.0
  outer loop
    vertex 70.93834305521425 250.73072891135467 9.998000144958512
    vertex 71.76634217020447 250.81472854514377 0.0
    vertex 70.93834305521425 250.73072891135467 0.0
  endloop
endfacet
facet normal -0.2908705902333711 0.9567624050605722 -0.0
  outer loop
    vertex 71.76634217020447 250.81472854514377 9.998000144958512
    vertex 72.56234360453065 251.05672531028046 0.0
    vertex 71.76634217020447 250.81472854514377 0.0
  endloop
endfacet
facet normal -0.0 -0.0 1.0
  outer loop
    vertex 84.33834076639592 252.97072677512412 9.998000144958512
    vertex 73.94434357401308 251.97672347922577 9.998000144958512
    vertex 73.29833985086853 251.44672469992886 9.998000144958512
  endloop
endfacet
facet normal -0.00020845016039786746 6.405870059713729e-05 -0.9999999762225066
  outer loop
    vertex 84.33834076639592 252.97072677512412 -0.002000000094996546
    vertex 74.8623428415912 253.35672836203827 0.0
    vertex 75.10634613748962 254.15072708029996 0.0
  endloop
endfacet
facet normal -0.0 1.0 -0.0
  outer loop
    vertex 85.33634186502877 267.97072677512415 9.998000144958512
    vertex 85.33634186502877 267.97072677512415 0.0
    vertex 75.18833924051698 267.97072677512415 9.998000144958512
  endloop
endfacet
facet normal 0.0 0.0 -1.0
  outer loop
    vertex 85.33634186502877 267.97072677512415 0.0
    vertex 75.18833924051698 254.98072891135462 0.0
    vertex 75.18833924051698 267.97072677512415 0.0
  endloop
endfacet
facet normal -0.0 -0.0 1.0
  outer loop
    vertex 66.6863403391498 267.97072677512415 9.998000144958512
    vertex 61.33634186502871 267.97072677512415 9.998000144958512
    vertex 66.6863403391498 254.98072891135462 9.998000144958512
  endloop
endfacet
facet normal 0.2908718662491998 0.9567620171310668 -0.0
  outer loop
    vertex 69.31234360453064 251.05672531028046 9.998000144958512
    vertex 70.10834122415955 250.81472854514377 0.0
    vertex 69.31234360453064 251.05672531028046 0.0
  endloop
endfacet
facet normal -0.7733172891389207 0.6340192192030387 0.0
  outer loop
    vertex 74.47234345194275 252.6207283010031 0.0
    vertex 73.94434357401308 251.97672347922577 0.0
    vertex 74.47234345194275 252.6207283010031 9.998000144958512
  endloop
endfacet
facet normal 0.10068982170337566 0.9949178658589575 -9.550789940345952e-19
  outer loop
    vertex 70.10834122415955 250.81472854514377 9.998000144958512
    vertex 70.93834305521425 250.73072891135467 0.0
    vertex 70.10834122415955 250.81472854514377 0.0
  endloop
endfacet
facet normal -0.9951560234432159 0.09830813295290276 9.55307615224299e-19
  outer loop
    vertex 75.18833924051698 254.98072891135462 9.998000144958512
    vertex 75.10634613748962 254.15072708029996 0.0
    vertex 75.10634613748962 254.15072708029996 9.998000144958512
  endloop
endfacet
facet normal -1.0 0.0 0.0
  outer loop
    vertex 75.18833924051698 267.97072677512415 0.0
    vertex 75.18833924051698 254.98072891135462 0.0
    vertex 75.18833924051698 267.97072677512415 9.998000144958512
  endloop
endfacet
facet normal 0.9558831106523709 0.29374730427622214 4.010840036523659e-18
  outer loop
    vertex 66.76834107157167 254.15072708029996 0.0
    vertex 67.01234055277284 253.35672836203827 9.998000144958512
    vertex 67.01234055277284 253.35672836203827 0.0
  endloop
endfacet
facet normal -0.00018656284027212974 0.00014574599723364017 -0.999999971976205
  outer loop
    vertex 85.33634186502877 267.97072677512415 0.0
    vertex 84.33834076639592 252.97072677512412 -0.002000000094996546
    vertex 75.18833924051698 254.98072891135462 0.0
  endloop
endfacet
facet normal -0.6342768743739089 0.7731059737412878 -0.0
  outer loop
    vertex 73.94434357401308 251.97672347922577 9.998000144958512
    vertex 73.94434357401308 251.97672347922577 0.0
    vertex 73.29833985086853 251.44672469992886 9.998000144958512
  endloop
endfacet
facet normal 0.10068982170337566 0.9949178658589575 -9.550789940345952e-19
  outer loop
    vertex 70.93834305521425 250.73072891135467 9.998000144958512
    vertex 70.93834305521425 250.73072891135467 0.0
    vertex 70.10834122415955 250.81472854514377 9.998000144958512
  endloop
endfacet
facet normal 0.9977939742599097 -0.06638663216804228 -0.0
  outer loop
    vertex 85.33634186502877 267.97072677512415 9.998000144958512
    vertex 84.33834076639592 252.97072677512412 9.998000144958512
    vertex 85.33634186502877 267.97072677512415 0.0
  endloop
endfacet
facet normal 0.0 0.0 -1.0
  outer loop
    vertex 66.6863403391498 254.98072891135462 0.0
    vertex 61.33634186502871 267.97072677512415 0.0
    vertex 66.6863403391498 267.97072677512415 0.0
  endloop
endfacet
facet normal -0.0 1.0 -0.0
  outer loop
    vertex 66.6863403391498 267.97072677512415 9.998000144958512
    vertex 66.6863403391498 267.97072677512415 0.0
    vertex 61.33634186502871 267.97072677512415 9.998000144958512
  endloop
endfacet
facet normal -0.9558818211377896 0.29375150045285353 -2.0054173128909263e-18
  outer loop
    vertex 75.10634613748962 254.15072708029996 0.0
    vertex 74.8623428415912 253.35672836203827 0.0
    vertex 75.10634613748962 254.15072708029996 9.998000144958512
  endloop
endfacet
facet normal 0.9951551284856549 0.09831719203018323 -9.553067561029621e-19
  outer loop
    vertex 66.6863403391498 254.98072891135462 0.0
    vertex 66.76834107157167 254.15072708029996 9.998000144958512
    vertex 66.76834107157167 254.15072708029996 0.0
  endloop
endfacet
facet normal -0.7733172891389207 0.6340192192030387 4.932301746031582e-18
  outer loop
    vertex 74.47234345194275 252.6207283010031 9.998000144958512
    vertex 73.94434357401308 251.97672347922577 0.0
    vertex 73.94434357401308 251.97672347922577 9.998000144958512
  endloop
endfacet
facet normal 0.4682180505413428 0.8836129566429323 -0.0
  outer loop
    vertex 68.5763435434955 251.44672469992886 9.998000144958512
    vertex 69.31234360453064 251.05672531028046 0.0
    vertex 68.5763435434955 251.44672469992886 0.0
  endloop
endfacet
facet normal -0.0002139366304827315 2.113408371907671e-05 -0.9999999768922342
  outer loop
    vertex 84.33834076639592 252.97072677512412 -0.002000000094996546
    vertex 75.10634613748962 254.15072708029996 0.0
    vertex 75.18833924051698 254.98072891135462 0.0
  endloop
endfacet
facet normal -0.0 -0.0 1.0
  outer loop
    vertex 84.33834076639592 252.97072677512412 9.998000144958512
    vertex 73.29833985086853 251.44672469992886 9.998000144958512
    vertex 72.56234360453065 251.05672531028046 9.998000144958512
  endloop
endfacet
facet normal -0.10093088636613175 0.994893439609161 -0.0
  outer loop
    vertex 71.76634217020447 250.81472854514377 9.998000144958512
    vertex 71.76634217020447 250.81472854514377 0.0
    vertex 70.93834305521425 250.73072891135467 9.998000144958512
  endloop
endfacet
facet normal -0.9558818211377896 0.29375150045285353 -2.0054173128909263e-18
  outer loop
    vertex 75.10634613748962 254.15072708029996 9.998000144958512
    vertex 74.8623428415912 253.35672836203827 0.0
    vertex 74.8623428415912 253.35672836203827 9.998000144958512
  endloop
endfacet
facet normal 0.9977939742599097 -0.0663866321680423 -1.2007559192111926e-17
  outer loop
    vertex 85.33634186502877 267.97072677512415 0.0
    vertex 84.33834076639592 252.97072677512412 9.998000144958512
    vertex 84.33834076639592 252.97072677512412 -0.002000000094996546
  endloop
endfacet
facet normal -0.6342768743739089 0.7731059737412878 -0.0
  outer loop
    vertex 73.29833985086853 251.44672469992886 9.998000144958512
    vertex 73.94434357401308 251.97672347922577 0.0
    vertex 73.29833985086853 251.44672469992886 0.0
  endloop
endfacet
facet normal -0.00020878909921639326 0.00017117980358448054 -0.9999999635522929
  outer loop
    vertex 84.33834076639592 252.97072677512412 -0.002000000094996546
    vertex 73.94434357401308 251.97672347922577 0.0
    vertex 74.47234345194275 252.6207283010031 0.0
  endloop
endfacet
facet normal -0.0 -0.0 1.0
  outer loop
    vertex 84.33834076639592 252.97072677512412 9.998000144958512
    vertex 75.10634613748962 254.15072708029996 9.998000144958512
    vertex 74.8623428415912 253.35672836203827 9.998000144958512
  endloop
endfacet
facet normal 0.8836110618783468 0.4682216262906067 -4.314948328462919e-18
  outer loop
    vertex 67.01234055277284 253.35672836203827 0.0
    vertex 67.40234375711856 252.6207283010031 9.998000144958512
    vertex 67.40234375711856 252.6207283010031 0.0
  endloop
endfacet
facet normal 0.7733172891389074 0.6340192192030549 4.9323017460314964e-18
  outer loop
    vertex 67.40234375711856 252.6207283010031 9.998000144958512
    vertex 67.93034363504825 251.97672347922577 9.998000144958512
    vertex 67.40234375711856 252.6207283010031 0.0
  endloop
endfacet
facet normal 0.7733172891389075 0.6340192192030549 -9.864603492062993e-18
  outer loop
    vertex 67.40234375711856 252.6207283010031 0.0
    vertex 67.93034363504825 251.97672347922577 9.998000144958512
    vertex 67.93034363504825 251.97672347922577 0.0
  endloop
endfacet
facet normal -0.0 -0.0 1.0
  outer loop
    vertex 84.33834076639592 252.97072677512412 9.998000144958512
    vertex 74.8623428415912 253.35672836203827 9.998000144958512
    vertex 74.47234345194275 252.6207283010031 9.998000144958512
  endloop
endfacet
facet normal -0.8836129566429272 0.46821805054135274 0.0
  outer loop
    vertex 74.8623428415912 253.35672836203827 0.0
    vertex 74.47234345194275 252.6207283010031 0.0
    vertex 74.8623428415912 253.35672836203827 9.998000144958512
  endloop
endfacet
facet normal -0.00021780729757828621 0.000265480470257464 -0.999999941040049
  outer loop
    vertex 84.33834076639592 252.97072677512412 -0.002000000094996546
    vertex 73.29833985086853 251.44672469992886 0.0
    vertex 73.94434357401308 251.97672347922577 0.0
  endloop
endfacet
facet normal -0.0 1.0 -0.0
  outer loop
    vertex 61.33634186502871 267.97072677512415 9.998000144958512
    vertex 66.6863403391498 267.97072677512415 0.0
    vertex 61.33634186502871 267.97072677512415 0.0
  endloop
endfacet
facet normal 1.0 -0.0 -0.0
  outer loop
    vertex 66.6863403391498 267.97072677512415 9.998000144958512
    vertex 66.6863403391498 254.98072891135462 9.998000144958512
    vertex 66.6863403391498 267.97072677512415 0.0
  endloop
endfacet
facet normal -0.0 1.0 -0.0
  outer loop
    vertex 75.18833924051698 267.97072677512415 9.998000144958512
    vertex 85.33634186502877 267.97072677512415 0.0
    vertex 75.18833924051698 267.97072677512415 0.0
  endloop
endfacet
facet normal -0.0 -0.0 1.0
  outer loop
    vertex 85.33634186502877 267.97072677512415 9.998000144958512
    vertex 75.18833924051698 254.98072891135462 9.998000144958512
    vertex 84.33834076639592 252.97072677512412 9.998000144958512
  endloop
endfacet
facet normal -0.000244979561647075 0.0004623187691762524 -0.9999998631231758
  outer loop
    vertex 84.33834076639592 252.97072677512412 -0.002000000094996546
    vertex 72.56234360453065 251.05672531028046 0.0
    vertex 73.29833985086853 251.44672469992886 0.0
  endloop
endfacet
facet normal -0.00020660012449623898 0.00010947542903936909 -0.9999999726657592
  outer loop
    vertex 84.33834076639592 252.97072677512412 -0.002000000094996546
    vertex 74.47234345194275 252.6207283010031 0.0
    vertex 74.8623428415912 253.35672836203827 0.0
  endloop
endfacet
facet normal 1.0 -0.0 -0.0
  outer loop
    vertex 66.6863403391498 267.97072677512415 0.0
    vertex 66.6863403391498 254.98072891135462 9.998000144958512
    vertex 66.6863403391498 254.98072891135462 0.0
  endloop
endfacet
facet normal 0.4682180505413429 0.8836129566429323 4.314957581189452e-18
  outer loop
    vertex 69.31234360453064 251.05672531028046 9.998000144958512
    vertex 69.31234360453064 251.05672531028046 0.0
    vertex 68.5763435434955 251.44672469992886 9.998000144958512
  endloop
endfacet
facet normal 0.6342791130074773 0.7731041371008489 -0.0
  outer loop
    vertex 68.5763435434955 251.44672469992886 9.998000144958512
    vertex 68.5763435434955 251.44672469992886 0.0
    vertex 67.93034363504825 251.97672347922577 9.998000144958512
  endloop
endfacet
facet normal -0.4682199453093367 0.8836119526209012 -0.0
  outer loop
    vertex 72.56234360453065 251.05672531028046 9.998000144958512
    vertex 73.29833985086853 251.44672469992886 0.0
    vertex 72.56234360453065 251.05672531028046 0.0
  endloop
endfacet
facet normal -0.2908705902333711 0.9567624050605722 -0.0
  outer loop
    vertex 72.56234360453065 251.05672531028046 9.998000144958512
    vertex 72.56234360453065 251.05672531028046 0.0
    vertex 71.76634217020447 250.81472854514377 9.998000144958512
  endloop
endfacet
facet normal -2.4218384290258914e-05 4.193595567790612e-06 -0.9999999996979418
  outer loop
    vertex 61.33634186502871 267.97072677512415 0.0
    vertex 9.998000144958496 -9.100000381469725 0.0
    vertex 0.0 4.988000392913818 0.0
  endloop
endfacet
facet normal -2.4218384290258914e-05 4.193595567790612e-06 -0.9999999996979418
  outer loop
    vertex 9.998000144958496 -9.100000381469725 0.0
    vertex 61.33634186502871 267.97072677512415 0.0
    vertex 18.398000717163082 -9.100000381469725 0.0
  endloop
endfacet
facet normal -2.4218384290258914e-05 4.193595567790612e-06 -0.9999999996979418
  outer loop
    vertex 18.398000717163082 -9.100000381469725 0.0
    vertex 61.33634186502871 267.97072677512415 0.0
    vertex 33.20000076293945 3.000000238418579 0.0
  endloop
endfacet
facet normal -2.4218384290258914e-05 4.193595567790612e-06 -0.9999999996979418
  outer loop
    vertex 33.20000076293945 3.000000238418579 0.0
    vertex 61.33634186502871 267.97072677512415 0.0
    vertex 33.39800262451172 3.000000238418579 0.0
  endloop
endfacet
facet normal -2.4218384290258914e-05 4.193595567790612e-06 -0.9999999996979418
  outer loop
    vertex 33.39800262451172 3.000000238418579 0.0
    vertex 61.33634186502871 267.97072677512415 0.0
    vertex 67.01234055277284 253.35672836203827 0.0
  endloop
endfacet
facet normal -2.4218384290258914e-05 4.193595567790612e-06 -0.9999999996979418
  outer loop
    vertex 33.39800262451172 3.000000238418579 0.0
    vertex 67.01234055277284 253.35672836203827 0.0
    vertex 67.40234375711856 252.6207283010031 0.0
  endloop
endfacet
facet normal -2.4218384290258914e-05 4.193595567790612e-06 -0.9999999996979418
  outer loop
    vertex 33.39800262451172 3.000000238418579 0.0
    vertex 67.40234375711856 252.6207283010031 0.0
    vertex 67.93034363504825 251.97672347922577 0.0
  endloop
endfacet
facet normal -2.4218384290258914e-05 4.193595567790612e-06 -0.9999999996979418
  outer loop
    vertex 33.39800262451172 3.000000238418579 0.0
    vertex 67.93034363504825 251.97672347922577 0.0
    vertex 68.5763435434955 251.44672469992886 0.0
  endloop
endfacet
facet normal -2.4218384290258914e-05 4.193595567790612e-06 -0.9999999996979418
  outer loop
    vertex 33.39800262451172 3.000000238418579 0.0
    vertex 68.5763435434955 251.44672469992886 0.0
    vertex 69.31234360453064 251.05672531028046 0.0
  endloop
endfacet
facet normal -2.4218384290258914e-05 4.193595567790612e-06 -0.9999999996979418
  outer loop
    vertex 33.39800262451172 3.000000238418579 0.0
    vertex 69.31234360453064 251.05672531028046 0.0
    vertex 70.10834122415955 250.81472854514377 0.0
  endloop
endfacet
facet normal -2.4218384290258914e-05 4.193595567790612e-06 -0.9999999996979418
  outer loop
    vertex 33.39800262451172 3.000000238418579 0.0
    vertex 70.10834122415955 250.81472854514377 0.0
    vertex 70.93834305521425 250.73072891135467 0.0
  endloop
endfacet
facet normal -2.4218384290258914e-05 4.193595567790612e-06 -0.9999999996979418
  outer loop
    vertex 33.39800262451172 3.000000238418579 0.0
    vertex 70.93834305521425 250.73072891135467 0.0
    vertex 71.76634217020447 250.81472854514377 0.0
  endloop
endfacet
facet normal -2.4218384290258914e-05 4.193595567790612e-06 -0.9999999996979418
  outer loop
    vertex 33.39800262451172 3.000000238418579 0.0
    vertex 71.76634217020447 250.81472854514377 0.0
    vertex 84.33834076639592 252.97072677512412 -0.002000000094996546
  endloop
endfacet
facet normal -2.4218384290258914e-05 4.193595567790612e-06 -0.9999999996979418
  outer loop
    vertex 67.01234055277284 253.35672836203827 0.0
    vertex 61.33634186502871 267.97072677512415 0.0
    vertex 66.76834107157167 254.15072708029996 0.0
  endloop
endfacet
facet normal -2.4218384290258914e-05 4.193595567790612e-06 -0.9999999996979418
  outer loop
    vertex 66.76834107157167 254.15072708029996 0.0
    vertex 61.33634186502871 267.97072677512415 0.0
    vertex 66.6863403391498 254.98072891135462 0.0
  endloop
endfacet
facet normal -2.4218384290258914e-05 4.193595567790612e-06 -0.9999999996979418
  outer loop
    vertex 84.33834076639592 252.97072677512412 -0.002000000094996546
    vertex 71.76634217020447 250.81472854514377 0.0
    vertex 72.56234360453065 251.05672531028046 0.0
  endloop
endfacet
facet normal 0.9798609242491425 -0.19968116869053104 1.3391809163478913e-16
  outer loop
    vertex 84.33834076639592 252.97072677512412 -0.002000000094996546
    vertex 33.39800262451172 3.000000238418579 9.998000144958496
    vertex 33.39800262451172 3.000000238418579 0.0
  endloop
endfacet
facet normal 0.9798609242491425 -0.19968116869053104 1.3391809163478913e-16
  outer loop
    vertex 33.39800262451172 3.000000238418579 9.998000144958496
    vertex 84.33834076639592 252.97072677512412 -0.002000000094996546
    vertex 84.33834076639592 252.97072677512412 9.998000144958512
  endloop
endfacet
facet normal -0.9738627522774708 0.22713727066809136 -2.130734756376899e-17
  outer loop
    vertex 61.33634186502871 267.97072677512415 9.998000144958512
    vertex 0.0 4.988000392913818 0.0
    vertex 0.0 4.988000392913818 9.998000144958496
  endloop
endfacet
facet normal -0.9738627522774708 0.22713727066809136 -2.130734756376899e-17
  outer loop
    vertex 0.0 4.988000392913818 0.0
    vertex 61.33634186502871 267.97072677512415 9.998000144958512
    vertex 61.33634186502871 267.97072677512415 0.0
  endloop
endfacet
facet normal -1.40271789484679e-17 -5.752082821145687e-17 1.0
  outer loop
    vertex 9.998000144958496 -9.100000381469725 9.998000144958496
    vertex 61.33634186502871 267.97072677512415 9.998000144958512
    vertex 0.0 4.988000392913818 9.998000144958496
  endloop
endfacet
facet normal -1.40271789484679e-17 -5.752082821145687e-17 1.0
  outer loop
    vertex 61.33634186502871 267.97072677512415 9.998000144958512
    vertex 9.998000144958496 -9.100000381469725 9.998000144958496
    vertex 18.398000717163082 -9.100000381469725 9.998000144958496
  endloop
endfacet
facet normal -1.40271789484679e-17 -5.752082821145687e-17 1.0
  outer loop
    vertex 61.33634186502871 267.97072677512415 9.998000144958512
    vertex 18.398000717163082 -9.100000381469725 9.998000144958496
    vertex 33.39800262451172 3.000000238418579 9.998000144958496
  endloop
endfacet
facet normal -1.40271789484679e-17 -5.752082821145687e-17 1.0
  outer loop
    vertex 61.33634186502871 267.97072677512415 9.998000144958512
    vertex 33.39800262451172 3.000000238418579 9.998000144958496
    vertex 67.01234055277284 253.35672836203827 9.998000144958512
  endloop
endfacet
facet normal -1.40271789484679e-17 -5.752082821145687e-17 1.0
  outer loop
    vertex 67.01234055277284 253.35672836203827 9.998000144958512
    vertex 33.39800262451172 3.000000238418579 9.998000144958496
    vertex 67.40234375711856 252.6207283010031 9.998000144958512
  endloop
endfacet
facet normal -1.40271789484679e-17 -5.752082821145687e-17 1.0
  outer loop
    vertex 67.40234375711856 252.6207283010031 9.998000144958512
    vertex 33.39800262451172 3.000000238418579 9.998000144958496
    vertex 67.93034363504825 251.97672347922577 9.998000144958512
  endloop
endfacet
facet normal -1.40271789484679e-17 -5.752082821145687e-17 1.0
  outer loop
    vertex 67.93034363504825 251.97672347922577 9.998000144958512
    vertex 33.39800262451172 3.000000238418579 9.998000144958496
    vertex 68.5763435434955 251.44672469992886 9.998000144958512
  endloop
endfacet
facet normal -1.40271789484679e-17 -5.752082821145687e-17 1.0
  outer loop
    vertex 68.5763435434955 251.44672469992886 9.998000144958512
    vertex 33.39800262451172 3.000000238418579 9.998000144958496
    vertex 69.31234360453064 251.05672531028046 9.998000144958512
  endloop
endfacet
facet normal -1.40271789484679e-17 -5.752082821145687e-17 1.0
  outer loop
    vertex 69.31234360453064 251.05672531028046 9.998000144958512
    vertex 33.39800262451172 3.000000238418579 9.998000144958496
    vertex 70.10834122415955 250.81472854514377 9.998000144958512
  endloop
endfacet
facet normal -1.40271789484679e-17 -5.752082821145687e-17 1.0
  outer loop
    vertex 70.10834122415955 250.81472854514377 9.998000144958512
    vertex 33.39800262451172 3.000000238418579 9.998000144958496
    vertex 70.93834305521425 250.73072891135467 9.998000144958512
  endloop
endfacet
facet normal -1.40271789484679e-17 -5.752082821145687e-17 1.0
  outer loop
    vertex 70.93834305521425 250.73072891135467 9.998000144958512
    vertex 33.39800262451172 3.000000238418579 9.998000144958496
    vertex 71.76634217020447 250.81472854514377 9.998000144958512
  endloop
endfacet
facet normal -1.40271789484679e-17 -5.752082821145687e-17 1.0
  outer loop
    vertex 71.76634217020447 250.81472854514377 9.998000144958512
    vertex 33.39800262451172 3.000000238418579 9.998000144958496
    vertex 84.33834076639592 252.97072677512412 9.998000144958512
  endloop
endfacet
facet normal -1.40271789484679e-17 -5.752082821145687e-17 1.0
  outer loop
    vertex 61.33634186502871 267.97072677512415 9.998000144958512
    vertex 67.01234055277284 253.35672836203827 9.998000144958512
    vertex 66.76834107157167 254.15072708029996 9.998000144958512
  endloop
endfacet
facet normal -1.40271789484679e-17 -5.752082821145687e-17 1.0
  outer loop
    vertex 61.33634186502871 267.97072677512415 9.998000144958512
    vertex 66.76834107157167 254.15072708029996 9.998000144958512
    vertex 66.6863403391498 254.98072891135462 9.998000144958512
  endloop
endfacet
facet normal -1.40271789484679e-17 -5.752082821145687e-17 1.0
  outer loop
    vertex 71.76634217020447 250.81472854514377 9.998000144958512
    vertex 84.33834076639592 252.97072677512412 9.998000144958512
    vertex 72.56234360453065 251.05672531028046 9.998000144958512
  endloop
endfacet
endsolid Spool
